<?xml version="1.0" encoding="UTF-8" standalone="no"?>
<!-- Created with Inkscape (http://www.inkscape.org/) -->

<svg
   xmlns:dc="http://purl.org/dc/elements/1.1/"
   xmlns:cc="http://creativecommons.org/ns#"
   xmlns:rdf="http://www.w3.org/1999/02/22-rdf-syntax-ns#"
   xmlns:svg="http://www.w3.org/2000/svg"
   xmlns="http://www.w3.org/2000/svg"
   xmlns:sodipodi="http://sodipodi.sourceforge.net/DTD/sodipodi-0.dtd"
   xmlns:inkscape="http://www.inkscape.org/namespaces/inkscape"
   version="1.1"
   id="svg2"
   xml:space="preserve"
   width="129.15027"
   height="131.05882"
   viewBox="0 0 129.15027 131.05882"
   sodipodi:docname="Bristol City Council.svg"
   inkscape:version="0.92.1 r15371"><metadata
     id="metadata8"><rdf:RDF><cc:Work
         rdf:about=""><dc:format>image/svg+xml</dc:format><dc:type
           rdf:resource="http://purl.org/dc/dcmitype/StillImage" /><dc:title></dc:title></cc:Work></rdf:RDF></metadata><defs
     id="defs6"><clipPath
       clipPathUnits="userSpaceOnUse"
       id="clipPath18"><path
         d="M 0.275,98.308 0.529,0.004 97.398,0.254 97.143,98.559 Z"
         id="path16"
         inkscape:connector-curvature="0" /></clipPath></defs><sodipodi:namedview
     pagecolor="#ffffff"
     bordercolor="#666666"
     borderopacity="1"
     objecttolerance="10"
     gridtolerance="10"
     guidetolerance="10"
     inkscape:pageopacity="0"
     inkscape:pageshadow="2"
     inkscape:window-width="1920"
     inkscape:window-height="1017"
     id="namedview4"
     showgrid="false"
     fit-margin-top="0"
     fit-margin-left="0"
     fit-margin-right="0"
     fit-margin-bottom="0"
     inkscape:zoom="3.5913201"
     inkscape:cx="68.616012"
     inkscape:cy="46.655702"
     inkscape:window-x="-8"
     inkscape:window-y="-8"
     inkscape:window-maximized="1"
     inkscape:current-layer="g12" /><g
     id="g10"
     inkscape:groupmode="layer"
     inkscape:label="Bristol City Council"
     transform="matrix(1.3333333,0,0,-1.3333333,-0.56639872,131.24013)"><g
       id="g12"><g
         id="g14"
         clip-path="url(#clipPath18)"><g
           id="g20"
           transform="translate(17.6952,49.2512)"><path
             d="M 0,0 C -0.045,17.331 13.967,31.416 31.298,31.461 48.629,31.506 62.714,17.494 62.759,0.163 62.804,-17.168 48.792,-31.253 31.461,-31.298 14.13,-31.343 0.045,-17.331 0,0"
             style="fill:#e51636;fill-opacity:1;fill-rule:evenodd;stroke:none"
             id="path22"
             inkscape:connector-curvature="0" /></g><g
           id="g24"
           transform="translate(17.6952,49.2512)"><path
             d="M 0,0 C -0.045,17.331 13.967,31.416 31.298,31.461 48.629,31.506 62.714,17.494 62.759,0.163 62.804,-17.168 48.792,-31.253 31.461,-31.298 14.13,-31.343 0.045,-17.331 0,0 Z"
             style="fill:none;stroke:#e51636;stroke-width:0.28799999;stroke-linecap:butt;stroke-linejoin:miter;stroke-miterlimit:3.86400008;stroke-dasharray:none;stroke-opacity:1"
             id="path26"
             inkscape:connector-curvature="0" /></g><g
           id="g28"
           transform="translate(69.7704,71.5188)"><path
             d="m 0,0 c -27.053,-12.229 -14.023,-27.986 -14.023,-27.986 -19.425,2.177 -13.859,25.721 -13.859,25.721"
             style="fill:#ffffff;fill-opacity:1;fill-rule:evenodd;stroke:none"
             id="path30"
             inkscape:connector-curvature="0" /></g><g
           id="g32"
           transform="translate(69.7704,71.5188)"><path
             d="m 0,0 c -27.053,-12.229 -14.023,-27.986 -14.023,-27.986 -19.425,2.177 -13.859,25.721 -13.859,25.721 z"
             style="fill:none;stroke:#ffffff;stroke-width:0.027;stroke-linecap:butt;stroke-linejoin:miter;stroke-miterlimit:3.86400008;stroke-dasharray:none;stroke-opacity:1"
             id="path34"
             inkscape:connector-curvature="0" /></g><g
           id="g36"
           transform="translate(22.8759,43.4592)"><path
             d="m 0,0 3.131,0.008 0.04,-15.385 -3.141,3.699"
             style="fill:#ffffff;fill-opacity:1;fill-rule:evenodd;stroke:none"
             id="path38"
             inkscape:connector-curvature="0" /></g><g
           id="g40"
           transform="translate(22.8759,43.4592)"><path
             d="m 0,0 3.131,0.008 0.04,-15.385 -3.141,3.699 z"
             style="fill:none;stroke:#ffffff;stroke-width:0.027;stroke-linecap:butt;stroke-linejoin:miter;stroke-miterlimit:3.86400008;stroke-dasharray:none;stroke-opacity:1"
             id="path42"
             inkscape:connector-curvature="0" /></g><g
           id="g44"
           transform="translate(31.788,43.4827)"><path
             d="M 0,0 3.131,0.008 3.189,-22.351 0.054,-20.36"
             style="fill:#ffffff;fill-opacity:1;fill-rule:evenodd;stroke:none"
             id="path46"
             inkscape:connector-curvature="0" /></g><g
           id="g48"
           transform="translate(31.788,43.4827)"><path
             d="M 0,0 3.131,0.008 3.189,-22.351 0.054,-20.36 Z"
             style="fill:none;stroke:#ffffff;stroke-width:0.027;stroke-linecap:butt;stroke-linejoin:miter;stroke-miterlimit:3.86400008;stroke-dasharray:none;stroke-opacity:1"
             id="path50"
             inkscape:connector-curvature="0" /></g><g
           id="g52"
           transform="translate(22.2928,46.301)"><path
             d="M 0,0 4.302,0.011 4.305,-1.122 3.713,-2.276 0.581,-2.284 0.003,-1.133"
             style="fill:#ffffff;fill-opacity:1;fill-rule:evenodd;stroke:none"
             id="path54"
             inkscape:connector-curvature="0" /></g><g
           id="g56"
           transform="translate(22.2928,46.301)"><path
             d="M 0,0 4.302,0.011 4.305,-1.122 3.713,-2.276 0.581,-2.284 0.003,-1.133 Z"
             style="fill:none;stroke:#ffffff;stroke-width:0.027;stroke-linecap:butt;stroke-linejoin:miter;stroke-miterlimit:3.86400008;stroke-dasharray:none;stroke-opacity:1"
             id="path58"
             inkscape:connector-curvature="0" /></g><g
           id="g60"
           transform="translate(31.205,46.3245)"><path
             d="M 0,0 4.303,0.011 4.306,-1.122 3.713,-2.276 0.581,-2.284 0.003,-1.134"
             style="fill:#ffffff;fill-opacity:1;fill-rule:evenodd;stroke:none"
             id="path62"
             inkscape:connector-curvature="0" /></g><g
           id="g64"
           transform="translate(31.205,46.3245)"><path
             d="M 0,0 4.303,0.011 4.306,-1.122 3.713,-2.276 0.581,-2.284 0.003,-1.134 Z"
             style="fill:none;stroke:#ffffff;stroke-width:0.027;stroke-linecap:butt;stroke-linejoin:miter;stroke-miterlimit:3.86400008;stroke-dasharray:none;stroke-opacity:1"
             id="path66"
             inkscape:connector-curvature="0" /></g><g
           id="g68"
           transform="translate(24.327,46.8821)"><path
             d="M 0,0 -1.441,-0.004 -1.46,7.449 10.584,7.48 10.603,0.028 9.181,0.024 C 8.574,4.325 4.578,4.487 4.578,4.487 0.276,4.208 0,0 0,0"
             style="fill:#ffffff;fill-opacity:1;fill-rule:evenodd;stroke:none"
             id="path70"
             inkscape:connector-curvature="0" /></g><g
           id="g72"
           transform="translate(24.327,46.8821)"><path
             d="M 0,0 -1.441,-0.004 -1.46,7.449 10.584,7.48 10.603,0.028 9.181,0.024 C 8.574,4.325 4.578,4.487 4.578,4.487 0.276,4.208 0,0 0,0 Z"
             style="fill:none;stroke:#ffffff;stroke-width:0.027;stroke-linecap:butt;stroke-linejoin:miter;stroke-miterlimit:3.86400008;stroke-dasharray:none;stroke-opacity:1"
             id="path74"
             inkscape:connector-curvature="0" /></g><g
           id="g76"
           transform="translate(26.036,46.887)"><path
             d="M 0,0 -0.845,-0.002 C -0.566,3.725 2.872,3.733 2.872,3.733 6.579,3.475 6.588,0.017 6.588,0.017 L 5.743,0.015 C 5.467,2.876 2.874,2.87 2.874,2.87 -0.007,2.861 0,0 0,0"
             style="fill:#ffffff;fill-opacity:1;fill-rule:evenodd;stroke:none"
             id="path78"
             inkscape:connector-curvature="0" /></g><g
           id="g80"
           transform="translate(26.036,46.887)"><path
             d="M 0,0 -0.845,-0.002 C -0.566,3.725 2.872,3.733 2.872,3.733 6.579,3.475 6.588,0.017 6.588,0.017 L 5.743,0.015 C 5.467,2.876 2.874,2.87 2.874,2.87 -0.007,2.861 0,0 0,0 Z"
             style="fill:none;stroke:#ffffff;stroke-width:0.027;stroke-linecap:butt;stroke-linejoin:miter;stroke-miterlimit:3.86400008;stroke-dasharray:none;stroke-opacity:1"
             id="path82"
             inkscape:connector-curvature="0" /></g><g
           id="g84"
           transform="translate(22.3085,54.9065)"><path
             d="M 0,0 -0.001,0.575 13.156,0.609 13.157,0.033"
             style="fill:#ffffff;fill-opacity:1;fill-rule:evenodd;stroke:none"
             id="path86"
             inkscape:connector-curvature="0" /></g><g
           id="g88"
           transform="translate(22.3085,54.9065)"><path
             d="M 0,0 -0.001,0.575 13.156,0.609 13.157,0.033 Z"
             style="fill:none;stroke:#ffffff;stroke-width:0.027;stroke-linecap:butt;stroke-linejoin:miter;stroke-miterlimit:3.86400008;stroke-dasharray:none;stroke-opacity:1"
             id="path90"
             inkscape:connector-curvature="0" /></g><g
           id="g92"
           transform="translate(22.3055,56.0588)"><path
             d="M 0,0 -0.015,5.436 2.731,5.442 2.738,2.869 5.14,2.875 5.134,5.449 8.015,5.456 8.021,2.883 10.422,2.889 10.416,5.463 13.162,5.47 13.177,0.034"
             style="fill:#ffffff;fill-opacity:1;fill-rule:evenodd;stroke:none"
             id="path94"
             inkscape:connector-curvature="0" /></g><g
           id="g96"
           transform="translate(22.3055,56.0588)"><path
             d="M 0,0 -0.015,5.436 2.731,5.442 2.738,2.869 5.14,2.875 5.134,5.449 8.015,5.456 8.021,2.883 10.422,2.889 10.416,5.463 13.162,5.47 13.177,0.034 Z"
             style="fill:none;stroke:#ffffff;stroke-width:0.027;stroke-linecap:butt;stroke-linejoin:miter;stroke-miterlimit:3.86400008;stroke-dasharray:none;stroke-opacity:1"
             id="path98"
             inkscape:connector-curvature="0" /></g><g
           id="g100"
           transform="translate(21.6288,57.5745)"><path
             d="m 0,0 -2.65,-0.008 -0.797,-3.535 3.936,0.01 -0.001,0.499 -0.48,-0.001"
             style="fill:#ffffff;fill-opacity:1;fill-rule:evenodd;stroke:none"
             id="path102"
             inkscape:connector-curvature="0" /></g><g
           id="g104"
           transform="translate(21.6288,57.5745)"><path
             d="m 0,0 -2.65,-0.008 -0.797,-3.535 3.936,0.01 -0.001,0.499 -0.48,-0.001 z"
             style="fill:none;stroke:#ffffff;stroke-width:0.027;stroke-linecap:butt;stroke-linejoin:miter;stroke-miterlimit:3.86400008;stroke-dasharray:none;stroke-opacity:1"
             id="path106"
             inkscape:connector-curvature="0" /></g><g
           id="g108"
           transform="translate(22.119,53.5227)"><path
             d="m 0,0 -4.148,-0.011 -0.281,-2.92 4.438,0.011"
             style="fill:#ffffff;fill-opacity:1;fill-rule:evenodd;stroke:none"
             id="path110"
             inkscape:connector-curvature="0" /></g><g
           id="g112"
           transform="translate(22.119,53.5227)"><path
             d="m 0,0 -4.148,-0.011 -0.281,-2.92 4.438,0.011 z"
             style="fill:none;stroke:#ffffff;stroke-width:0.027;stroke-linecap:butt;stroke-linejoin:miter;stroke-miterlimit:3.86400008;stroke-dasharray:none;stroke-opacity:1"
             id="path114"
             inkscape:connector-curvature="0" /></g><path
           d="m 17.788,49.267 h 4.343 v 0.818 h -4.343 z"
           style="fill:#ffffff;fill-opacity:1;fill-rule:nonzero;stroke:#ffffff;stroke-width:0.027;stroke-linecap:butt;stroke-linejoin:miter;stroke-miterlimit:3.86400008;stroke-dasharray:none;stroke-opacity:1"
           id="path116"
           inkscape:connector-curvature="0" /><path
           d="m 17.58,48.401 h 4.553 v 0.377 H 17.58 Z"
           style="fill:#ffffff;fill-opacity:1;fill-rule:nonzero;stroke:#ffffff;stroke-width:0.027;stroke-linecap:butt;stroke-linejoin:miter;stroke-miterlimit:3.86400008;stroke-dasharray:none;stroke-opacity:1"
           id="path118"
           inkscape:connector-curvature="0" /><g
           id="g120"
           transform="translate(22.1346,47.8557)"><path
             d="m 0,0 -4.342,-0.011 0.2,-2.823 3.707,0.01 -0.135,0.384 -0.003,1.479 0.576,0.001"
             style="fill:#ffffff;fill-opacity:1;fill-rule:evenodd;stroke:none"
             id="path122"
             inkscape:connector-curvature="0" /></g><g
           id="g124"
           transform="translate(22.1346,47.8557)"><path
             d="m 0,0 -4.342,-0.011 0.2,-2.823 3.707,0.01 -0.135,0.384 -0.003,1.479 0.576,0.001 z"
             style="fill:none;stroke:#ffffff;stroke-width:0.027;stroke-linecap:butt;stroke-linejoin:miter;stroke-miterlimit:3.86400008;stroke-dasharray:none;stroke-opacity:1"
             id="path126"
             inkscape:connector-curvature="0" /></g><g
           id="g128"
           transform="translate(17.994,44.4075)"><path
             d="M 0,0 0.623,-3.227 4.272,-3.216 4.266,-0.584 3.995,0.01"
             style="fill:#ffffff;fill-opacity:1;fill-rule:evenodd;stroke:none"
             id="path130"
             inkscape:connector-curvature="0" /></g><g
           id="g132"
           transform="translate(17.994,44.4075)"><path
             d="M 0,0 0.623,-3.227 4.272,-3.216 4.266,-0.584 3.995,0.01 Z"
             style="fill:none;stroke:#ffffff;stroke-width:0.027;stroke-linecap:butt;stroke-linejoin:miter;stroke-miterlimit:3.86400008;stroke-dasharray:none;stroke-opacity:1"
             id="path134"
             inkscape:connector-curvature="0" /></g><g
           id="g136"
           transform="translate(22.2684,40.5774)"><path
             d="m 0,0 -3.246,-0.009 1.026,-3.032 2.228,0.006"
             style="fill:#ffffff;fill-opacity:1;fill-rule:evenodd;stroke:none"
             id="path138"
             inkscape:connector-curvature="0" /></g><g
           id="g140"
           transform="translate(22.2684,40.5774)"><path
             d="m 0,0 -3.246,-0.009 1.026,-3.032 2.228,0.006 z"
             style="fill:none;stroke:#ffffff;stroke-width:0.027;stroke-linecap:butt;stroke-linejoin:miter;stroke-miterlimit:3.86400008;stroke-dasharray:none;stroke-opacity:1"
             id="path142"
             inkscape:connector-curvature="0" /></g><g
           id="g144"
           transform="translate(22.2772,36.9465)"><path
             d="m 0,0 -2.228,-0.006 2.24,-4.239"
             style="fill:#ffffff;fill-opacity:1;fill-rule:evenodd;stroke:none"
             id="path146"
             inkscape:connector-curvature="0" /></g><g
           id="g148"
           transform="translate(22.2772,36.9465)"><path
             d="m 0,0 -2.228,-0.006 2.24,-4.239 z"
             style="fill:none;stroke:#ffffff;stroke-width:0.027;stroke-linecap:butt;stroke-linejoin:miter;stroke-miterlimit:3.86400008;stroke-dasharray:none;stroke-opacity:1"
             id="path150"
             inkscape:connector-curvature="0" /></g><g
           id="g152"
           transform="translate(35.7509,33.6965)"><path
             d="m 0,0 c 2.879,0.776 4.416,0.78 4.416,0.78 2.9,0.007 5.497,-1.369 5.939,-1.521 1.078,-0.459 2.154,-0.59 2.154,-0.59 1.363,-0.169 2.88,0.603 2.88,0.603 2.896,1.39 3.972,1.24 3.972,1.24 1.517,0.003 2.133,-0.303 2.133,-0.303 l 3.192,-1.22 c 2.134,-0.84 4.128,0.164 4.128,0.164 2.149,0.889 3.494,1.238 3.494,1.238 2.285,0.314 2.9,-0.3 3.208,-0.299 3.691,-1.296 4.421,-1.063 4.421,-1.063 l -1.512,-2.444 c -1.479,0.419 -2.903,0.915 -2.903,0.915 -1.671,0.667 -3.208,0.298 -3.208,0.298 0.307,0.155 -2.091,-0.619 -3.474,-1.237 -2.436,-1.102 -4.436,-0.032 -4.379,-0.07 -0.057,0.038 -2.961,1.126 -2.961,1.126 -0.614,0.305 -2.133,0.301 -2.133,0.301 -1.228,0.151 -3.972,-1.239 -3.972,-1.239 -2.129,-0.908 -2.879,-0.603 -2.879,-0.603 0,0 -1.077,0.131 -2.154,0.59 -3.192,1.528 -5.939,1.521 -5.939,1.521 -1.536,-0.004 -4.416,-0.78 -4.416,-0.78"
             style="fill:#ffffff;fill-opacity:1;fill-rule:evenodd;stroke:none"
             id="path154"
             inkscape:connector-curvature="0" /></g><g
           id="g156"
           transform="translate(35.7509,33.6965)"><path
             d="m 0,0 c 2.879,0.776 4.416,0.78 4.416,0.78 2.9,0.007 5.497,-1.369 5.939,-1.521 1.078,-0.459 2.154,-0.59 2.154,-0.59 1.363,-0.169 2.88,0.603 2.88,0.603 2.896,1.39 3.972,1.24 3.972,1.24 1.517,0.003 2.133,-0.303 2.133,-0.303 l 3.192,-1.22 c 2.134,-0.84 4.128,0.164 4.128,0.164 2.149,0.889 3.494,1.238 3.494,1.238 2.285,0.314 2.9,-0.3 3.208,-0.299 3.691,-1.296 4.421,-1.063 4.421,-1.063 l -1.512,-2.444 c -1.479,0.419 -2.903,0.915 -2.903,0.915 -1.671,0.667 -3.208,0.298 -3.208,0.298 0.307,0.155 -2.091,-0.619 -3.474,-1.237 -2.436,-1.102 -4.436,-0.032 -4.379,-0.07 -0.057,0.038 -2.961,1.126 -2.961,1.126 -0.614,0.305 -2.133,0.301 -2.133,0.301 -1.228,0.151 -3.972,-1.239 -3.972,-1.239 -2.129,-0.908 -2.879,-0.603 -2.879,-0.603 0,0 -1.077,0.131 -2.154,0.59 -3.192,1.528 -5.939,1.521 -5.939,1.521 -1.536,-0.004 -4.416,-0.78 -4.416,-0.78 z"
             style="fill:none;stroke:#ffffff;stroke-width:0.027;stroke-linecap:butt;stroke-linejoin:miter;stroke-miterlimit:3.86400008;stroke-dasharray:none;stroke-opacity:1"
             id="path158"
             inkscape:connector-curvature="0" /></g><g
           id="g160"
           transform="translate(35.7626,29.2795)"><path
             d="m 0,0 c 2.188,0.601 4.435,0.779 4.435,0.779 3.478,-0.221 5.921,-1.559 5.921,-1.559 0.923,-0.364 2.152,-0.59 2.152,-0.59 1.518,-0.13 2.88,0.602 2.88,0.602 2.532,1.294 3.973,1.28 3.973,1.28 1.613,-0.035 2.133,-0.322 2.133,-0.322 l 3.191,-1.221 c 2.019,-0.801 4.128,0.183 4.128,0.183 2.707,1.103 3.494,1.239 3.494,1.239 1.766,0.369 3.209,-0.299 3.209,-0.299 l 1.672,-0.554 -2.145,-2.156 c -1.48,0.534 -2.728,0.108 -2.728,0.108 -1.517,-0.407 -3.493,-1.238 -3.493,-1.238 -2.283,-1.004 -4.129,-0.164 -4.129,-0.164 l -3.192,1.221 c -0.769,0.304 -2.21,0.301 -2.21,0.301 -1.613,-0.061 -3.896,-1.24 -3.896,-1.24 -1.726,-0.849 -2.879,-0.621 -2.879,-0.621 -0.923,0.073 -2.153,0.608 -2.153,0.608 -3.596,1.585 -5.939,1.522 -5.939,1.522 -2.478,-0.198 -4.416,-0.78 -4.416,-0.78"
             style="fill:#ffffff;fill-opacity:1;fill-rule:evenodd;stroke:none"
             id="path162"
             inkscape:connector-curvature="0" /></g><g
           id="g164"
           transform="translate(35.7626,29.2795)"><path
             d="m 0,0 c 2.188,0.601 4.435,0.779 4.435,0.779 3.478,-0.221 5.921,-1.559 5.921,-1.559 0.923,-0.364 2.152,-0.59 2.152,-0.59 1.518,-0.13 2.88,0.602 2.88,0.602 2.532,1.294 3.973,1.28 3.973,1.28 1.613,-0.035 2.133,-0.322 2.133,-0.322 l 3.191,-1.221 c 2.019,-0.801 4.128,0.183 4.128,0.183 2.707,1.103 3.494,1.239 3.494,1.239 1.766,0.369 3.209,-0.299 3.209,-0.299 l 1.672,-0.554 -2.145,-2.156 c -1.48,0.534 -2.728,0.108 -2.728,0.108 -1.517,-0.407 -3.493,-1.238 -3.493,-1.238 -2.283,-1.004 -4.129,-0.164 -4.129,-0.164 l -3.192,1.221 c -0.769,0.304 -2.21,0.301 -2.21,0.301 -1.613,-0.061 -3.896,-1.24 -3.896,-1.24 -1.726,-0.849 -2.879,-0.621 -2.879,-0.621 -0.923,0.073 -2.153,0.608 -2.153,0.608 -3.596,1.585 -5.939,1.522 -5.939,1.522 -2.478,-0.198 -4.416,-0.78 -4.416,-0.78 z"
             style="fill:none;stroke:#ffffff;stroke-width:0.027;stroke-linecap:butt;stroke-linejoin:miter;stroke-miterlimit:3.86400008;stroke-dasharray:none;stroke-opacity:1"
             id="path166"
             inkscape:connector-curvature="0" /></g><g
           id="g168"
           transform="translate(35.7743,24.6887)"><path
             d="m 0,0 c 3.167,0.813 4.416,0.78 4.416,0.78 3.074,-0.09 5.574,-1.407 5.939,-1.522 0.866,-0.382 1.846,-0.552 2.153,-0.59 1.461,-0.207 2.88,0.623 2.88,0.623 3.09,1.429 3.973,1.22 3.973,1.22 1.306,0.042 2.133,-0.302 2.133,-0.302 l 3.192,-1.202 c 2.076,-0.82 4.128,0.164 4.128,0.164 2.764,1.045 2.879,1.102 3.494,1.22 0.556,0.135 1.363,0.214 1.363,0.214 0,0 -3.797,-2.737 -7.345,-4.647 -0.173,-0.001 -0.461,-0.079 -1.634,0.303 0,-0.019 -3.191,1.22 -3.191,1.22 -0.962,0.325 -2.133,0.303 -2.133,0.303 -1.441,0.015 -3.972,-1.24 -3.972,-1.24 0,0 -1.305,-0.773 -2.881,-0.643 -0.192,0.059 -0.614,0.058 -2.153,0.611 C 7.19,-1.979 4.423,-1.967 4.423,-1.967 2.811,-1.991 0.007,-2.729 0.007,-2.729"
             style="fill:#ffffff;fill-opacity:1;fill-rule:evenodd;stroke:none"
             id="path170"
             inkscape:connector-curvature="0" /></g><g
           id="g172"
           transform="translate(35.7743,24.6887)"><path
             d="m 0,0 c 3.167,0.813 4.416,0.78 4.416,0.78 3.074,-0.09 5.574,-1.407 5.939,-1.522 0.866,-0.382 1.846,-0.552 2.153,-0.59 1.461,-0.207 2.88,0.623 2.88,0.623 3.09,1.429 3.973,1.22 3.973,1.22 1.306,0.042 2.133,-0.302 2.133,-0.302 l 3.192,-1.202 c 2.076,-0.82 4.128,0.164 4.128,0.164 2.764,1.045 2.879,1.102 3.494,1.22 0.556,0.135 1.363,0.214 1.363,0.214 0,0 -3.797,-2.737 -7.345,-4.647 -0.173,-0.001 -0.461,-0.079 -1.634,0.303 0,-0.019 -3.191,1.22 -3.191,1.22 -0.962,0.325 -2.133,0.303 -2.133,0.303 -1.441,0.015 -3.972,-1.24 -3.972,-1.24 0,0 -1.305,-0.773 -2.881,-0.643 -0.192,0.059 -0.614,0.058 -2.153,0.611 C 7.19,-1.979 4.423,-1.967 4.423,-1.967 2.811,-1.991 0.007,-2.729 0.007,-2.729 Z"
             style="fill:none;stroke:#ffffff;stroke-width:0.027;stroke-linecap:butt;stroke-linejoin:miter;stroke-miterlimit:3.86400008;stroke-dasharray:none;stroke-opacity:1"
             id="path174"
             inkscape:connector-curvature="0" /></g><g
           id="g176"
           transform="translate(36.5731,20.4836)"><path
             d="m 0,0 c 2.073,0.505 3.629,0.567 3.629,0.567 2.958,-0.05 5.517,-1.388 5.938,-1.503 1.289,-0.552 2.154,-0.609 2.154,-0.609 1.518,-0.187 2.88,0.622 2.88,0.622 2.954,1.41 3.877,1.163 3.973,1.221 1.421,0.003 2.133,-0.302 2.133,-0.302 l 2.115,-0.934 C 10.616,-5.082 0,0 0,0"
             style="fill:#ffffff;fill-opacity:1;fill-rule:evenodd;stroke:none"
             id="path178"
             inkscape:connector-curvature="0" /></g><g
           id="g180"
           transform="translate(36.5731,20.4836)"><path
             d="m 0,0 c 2.073,0.505 3.629,0.567 3.629,0.567 2.958,-0.05 5.517,-1.388 5.938,-1.503 1.289,-0.552 2.154,-0.609 2.154,-0.609 1.518,-0.187 2.88,0.622 2.88,0.622 2.954,1.41 3.877,1.163 3.973,1.221 1.421,0.003 2.133,-0.302 2.133,-0.302 l 2.115,-0.934 C 10.616,-5.082 0,0 0,0 Z"
             style="fill:none;stroke:#ffffff;stroke-width:0.027;stroke-linecap:butt;stroke-linejoin:miter;stroke-miterlimit:3.86400008;stroke-dasharray:none;stroke-opacity:1"
             id="path182"
             inkscape:connector-curvature="0" /></g><g
           id="g184"
           transform="translate(55.9813,78.6165)"><path
             d="M 0,0 0.482,0.041 0.741,-7.703 -0.141,-7.705"
             style="fill:#ffffff;fill-opacity:1;fill-rule:evenodd;stroke:none"
             id="path186"
             inkscape:connector-curvature="0" /></g><g
           id="g188"
           transform="translate(56.952,61.5725)"><path
             d="m 0,0 c 0.345,-6.635 0.498,-14.325 0.452,-20.125 -1.192,0.016 -2.166,0.146 -2.166,0.146 0,-0.02 0.047,1.289 0.047,1.289 l 1.332,-0.102 -0.001,0.384 -1.351,1.959 0.344,14.797"
             style="fill:#ffffff;fill-opacity:1;fill-rule:evenodd;stroke:none"
             id="path190"
             inkscape:connector-curvature="0" /></g><g
           id="g192"
           transform="translate(56.952,61.5725)"><path
             d="m 0,0 c 0.345,-6.635 0.498,-14.325 0.452,-20.125 -1.192,0.016 -2.166,0.146 -2.166,0.146 0,-0.02 0.047,1.289 0.047,1.289 l 1.332,-0.102 -0.001,0.384 -1.351,1.959 0.344,14.797 z"
             style="fill:none;stroke:#ffffff;stroke-width:0.13699999;stroke-linecap:butt;stroke-linejoin:miter;stroke-miterlimit:3.86400008;stroke-dasharray:none;stroke-opacity:1"
             id="path194"
             inkscape:connector-curvature="0" /></g><g
           id="g196"
           transform="translate(37.868,54.2161)"><path
             d="m 0,0 c 0.031,-11.928 4.697,-18.792 4.697,-18.792 l -0.999,0.189 c -5.495,8.073 -4.908,18.6 -4.908,18.6"
             style="fill:#ffffff;fill-opacity:1;fill-rule:evenodd;stroke:none"
             id="path198"
             inkscape:connector-curvature="0" /></g><g
           id="g200"
           transform="translate(37.868,54.2161)"><path
             d="m 0,0 c 0.031,-11.928 4.697,-18.792 4.697,-18.792 l -0.999,0.189 c -5.495,8.073 -4.908,18.6 -4.908,18.6 z"
             style="fill:none;stroke:#ffffff;stroke-width:0.13699999;stroke-linecap:butt;stroke-linejoin:miter;stroke-miterlimit:3.86400008;stroke-dasharray:none;stroke-opacity:1"
             id="path202"
             inkscape:connector-curvature="0" /></g><g
           id="g204"
           transform="translate(77.8944,55.5305)"><path
             d="m 0,0 1.229,0.022 c 0.223,-11.754 -7.437,-20.668 -7.437,-20.668 l -1.057,0.169 C -0.604,-11.565 0,0 0,0"
             style="fill:#ffffff;fill-opacity:1;fill-rule:evenodd;stroke:none"
             id="path206"
             inkscape:connector-curvature="0" /></g><g
           id="g208"
           transform="translate(77.8944,55.5305)"><path
             d="m 0,0 1.229,0.022 c 0.223,-11.754 -7.437,-20.668 -7.437,-20.668 l -1.057,0.169 C -0.604,-11.565 0,0 0,0 Z"
             style="fill:none;stroke:#ffffff;stroke-width:0.13699999;stroke-linecap:butt;stroke-linejoin:miter;stroke-miterlimit:3.86400008;stroke-dasharray:none;stroke-opacity:1"
             id="path210"
             inkscape:connector-curvature="0" /></g><g
           id="g212"
           transform="translate(39.37,45.4036)"><path
             d="M 0,0 C 21.868,-10.872 36.071,0.824 36.071,0.824 35.461,-0.829 34.659,-2.638 34.659,-2.638 17.702,-11.805 0.814,-2.726 0.814,-2.726"
             style="fill:#ffffff;fill-opacity:1;fill-rule:evenodd;stroke:none"
             id="path214"
             inkscape:connector-curvature="0" /></g><g
           id="g216"
           transform="translate(39.37,45.4036)"><path
             d="M 0,0 C 21.868,-10.872 36.071,0.824 36.071,0.824 35.461,-0.829 34.659,-2.638 34.659,-2.638 17.702,-11.805 0.814,-2.726 0.814,-2.726 Z"
             style="fill:none;stroke:#ffffff;stroke-width:0.13699999;stroke-linecap:butt;stroke-linejoin:miter;stroke-miterlimit:3.86400008;stroke-dasharray:none;stroke-opacity:1"
             id="path218"
             inkscape:connector-curvature="0" /></g><g
           id="g220"
           transform="translate(40.5907,41.5276)"><path
             d="M 0,0 C 20.65,-8.494 33.229,0.259 33.229,0.259 L 31.834,-2.28 C 16.026,-10.273 0.832,-2.188 0.832,-2.188"
             style="fill:#ffffff;fill-opacity:1;fill-rule:evenodd;stroke:none"
             id="path222"
             inkscape:connector-curvature="0" /></g><g
           id="g224"
           transform="translate(40.5907,41.5276)"><path
             d="M 0,0 C 20.65,-8.494 33.229,0.259 33.229,0.259 L 31.834,-2.28 C 16.026,-10.273 0.832,-2.188 0.832,-2.188 Z"
             style="fill:none;stroke:#ffffff;stroke-width:0.13699999;stroke-linecap:butt;stroke-linejoin:miter;stroke-miterlimit:3.86400008;stroke-dasharray:none;stroke-opacity:1"
             id="path226"
             inkscape:connector-curvature="0" /></g><g
           id="g228"
           transform="translate(46.1044,33.8772)"><path
             d="M 0,0 C 1.346,-0.553 2.152,-0.609 2.152,-0.609 2.749,-0.722 3.67,-0.489 3.67,-0.489 -0.848,0.613 -3.039,1.625 -3.039,1.625 -2.981,1.26 -2.865,1.03 -2.865,1.03 -2,0.84 0,0 0,0"
             style="fill:#ffffff;fill-opacity:1;fill-rule:evenodd;stroke:none"
             id="path230"
             inkscape:connector-curvature="0" /></g><g
           id="g232"
           transform="translate(46.1044,33.8772)"><path
             d="M 0,0 C 1.346,-0.553 2.152,-0.609 2.152,-0.609 2.749,-0.722 3.67,-0.489 3.67,-0.489 -0.848,0.613 -3.039,1.625 -3.039,1.625 -2.981,1.26 -2.865,1.03 -2.865,1.03 -2,0.84 0,0 0,0 Z"
             style="fill:none;stroke:#ffffff;stroke-width:0.13699999;stroke-linecap:butt;stroke-linejoin:miter;stroke-miterlimit:3.86400008;stroke-dasharray:none;stroke-opacity:1"
             id="path234"
             inkscape:connector-curvature="0" /></g><g
           id="g236"
           transform="translate(42.8905,36.2317)"><path
             d="m 0,0 c 3.057,-1.318 8.054,-2.477 8.054,-2.477 0.307,0.136 0.441,0.194 0.441,0.194 1.267,0.618 2.494,0.986 2.667,1.044 -7.493,1.018 -12.263,3.292 -12.263,3.292"
             style="fill:#ffffff;fill-opacity:1;fill-rule:evenodd;stroke:none"
             id="path238"
             inkscape:connector-curvature="0" /></g><g
           id="g240"
           transform="translate(42.8905,36.2317)"><path
             d="m 0,0 c 3.057,-1.318 8.054,-2.477 8.054,-2.477 0.307,0.136 0.441,0.194 0.441,0.194 1.267,0.618 2.494,0.986 2.667,1.044 -7.493,1.018 -12.263,3.292 -12.263,3.292 z"
             style="fill:none;stroke:#ffffff;stroke-width:0.13699999;stroke-linecap:butt;stroke-linejoin:miter;stroke-miterlimit:3.86400008;stroke-dasharray:none;stroke-opacity:1"
             id="path242"
             inkscape:connector-curvature="0" /></g><g
           id="g244"
           transform="translate(57.3964,34.7522)"><path
             d="m 0,0 c 0.902,-0.306 3.038,-1.146 3.038,-1.146 2.325,-0.838 3.726,0.125 4.129,0.165 1.611,0.638 3.378,1.257 3.493,1.239 0.863,0.137 1.709,0.061 1.709,0.061 1.168,1.675 2.048,3.079 2.048,3.079 C 10.292,1.429 8.486,1.154 7.162,0.806 4.935,0.319 0,0 0,0"
             style="fill:#ffffff;fill-opacity:1;fill-rule:evenodd;stroke:none"
             id="path246"
             inkscape:connector-curvature="0" /></g><g
           id="g248"
           transform="translate(57.3964,34.7522)"><path
             d="m 0,0 c 0.902,-0.306 3.038,-1.146 3.038,-1.146 2.325,-0.838 3.726,0.125 4.129,0.165 1.611,0.638 3.378,1.257 3.493,1.239 0.863,0.137 1.709,0.061 1.709,0.061 1.168,1.675 2.048,3.079 2.048,3.079 C 10.292,1.429 8.486,1.154 7.162,0.806 4.935,0.319 0,0 0,0 Z"
             style="fill:none;stroke:#ffffff;stroke-width:0.13699999;stroke-linecap:butt;stroke-linejoin:miter;stroke-miterlimit:3.86400008;stroke-dasharray:none;stroke-opacity:1"
             id="path250"
             inkscape:connector-curvature="0" /></g><g
           id="g252"
           transform="translate(35.7821,29.2795)"><path
             d="m 0,0 c 2.188,0.601 4.415,0.779 4.415,0.779 3.478,-0.221 5.921,-1.559 5.921,-1.559 0.923,-0.364 2.153,-0.59 2.153,-0.59 1.518,-0.13 2.879,0.602 2.879,0.602 2.533,1.294 3.973,1.28 3.973,1.28 1.614,-0.035 2.133,-0.322 2.133,-0.322 l 3.192,-1.221 c 2.018,-0.801 4.129,0.183 4.129,0.183 2.706,1.103 3.493,1.239 3.493,1.239 1.766,0.369 3.208,-0.299 3.208,-0.299 l 1.672,-0.554 1.207,1.464 h 0.019 C 36.915,1.421 35.491,1.917 35.491,1.917 33.819,2.584 32.283,2.215 32.283,2.215 32.59,2.369 30.191,1.596 28.809,0.978 26.373,-0.124 24.373,0.946 24.43,0.908 24.373,0.946 21.469,2.033 21.469,2.033 20.854,2.34 19.336,2.336 19.336,2.336 18.107,2.486 15.363,1.097 15.363,1.097 13.234,0.187 12.484,0.493 12.484,0.493 c 0,0 -1.076,0.132 -2.153,0.59 C 7.139,2.611 4.392,2.604 4.392,2.604 2.854,2.6 -0.024,1.824 -0.024,1.824"
             style="fill:#424a52;fill-opacity:1;fill-rule:evenodd;stroke:none"
             id="path254"
             inkscape:connector-curvature="0" /></g><g
           id="g256"
           transform="translate(35.7821,29.2795)"><path
             d="m 0,0 c 2.188,0.601 4.415,0.779 4.415,0.779 3.478,-0.221 5.921,-1.559 5.921,-1.559 0.923,-0.364 2.153,-0.59 2.153,-0.59 1.518,-0.13 2.879,0.602 2.879,0.602 2.533,1.294 3.973,1.28 3.973,1.28 1.614,-0.035 2.133,-0.322 2.133,-0.322 l 3.192,-1.221 c 2.018,-0.801 4.129,0.183 4.129,0.183 2.706,1.103 3.493,1.239 3.493,1.239 1.766,0.369 3.208,-0.299 3.208,-0.299 l 1.672,-0.554 1.207,1.464 h 0.019 C 36.915,1.421 35.491,1.917 35.491,1.917 33.819,2.584 32.283,2.215 32.283,2.215 32.59,2.369 30.191,1.596 28.809,0.978 26.373,-0.124 24.373,0.946 24.43,0.908 24.373,0.946 21.469,2.033 21.469,2.033 20.854,2.34 19.336,2.336 19.336,2.336 18.107,2.486 15.363,1.097 15.363,1.097 13.234,0.187 12.484,0.493 12.484,0.493 c 0,0 -1.076,0.132 -2.153,0.59 C 7.139,2.611 4.392,2.604 4.392,2.604 2.854,2.6 -0.024,1.824 -0.024,1.824 Z"
             style="fill:none;stroke:#424a52;stroke-width:0.027;stroke-linecap:butt;stroke-linejoin:miter;stroke-miterlimit:3.86400008;stroke-dasharray:none;stroke-opacity:1"
             id="path258"
             inkscape:connector-curvature="0" /></g><g
           id="g260"
           transform="translate(70.8055,26.6809)"><path
             d="m 0,0 v -0.019 c -1.48,0.534 -2.729,0.108 -2.729,0.108 -1.515,-0.407 -3.493,-1.238 -3.493,-1.238 -2.283,-1.005 -4.129,-0.165 -4.129,-0.165 l -3.19,1.221 c -0.77,0.306 -2.21,0.302 -2.21,0.302 -1.614,-0.062 -3.896,-1.239 -3.896,-1.239 -1.727,-0.85 -2.88,-0.623 -2.88,-0.623 -0.922,0.074 -2.154,0.61 -2.154,0.61 -3.595,1.584 -5.938,1.521 -5.938,1.521 -2.478,-0.199 -4.398,-0.761 -4.398,-0.761 l 0.005,-1.69 c 3.167,0.814 4.398,0.76 4.398,0.76 3.073,-0.088 5.573,-1.406 5.938,-1.521 0.865,-0.382 1.846,-0.553 2.154,-0.59 1.46,-0.208 2.878,0.622 2.878,0.622 3.089,1.43 3.973,1.221 3.973,1.221 1.307,0.042 2.134,-0.302 2.134,-0.302 l 3.191,-1.202 c 2.076,-0.82 4.129,0.164 4.129,0.164 2.764,1.044 2.879,1.103 3.492,1.219 0.558,0.136 1.365,0.215 1.365,0.215"
             style="fill:#424a52;fill-opacity:1;fill-rule:nonzero;stroke:none"
             id="path262"
             inkscape:connector-curvature="0" /></g><g
           id="g264"
           transform="translate(70.8055,26.6809)"><path
             d="m 0,0 v -0.019 c -1.48,0.534 -2.729,0.108 -2.729,0.108 -1.515,-0.407 -3.493,-1.238 -3.493,-1.238 -2.283,-1.005 -4.129,-0.165 -4.129,-0.165 l -3.19,1.221 c -0.77,0.306 -2.21,0.302 -2.21,0.302 -1.614,-0.062 -3.896,-1.239 -3.896,-1.239 -1.727,-0.85 -2.88,-0.623 -2.88,-0.623 -0.922,0.074 -2.154,0.61 -2.154,0.61 -3.595,1.584 -5.938,1.521 -5.938,1.521 -2.478,-0.199 -4.398,-0.761 -4.398,-0.761 l 0.005,-1.69 c 3.167,0.814 4.398,0.76 4.398,0.76 3.073,-0.088 5.573,-1.406 5.938,-1.521 0.865,-0.382 1.846,-0.553 2.154,-0.59 1.46,-0.208 2.878,0.622 2.878,0.622 3.089,1.43 3.973,1.221 3.973,1.221 1.307,0.042 2.134,-0.302 2.134,-0.302 l 3.191,-1.202 c 2.076,-0.82 4.129,0.164 4.129,0.164 2.764,1.044 2.879,1.103 3.492,1.219 0.558,0.136 1.365,0.215 1.365,0.215 z"
             style="fill:none;stroke:#424a52;stroke-width:0.027;stroke-linecap:butt;stroke-linejoin:miter;stroke-miterlimit:3.86400008;stroke-dasharray:none;stroke-opacity:1"
             id="path266"
             inkscape:connector-curvature="0" /></g><g
           id="g268"
           transform="translate(62.0809,20.6457)"><path
             d="m 0,0 h 0.02 c -0.173,0 -0.461,-0.078 -1.634,0.304 0,-0.02 -3.192,1.22 -3.192,1.22 -0.961,0.325 -2.133,0.302 -2.133,0.302 -1.44,0.017 -3.972,-1.239 -3.972,-1.239 0,0 -1.304,-0.772 -2.88,-0.642 -0.192,0.057 -0.615,0.056 -2.153,0.61 -3.173,1.508 -5.939,1.52 -5.939,1.52 -1.614,-0.022 -4.416,-0.761 -4.416,-0.761 l 0.019,0.02 0.003,-1.152 0.769,-0.344 c 2.072,0.505 3.629,0.566 3.629,0.566 2.958,-0.05 5.517,-1.387 5.939,-1.502 1.289,-0.552 2.153,-0.609 2.153,-0.609 1.517,-0.188 2.88,0.622 2.88,0.622 2.954,1.41 3.877,1.163 3.972,1.221 1.422,0.004 2.134,-0.302 2.134,-0.302 l 2.114,-0.936"
             style="fill:#424a52;fill-opacity:1;fill-rule:nonzero;stroke:none"
             id="path270"
             inkscape:connector-curvature="0" /></g><g
           id="g272"
           transform="translate(62.0809,20.6457)"><path
             d="m 0,0 h 0.02 c -0.173,0 -0.461,-0.078 -1.634,0.304 0,-0.02 -3.192,1.22 -3.192,1.22 -0.961,0.325 -2.133,0.302 -2.133,0.302 -1.44,0.017 -3.972,-1.239 -3.972,-1.239 0,0 -1.304,-0.772 -2.88,-0.642 -0.192,0.057 -0.615,0.056 -2.153,0.61 -3.173,1.508 -5.939,1.52 -5.939,1.52 -1.614,-0.022 -4.416,-0.761 -4.416,-0.761 l 0.019,0.02 0.003,-1.152 0.769,-0.344 c 2.072,0.505 3.629,0.566 3.629,0.566 2.958,-0.05 5.517,-1.387 5.939,-1.502 1.289,-0.552 2.153,-0.609 2.153,-0.609 1.517,-0.188 2.88,0.622 2.88,0.622 2.954,1.41 3.877,1.163 3.972,1.221 1.422,0.004 2.134,-0.302 2.134,-0.302 l 2.114,-0.936 z"
             style="fill:none;stroke:#424a52;stroke-width:0.027;stroke-linecap:butt;stroke-linejoin:miter;stroke-miterlimit:3.86400008;stroke-dasharray:none;stroke-opacity:1"
             id="path274"
             inkscape:connector-curvature="0" /></g><g
           id="g276"
           transform="translate(35.7684,34.6575)"><path
             d="m 0,0 0.002,-0.941 c 2.88,0.776 4.396,0.759 4.396,0.759 2.901,0.009 5.498,-1.367 5.94,-1.52 1.077,-0.458 2.152,-0.59 2.152,-0.59 1.364,-0.169 2.88,0.603 2.88,0.603 2.898,1.391 3.974,1.24 3.974,1.24 1.516,0.004 2.133,-0.302 2.133,-0.302 l 3.191,-1.221 c 2.135,-0.841 4.129,0.163 4.129,0.163 2.149,0.891 3.493,1.24 3.493,1.24 2.284,0.313 2.9,-0.3 3.209,-0.299 3.69,-1.297 4.42,-1.065 4.42,-1.065 l 0.477,0.981 h 0.04 c 0,0 -1.248,-0.291 -4.941,1.005 -0.307,-0.001 -0.923,0.613 -3.207,0.3 0,0 -1.345,-0.35 -3.493,-1.239 0,0 -1.995,-1.005 -4.129,-0.164 l -3.192,1.221 c 0,0 -0.616,0.306 -2.133,0.302 0,0 -1.076,0.15 -3.974,-1.241 0,0 -1.514,-0.771 -2.879,-0.602 0,0 -1.075,0.132 -2.152,0.59 C 9.894,-0.627 7.297,0.749 4.396,0.741 4.396,0.741 2.879,0.775 0,0"
             style="fill:#424a52;fill-opacity:1;fill-rule:nonzero;stroke:none"
             id="path278"
             inkscape:connector-curvature="0" /></g><g
           id="g280"
           transform="translate(35.7684,34.6575)"><path
             d="m 0,0 0.002,-0.941 c 2.88,0.776 4.396,0.759 4.396,0.759 2.901,0.009 5.498,-1.367 5.94,-1.52 1.077,-0.458 2.152,-0.59 2.152,-0.59 1.364,-0.169 2.88,0.603 2.88,0.603 2.898,1.391 3.974,1.24 3.974,1.24 1.516,0.004 2.133,-0.302 2.133,-0.302 l 3.191,-1.221 c 2.135,-0.841 4.129,0.163 4.129,0.163 2.149,0.891 3.493,1.24 3.493,1.24 2.284,0.313 2.9,-0.3 3.209,-0.299 3.69,-1.297 4.42,-1.065 4.42,-1.065 l 0.477,0.981 h 0.04 c 0,0 -1.248,-0.291 -4.941,1.005 -0.307,-0.001 -0.923,0.613 -3.207,0.3 0,0 -1.345,-0.35 -3.493,-1.239 0,0 -1.995,-1.005 -4.129,-0.164 l -3.192,1.221 c 0,0 -0.616,0.306 -2.133,0.302 0,0 -1.076,0.15 -3.974,-1.241 0,0 -1.514,-0.771 -2.879,-0.602 0,0 -1.075,0.132 -2.152,0.59 C 9.894,-0.627 7.297,0.749 4.396,0.741 4.396,0.741 2.879,0.775 0,0 Z"
             style="fill:none;stroke:#424a52;stroke-width:0.027;stroke-linecap:butt;stroke-linejoin:miter;stroke-miterlimit:3.86400008;stroke-dasharray:none;stroke-opacity:1"
             id="path282"
             inkscape:connector-curvature="0" /></g><g
           id="g284"
           transform="translate(28.037,53.0891)"><path
             d="M 0,0 C -0.001,0.475 0.382,0.86 0.857,0.861 1.332,0.863 1.717,0.479 1.719,0.004 1.72,-0.47 1.336,-0.856 0.862,-0.857 0.387,-0.858 0.001,-0.476 0,0"
             style="fill:#e51636;fill-opacity:1;fill-rule:evenodd;stroke:none"
             id="path286"
             inkscape:connector-curvature="0" /></g><g
           id="g288"
           transform="translate(28.037,53.0891)"><path
             d="M 0,0 C -0.001,0.475 0.382,0.86 0.857,0.861 1.332,0.863 1.717,0.479 1.719,0.004 1.72,-0.47 1.336,-0.856 0.862,-0.857 0.387,-0.858 0.001,-0.476 0,0 Z"
             style="fill:none;stroke:#e51636;stroke-width:0.027;stroke-linecap:butt;stroke-linejoin:miter;stroke-miterlimit:3.86400008;stroke-dasharray:none;stroke-opacity:1"
             id="path290"
             inkscape:connector-curvature="0" /></g><g
           id="g292"
           transform="translate(24.8827,53.0803)"><path
             d="M 0,0 C -0.001,0.476 0.383,0.861 0.857,0.862 1.332,0.863 1.717,0.479 1.718,0.004 1.72,-0.47 1.336,-0.855 0.861,-0.856 0.387,-0.857 0.001,-0.474 0,0"
             style="fill:#e51636;fill-opacity:1;fill-rule:evenodd;stroke:none"
             id="path294"
             inkscape:connector-curvature="0" /></g><g
           id="g296"
           transform="translate(24.8827,53.0803)"><path
             d="M 0,0 C -0.001,0.476 0.383,0.861 0.857,0.862 1.332,0.863 1.717,0.479 1.718,0.004 1.72,-0.47 1.336,-0.855 0.861,-0.856 0.387,-0.857 0.001,-0.474 0,0 Z"
             style="fill:none;stroke:#e51636;stroke-width:0.027;stroke-linecap:butt;stroke-linejoin:miter;stroke-miterlimit:3.86400008;stroke-dasharray:none;stroke-opacity:1"
             id="path298"
             inkscape:connector-curvature="0" /></g><g
           id="g300"
           transform="translate(31.1913,53.0969)"><path
             d="M 0,0 C -0.001,0.476 0.383,0.861 0.856,0.862 1.332,0.863 1.718,0.479 1.719,0.004 1.72,-0.47 1.336,-0.855 0.861,-0.856 0.387,-0.857 0.001,-0.474 0,0"
             style="fill:#e51636;fill-opacity:1;fill-rule:evenodd;stroke:none"
             id="path302"
             inkscape:connector-curvature="0" /></g><g
           id="g304"
           transform="translate(31.1913,53.0969)"><path
             d="M 0,0 C -0.001,0.476 0.383,0.861 0.856,0.862 1.332,0.863 1.718,0.479 1.719,0.004 1.72,-0.47 1.336,-0.855 0.861,-0.856 0.387,-0.857 0.001,-0.474 0,0 Z"
             style="fill:none;stroke:#e51636;stroke-width:0.027;stroke-linecap:butt;stroke-linejoin:miter;stroke-miterlimit:3.86400008;stroke-dasharray:none;stroke-opacity:1"
             id="path306"
             inkscape:connector-curvature="0" /></g><g
           id="g308"
           transform="translate(17.6952,49.2512)"><path
             d="M 0,0 C -0.045,17.331 13.967,31.416 31.298,31.461 48.629,31.506 62.714,17.494 62.759,0.163 62.804,-17.168 48.792,-31.253 31.461,-31.298 14.13,-31.343 0.045,-17.331 0,0 Z"
             style="fill:none;stroke:#e51636;stroke-width:0.28799999;stroke-linecap:butt;stroke-linejoin:miter;stroke-miterlimit:3.86400008;stroke-dasharray:none;stroke-opacity:1"
             id="path310"
             inkscape:connector-curvature="0" /></g><g
           id="g312"
           transform="translate(55.3475,77.8723)"><path
             d="m 0,0 c 0,0 -12.592,4.179 -14.48,-1.871 -0.082,-0.828 -0.077,-2.898 -1.818,-1.744 -1.245,1.405 -3.037,0.815 -3.037,0.815 0,0 -3.257,-0.499 -5.149,-5.225 4.956,4.651 8.69,1.679 8.69,1.679 0,0 2.24,-1.319 2.26,1.821 0.202,6.881 13.541,1.769 13.541,1.769"
             style="fill:#ffffff;fill-opacity:1;fill-rule:evenodd;stroke:none"
             id="path314"
             inkscape:connector-curvature="0" /></g><g
           id="g316"
           transform="translate(60.1893,64.7756)"><path
             d="m 0,0 c 0.098,-0.135 0.016,-0.36 -0.184,-0.507 -0.199,-0.145 -0.44,-0.154 -0.537,-0.02 -0.098,0.133 -0.016,0.36 0.183,0.506 C -0.338,0.124 -0.097,0.133 0,0"
             style="fill:#ffffff;fill-opacity:1;fill-rule:evenodd;stroke:none"
             id="path318"
             inkscape:connector-curvature="0" /></g><g
           id="g320"
           transform="translate(60.6561,64.1028)"><path
             d="m 0,0 c 0.098,-0.134 0.016,-0.36 -0.183,-0.506 -0.2,-0.144 -0.44,-0.154 -0.538,-0.02 -0.098,0.133 -0.016,0.359 0.183,0.505 C -0.339,0.124 -0.097,0.135 0,0"
             style="fill:#ffffff;fill-opacity:1;fill-rule:nonzero;stroke:none"
             id="path322"
             inkscape:connector-curvature="0" /></g><g
           id="g324"
           transform="translate(61.1229,63.4309)"><path
             d="m 0,0 c 0.098,-0.134 0.017,-0.36 -0.184,-0.506 -0.199,-0.145 -0.439,-0.154 -0.537,-0.021 -0.098,0.133 -0.015,0.36 0.184,0.506 C -0.339,0.124 -0.098,0.134 0,0"
             style="fill:#ffffff;fill-opacity:1;fill-rule:nonzero;stroke:none"
             id="path326"
             inkscape:connector-curvature="0" /></g><g
           id="g328"
           transform="translate(61.5897,62.7581)"><path
             d="m 0,0 c 0.099,-0.134 0.017,-0.359 -0.184,-0.506 -0.199,-0.144 -0.439,-0.155 -0.537,-0.02 -0.097,0.133 -0.015,0.359 0.184,0.505 C -0.339,0.124 -0.098,0.135 0,0"
             style="fill:#ffffff;fill-opacity:1;fill-rule:nonzero;stroke:none"
             id="path330"
             inkscape:connector-curvature="0" /></g><g
           id="g332"
           transform="translate(62.0565,62.0862)"><path
             d="m 0,0 c 0.098,-0.134 0.017,-0.359 -0.184,-0.506 -0.199,-0.144 -0.439,-0.155 -0.537,-0.02 -0.097,0.133 -0.016,0.359 0.184,0.505 C -0.338,0.124 -0.098,0.135 0,0"
             style="fill:#ffffff;fill-opacity:1;fill-rule:nonzero;stroke:none"
             id="path334"
             inkscape:connector-curvature="0" /></g><g
           id="g336"
           transform="translate(62.5233,61.4143)"><path
             d="m 0,0 c 0.098,-0.134 0.017,-0.36 -0.183,-0.506 -0.199,-0.145 -0.441,-0.155 -0.538,-0.021 -0.097,0.133 -0.016,0.36 0.183,0.506 C -0.338,0.124 -0.098,0.134 0,0"
             style="fill:#ffffff;fill-opacity:1;fill-rule:nonzero;stroke:none"
             id="path338"
             inkscape:connector-curvature="0" /></g><g
           id="g340"
           transform="translate(62.9901,60.7415)"><path
             d="m 0,0 c 0.099,-0.134 0.017,-0.359 -0.184,-0.506 -0.199,-0.145 -0.439,-0.154 -0.537,-0.02 -0.097,0.133 -0.015,0.359 0.184,0.505 C -0.338,0.125 -0.098,0.135 0,0"
             style="fill:#ffffff;fill-opacity:1;fill-rule:nonzero;stroke:none"
             id="path342"
             inkscape:connector-curvature="0" /></g><g
           id="g344"
           transform="translate(63.4569,60.0696)"><path
             d="m 0,0 c 0.099,-0.134 0.017,-0.359 -0.184,-0.506 -0.199,-0.145 -0.439,-0.154 -0.537,-0.02 -0.097,0.133 -0.015,0.359 0.184,0.505 C -0.338,0.124 -0.098,0.135 0,0"
             style="fill:#ffffff;fill-opacity:1;fill-rule:nonzero;stroke:none"
             id="path346"
             inkscape:connector-curvature="0" /></g><g
           id="g348"
           transform="translate(63.9247,59.3977)"><path
             d="m 0,0 c 0.098,-0.134 0.015,-0.36 -0.185,-0.506 -0.198,-0.145 -0.439,-0.155 -0.536,-0.021 -0.098,0.134 -0.016,0.36 0.183,0.506 C -0.339,0.124 -0.099,0.134 0,0"
             style="fill:#ffffff;fill-opacity:1;fill-rule:nonzero;stroke:none"
             id="path350"
             inkscape:connector-curvature="0" /></g><g
           id="g352"
           transform="translate(64.3915,58.7258)"><path
             d="m 0,0 c 0.098,-0.134 0.015,-0.36 -0.185,-0.506 -0.198,-0.146 -0.439,-0.155 -0.536,-0.021 -0.098,0.134 -0.017,0.36 0.183,0.506 C -0.339,0.124 -0.099,0.134 0,0"
             style="fill:#ffffff;fill-opacity:1;fill-rule:nonzero;stroke:none"
             id="path354"
             inkscape:connector-curvature="0" /></g><g
           id="g356"
           transform="translate(64.8583,58.054)"><path
             d="m 0,0 c 0.098,-0.135 0.016,-0.361 -0.185,-0.507 -0.199,-0.145 -0.438,-0.154 -0.537,-0.02 -0.097,0.133 -0.015,0.36 0.184,0.506 C -0.339,0.124 -0.099,0.134 0,0"
             style="fill:#ffffff;fill-opacity:1;fill-rule:nonzero;stroke:none"
             id="path358"
             inkscape:connector-curvature="0" /></g><g
           id="g360"
           transform="translate(65.3251,57.3811)"><path
             d="m 0,0 c 0.098,-0.134 0.016,-0.36 -0.185,-0.506 -0.198,-0.145 -0.439,-0.155 -0.536,-0.021 -0.098,0.134 -0.016,0.36 0.183,0.506 C -0.339,0.124 -0.098,0.134 0,0"
             style="fill:#ffffff;fill-opacity:1;fill-rule:nonzero;stroke:none"
             id="path362"
             inkscape:connector-curvature="0" /></g><g
           id="g364"
           transform="translate(65.7919,56.7092)"><path
             d="m 0,0 c 0.098,-0.134 0.016,-0.36 -0.184,-0.506 -0.2,-0.146 -0.439,-0.155 -0.538,-0.021 -0.097,0.134 -0.015,0.36 0.184,0.506 C -0.34,0.124 -0.099,0.134 0,0"
             style="fill:#ffffff;fill-opacity:1;fill-rule:nonzero;stroke:none"
             id="path366"
             inkscape:connector-curvature="0" /></g><g
           id="g368"
           transform="translate(66.2587,56.0374)"><path
             d="m 0,0 c 0.098,-0.135 0.016,-0.36 -0.185,-0.506 -0.198,-0.145 -0.439,-0.155 -0.536,-0.021 -0.099,0.133 -0.016,0.36 0.183,0.506 C -0.339,0.124 -0.098,0.134 0,0"
             style="fill:#ffffff;fill-opacity:1;fill-rule:nonzero;stroke:none"
             id="path370"
             inkscape:connector-curvature="0" /></g><g
           id="g372"
           transform="translate(66.7255,55.3645)"><path
             d="m 0,0 c 0.098,-0.134 0.016,-0.359 -0.185,-0.506 -0.198,-0.144 -0.439,-0.155 -0.536,-0.02 -0.098,0.133 -0.016,0.36 0.183,0.505 C -0.339,0.125 -0.098,0.135 0,0"
             style="fill:#ffffff;fill-opacity:1;fill-rule:nonzero;stroke:none"
             id="path374"
             inkscape:connector-curvature="0" /></g><g
           id="g376"
           transform="translate(67.1923,54.6926)"><path
             d="m 0,0 c 0.099,-0.134 0.016,-0.36 -0.184,-0.505 -0.199,-0.146 -0.44,-0.156 -0.538,-0.022 -0.096,0.133 -0.014,0.36 0.184,0.506 C -0.339,0.124 -0.098,0.134 0,0"
             style="fill:#ffffff;fill-opacity:1;fill-rule:nonzero;stroke:none"
             id="path378"
             inkscape:connector-curvature="0" /></g><g
           id="g380"
           transform="translate(67.6591,54.0198)"><path
             d="m 0,0 c 0.098,-0.134 0.016,-0.359 -0.185,-0.506 -0.198,-0.144 -0.439,-0.153 -0.536,-0.02 -0.098,0.133 -0.016,0.359 0.183,0.505 C -0.338,0.124 -0.098,0.135 0,0"
             style="fill:#ffffff;fill-opacity:1;fill-rule:nonzero;stroke:none"
             id="path382"
             inkscape:connector-curvature="0" /></g><g
           id="g384"
           transform="translate(68.1259,53.3479)"><path
             d="m 0,0 c 0.098,-0.134 0.016,-0.359 -0.185,-0.506 -0.198,-0.144 -0.439,-0.154 -0.536,-0.02 -0.098,0.133 -0.016,0.359 0.183,0.505 C -0.338,0.124 -0.097,0.135 0,0"
             style="fill:#ffffff;fill-opacity:1;fill-rule:nonzero;stroke:none"
             id="path386"
             inkscape:connector-curvature="0" /></g><g
           id="g388"
           transform="translate(68.5927,52.676)"><path
             d="m 0,0 c 0.099,-0.134 0.016,-0.36 -0.184,-0.506 -0.199,-0.145 -0.44,-0.155 -0.538,-0.021 -0.096,0.134 -0.014,0.36 0.184,0.506 C -0.339,0.125 -0.098,0.134 0,0"
             style="fill:#ffffff;fill-opacity:1;fill-rule:nonzero;stroke:none"
             id="path390"
             inkscape:connector-curvature="0" /></g><g
           id="g392"
           transform="translate(69.0594,52.0042)"><path
             d="m 0,0 c 0.099,-0.135 0.017,-0.36 -0.184,-0.507 -0.199,-0.144 -0.44,-0.154 -0.537,-0.02 -0.097,0.133 -0.015,0.361 0.183,0.506 C -0.339,0.125 -0.098,0.134 0,0"
             style="fill:#ffffff;fill-opacity:1;fill-rule:nonzero;stroke:none"
             id="path394"
             inkscape:connector-curvature="0" /></g><g
           id="g396"
           transform="translate(69.5262,51.3323)"><path
             d="m 0,0 c 0.099,-0.135 0.016,-0.36 -0.184,-0.507 -0.199,-0.144 -0.44,-0.154 -0.537,-0.02 -0.097,0.133 -0.015,0.36 0.183,0.506 C -0.338,0.123 -0.098,0.134 0,0"
             style="fill:#ffffff;fill-opacity:1;fill-rule:nonzero;stroke:none"
             id="path398"
             inkscape:connector-curvature="0" /></g><g
           id="g400"
           transform="translate(69.994,50.6594)"><path
             d="m 0,0 c 0.097,-0.133 0.015,-0.36 -0.185,-0.506 -0.199,-0.145 -0.439,-0.155 -0.537,-0.021 -0.097,0.133 -0.015,0.361 0.184,0.506 C -0.338,0.125 -0.099,0.134 0,0"
             style="fill:#ffffff;fill-opacity:1;fill-rule:nonzero;stroke:none"
             id="path402"
             inkscape:connector-curvature="0" /></g><g
           id="g404"
           transform="translate(70.4608,49.9875)"><path
             d="m 0,0 c 0.097,-0.134 0.015,-0.36 -0.185,-0.506 -0.198,-0.145 -0.439,-0.155 -0.537,-0.021 -0.097,0.134 -0.016,0.36 0.184,0.506 C -0.339,0.124 -0.098,0.134 0,0"
             style="fill:#ffffff;fill-opacity:1;fill-rule:nonzero;stroke:none"
             id="path406"
             inkscape:connector-curvature="0" /></g><g
           id="g408"
           transform="translate(70.9276,49.3157)"><path
             d="m 0,0 c 0.098,-0.135 0.016,-0.36 -0.185,-0.505 -0.198,-0.146 -0.439,-0.156 -0.537,-0.022 -0.097,0.133 -0.015,0.36 0.184,0.506 C -0.339,0.124 -0.099,0.134 0,0"
             style="fill:#ffffff;fill-opacity:1;fill-rule:nonzero;stroke:none"
             id="path410"
             inkscape:connector-curvature="0" /></g><g
           id="g412"
           transform="translate(71.3944,48.6438)"><path
             d="m 0,0 c 0.098,-0.135 0.015,-0.361 -0.184,-0.508 -0.199,-0.144 -0.44,-0.153 -0.537,-0.019 -0.098,0.132 -0.016,0.36 0.183,0.506 C -0.339,0.124 -0.098,0.134 0,0"
             style="fill:#ffffff;fill-opacity:1;fill-rule:nonzero;stroke:none"
             id="path414"
             inkscape:connector-curvature="0" /></g><g
           id="g416"
           transform="translate(71.8602,47.9709)"><path
             d="m 0,0 c 0.1,-0.135 0.017,-0.36 -0.184,-0.506 -0.199,-0.145 -0.439,-0.154 -0.537,-0.021 -0.097,0.133 -0.015,0.36 0.183,0.506 C -0.338,0.124 -0.097,0.135 0,0"
             style="fill:#ffffff;fill-opacity:1;fill-rule:nonzero;stroke:none"
             id="path418"
             inkscape:connector-curvature="0" /></g><g
           id="g420"
           transform="translate(72.328,47.2991)"><path
             d="m 0,0 c 0.098,-0.134 0.016,-0.36 -0.185,-0.506 -0.198,-0.146 -0.439,-0.155 -0.537,-0.021 -0.097,0.134 -0.015,0.36 0.184,0.506 C -0.339,0.124 -0.099,0.134 0,0"
             style="fill:#ffffff;fill-opacity:1;fill-rule:nonzero;stroke:none"
             id="path422"
             inkscape:connector-curvature="0" /></g><g
           id="g424"
           transform="translate(72.7938,46.6272)"><path
             d="m 0,0 c 0.099,-0.134 0.017,-0.36 -0.183,-0.506 -0.2,-0.146 -0.44,-0.155 -0.538,-0.021 -0.097,0.134 -0.015,0.36 0.183,0.506 C -0.338,0.124 -0.097,0.134 0,0"
             style="fill:#ffffff;fill-opacity:1;fill-rule:nonzero;stroke:none"
             id="path426"
             inkscape:connector-curvature="0" /></g><g
           id="g428"
           transform="translate(73.2616,45.9553)"><path
             d="m 0,0 c 0.098,-0.134 0.016,-0.361 -0.184,-0.506 -0.2,-0.146 -0.441,-0.156 -0.538,-0.021 -0.097,0.134 -0.015,0.36 0.184,0.505 C -0.34,0.124 -0.098,0.133 0,0"
             style="fill:#ffffff;fill-opacity:1;fill-rule:evenodd;stroke:none"
             id="path430"
             inkscape:connector-curvature="0" /></g><g
           id="g432"
           transform="translate(45.7792,50.1409)"><path
             d="m 0,0 c -0.099,-0.133 -0.34,-0.121 -0.537,0.028 -0.198,0.148 -0.278,0.375 -0.178,0.508 0.1,0.132 0.34,0.12 0.538,-0.028 C 0.02,0.36 0.1,0.133 0,0"
             style="fill:#ffffff;fill-opacity:1;fill-rule:evenodd;stroke:none"
             id="path434"
             inkscape:connector-curvature="0" /></g><g
           id="g436"
           transform="translate(45.2635,49.5364)"><path
             d="m 0,0 c -0.099,-0.133 -0.34,-0.12 -0.538,0.028 -0.197,0.148 -0.276,0.375 -0.177,0.508 0.099,0.132 0.34,0.12 0.538,-0.028 C 0.021,0.36 0.1,0.133 0,0"
             style="fill:#ffffff;fill-opacity:1;fill-rule:nonzero;stroke:none"
             id="path438"
             inkscape:connector-curvature="0" /></g><g
           id="g440"
           transform="translate(44.7479,48.9319)"><path
             d="m 0,0 c -0.101,-0.132 -0.341,-0.12 -0.538,0.027 -0.197,0.149 -0.276,0.376 -0.178,0.509 0.1,0.132 0.341,0.12 0.538,-0.028 C 0.02,0.36 0.1,0.132 0,0"
             style="fill:#ffffff;fill-opacity:1;fill-rule:nonzero;stroke:none"
             id="path442"
             inkscape:connector-curvature="0" /></g><g
           id="g444"
           transform="translate(44.2323,48.3274)"><path
             d="m 0,0 c -0.101,-0.133 -0.34,-0.12 -0.538,0.028 -0.197,0.149 -0.276,0.375 -0.177,0.508 0.1,0.132 0.34,0.12 0.536,-0.027 C 0.02,0.36 0.099,0.132 0,0"
             style="fill:#ffffff;fill-opacity:1;fill-rule:nonzero;stroke:none"
             id="path446"
             inkscape:connector-curvature="0" /></g><g
           id="g448"
           transform="translate(43.7167,47.7239)"><path
             d="m 0,0 c -0.1,-0.133 -0.341,-0.12 -0.538,0.026 -0.197,0.15 -0.276,0.376 -0.178,0.509 0.1,0.133 0.341,0.119 0.537,-0.027 C 0.02,0.359 0.099,0.132 0,0"
             style="fill:#ffffff;fill-opacity:1;fill-rule:nonzero;stroke:none"
             id="path450"
             inkscape:connector-curvature="0" /></g><g
           id="g452"
           transform="translate(43.2001,47.1184)"><path
             d="m 0,0 c -0.1,-0.132 -0.34,-0.119 -0.538,0.028 -0.196,0.149 -0.276,0.375 -0.177,0.508 0.099,0.132 0.34,0.12 0.537,-0.027 C 0.021,0.36 0.101,0.134 0,0"
             style="fill:#ffffff;fill-opacity:1;fill-rule:nonzero;stroke:none"
             id="path454"
             inkscape:connector-curvature="0" /></g><g
           id="g456"
           transform="translate(42.6844,46.5149)"><path
             d="m 0,0 c -0.1,-0.134 -0.341,-0.12 -0.537,0.027 -0.197,0.149 -0.277,0.375 -0.178,0.508 0.1,0.133 0.34,0.12 0.537,-0.027 C 0.02,0.359 0.099,0.132 0,0"
             style="fill:#ffffff;fill-opacity:1;fill-rule:nonzero;stroke:none"
             id="path458"
             inkscape:connector-curvature="0" /></g><g
           id="g460"
           transform="translate(42.1688,45.9104)"><path
             d="m 0,0 c -0.1,-0.134 -0.34,-0.12 -0.538,0.027 -0.197,0.149 -0.276,0.375 -0.178,0.508 0.1,0.133 0.341,0.12 0.538,-0.027 C 0.02,0.359 0.1,0.133 0,0"
             style="fill:#ffffff;fill-opacity:1;fill-rule:nonzero;stroke:none"
             id="path462"
             inkscape:connector-curvature="0" /></g><g
           id="g464"
           transform="translate(41.6522,45.3059)"><path
             d="m 0,0 c -0.099,-0.134 -0.34,-0.12 -0.537,0.027 -0.197,0.149 -0.276,0.375 -0.177,0.508 0.099,0.133 0.34,0.12 0.537,-0.027 C 0.021,0.359 0.101,0.132 0,0"
             style="fill:#ffffff;fill-opacity:1;fill-rule:evenodd;stroke:none"
             id="path466"
             inkscape:connector-curvature="0" /></g><g
           id="g468"
           transform="translate(47.2098,49.553)"><path
             d="M 0,0 C -0.085,-0.143 -0.325,-0.155 -0.536,-0.029 -0.75,0.098 -0.852,0.315 -0.767,0.458 -0.682,0.601 -0.441,0.612 -0.229,0.486 -0.018,0.36 0.085,0.142 0,0"
             style="fill:#ffffff;fill-opacity:1;fill-rule:evenodd;stroke:none"
             id="path470"
             inkscape:connector-curvature="0" /></g><g
           id="g472"
           transform="translate(46.7596,48.8977)"><path
             d="m 0,0 c -0.085,-0.142 -0.324,-0.155 -0.537,-0.029 -0.212,0.127 -0.315,0.345 -0.23,0.487 0.085,0.144 0.327,0.155 0.538,0.029 C -0.018,0.36 0.085,0.143 0,0"
             style="fill:#ffffff;fill-opacity:1;fill-rule:nonzero;stroke:none"
             id="path474"
             inkscape:connector-curvature="0" /></g><g
           id="g476"
           transform="translate(46.3104,48.2424)"><path
             d="m 0,0 c -0.085,-0.143 -0.326,-0.155 -0.537,-0.029 -0.212,0.128 -0.316,0.345 -0.231,0.487 0.086,0.143 0.327,0.155 0.539,0.029 C -0.019,0.361 0.085,0.143 0,0"
             style="fill:#ffffff;fill-opacity:1;fill-rule:nonzero;stroke:none"
             id="path478"
             inkscape:connector-curvature="0" /></g><g
           id="g480"
           transform="translate(45.8612,47.5881)"><path
             d="M 0,0 C -0.086,-0.143 -0.326,-0.155 -0.537,-0.029 -0.749,0.098 -0.853,0.315 -0.768,0.458 -0.683,0.6 -0.442,0.612 -0.23,0.485 -0.019,0.359 0.085,0.142 0,0"
             style="fill:#ffffff;fill-opacity:1;fill-rule:nonzero;stroke:none"
             id="path482"
             inkscape:connector-curvature="0" /></g><g
           id="g484"
           transform="translate(45.411,46.9329)"><path
             d="M 0,0 C -0.085,-0.142 -0.326,-0.155 -0.538,-0.029 -0.749,0.098 -0.853,0.315 -0.767,0.458 -0.682,0.6 -0.442,0.613 -0.23,0.486 -0.018,0.36 0.085,0.142 0,0"
             style="fill:#ffffff;fill-opacity:1;fill-rule:nonzero;stroke:none"
             id="path486"
             inkscape:connector-curvature="0" /></g><g
           id="g488"
           transform="translate(44.9608,46.2776)"><path
             d="m 0,0 c -0.085,-0.142 -0.326,-0.155 -0.537,-0.029 -0.212,0.126 -0.315,0.345 -0.23,0.487 0.085,0.143 0.326,0.155 0.537,0.029 C -0.018,0.36 0.085,0.142 0,0"
             style="fill:#ffffff;fill-opacity:1;fill-rule:nonzero;stroke:none"
             id="path490"
             inkscape:connector-curvature="0" /></g><g
           id="g492"
           transform="translate(44.5116,45.6223)"><path
             d="m 0,0 c -0.086,-0.142 -0.326,-0.155 -0.538,-0.028 -0.211,0.126 -0.315,0.344 -0.23,0.486 0.085,0.143 0.326,0.155 0.538,0.029 C -0.019,0.361 0.085,0.142 0,0"
             style="fill:#ffffff;fill-opacity:1;fill-rule:nonzero;stroke:none"
             id="path494"
             inkscape:connector-curvature="0" /></g><g
           id="g496"
           transform="translate(44.0614,44.967)"><path
             d="m 0,0 c -0.085,-0.142 -0.326,-0.154 -0.537,-0.027 -0.212,0.126 -0.315,0.343 -0.23,0.485 0.085,0.143 0.326,0.155 0.538,0.029 C -0.018,0.36 0.085,0.143 0,0"
             style="fill:#ffffff;fill-opacity:1;fill-rule:nonzero;stroke:none"
             id="path498"
             inkscape:connector-curvature="0" /></g><g
           id="g500"
           transform="translate(43.6112,44.3127)"><path
             d="M 0,0 C -0.085,-0.143 -0.326,-0.155 -0.537,-0.029 -0.749,0.098 -0.852,0.315 -0.767,0.458 -0.682,0.6 -0.441,0.612 -0.229,0.485 -0.018,0.359 0.085,0.142 0,0"
             style="fill:#ffffff;fill-opacity:1;fill-rule:evenodd;stroke:none"
             id="path502"
             inkscape:connector-curvature="0" /></g><g
           id="g504"
           transform="translate(44.4403,51.4495)"><path
             d="M 0,0 C -0.104,-0.129 -0.344,-0.108 -0.537,0.047 -0.729,0.2 -0.8,0.431 -0.695,0.56 -0.592,0.688 -0.352,0.669 -0.159,0.514 0.032,0.358 0.104,0.129 0,0"
             style="fill:#ffffff;fill-opacity:1;fill-rule:evenodd;stroke:none"
             id="path506"
             inkscape:connector-curvature="0" /></g><g
           id="g508"
           transform="translate(43.9042,50.8625)"><path
             d="m 0,0 c -0.104,-0.129 -0.345,-0.107 -0.536,0.048 -0.193,0.153 -0.265,0.384 -0.16,0.513 0.103,0.128 0.343,0.108 0.537,-0.046 C 0.032,0.359 0.104,0.13 0,0"
             style="fill:#ffffff;fill-opacity:1;fill-rule:nonzero;stroke:none"
             id="path510"
             inkscape:connector-curvature="0" /></g><g
           id="g512"
           transform="translate(43.3671,50.2766)"><path
             d="M 0,0 C -0.104,-0.129 -0.344,-0.107 -0.536,0.047 -0.729,0.201 -0.8,0.432 -0.695,0.562 -0.592,0.69 -0.352,0.669 -0.16,0.515 0.033,0.359 0.104,0.129 0,0"
             style="fill:#ffffff;fill-opacity:1;fill-rule:nonzero;stroke:none"
             id="path514"
             inkscape:connector-curvature="0" /></g><g
           id="g516"
           transform="translate(42.8309,49.6907)"><path
             d="M 0,0 C -0.104,-0.129 -0.345,-0.107 -0.536,0.046 -0.729,0.201 -0.801,0.431 -0.695,0.562 -0.593,0.69 -0.353,0.669 -0.16,0.514 0.032,0.359 0.104,0.129 0,0"
             style="fill:#ffffff;fill-opacity:1;fill-rule:nonzero;stroke:none"
             id="path518"
             inkscape:connector-curvature="0" /></g><g
           id="g520"
           transform="translate(42.2938,49.1047)"><path
             d="M 0,0 C -0.104,-0.129 -0.344,-0.108 -0.536,0.047 -0.728,0.201 -0.8,0.431 -0.696,0.561 -0.592,0.69 -0.352,0.669 -0.16,0.514 0.033,0.359 0.104,0.129 0,0"
             style="fill:#ffffff;fill-opacity:1;fill-rule:nonzero;stroke:none"
             id="path522"
             inkscape:connector-curvature="0" /></g><g
           id="g524"
           transform="translate(41.7577,48.5188)"><path
             d="M 0,0 C -0.104,-0.129 -0.345,-0.108 -0.537,0.047 -0.729,0.201 -0.8,0.431 -0.696,0.56 -0.592,0.689 -0.352,0.669 -0.16,0.514 0.032,0.358 0.104,0.129 0,0"
             style="fill:#ffffff;fill-opacity:1;fill-rule:nonzero;stroke:none"
             id="path526"
             inkscape:connector-curvature="0" /></g><g
           id="g528"
           transform="translate(41.2206,47.9329)"><path
             d="M 0,0 C -0.104,-0.129 -0.344,-0.108 -0.536,0.047 -0.728,0.201 -0.799,0.431 -0.696,0.56 -0.591,0.689 -0.352,0.669 -0.159,0.514 0.033,0.358 0.104,0.13 0,0"
             style="fill:#ffffff;fill-opacity:1;fill-rule:nonzero;stroke:none"
             id="path530"
             inkscape:connector-curvature="0" /></g><g
           id="g532"
           transform="translate(40.6835,47.3469)"><path
             d="m 0,0 c -0.104,-0.13 -0.344,-0.107 -0.535,0.046 -0.193,0.155 -0.264,0.386 -0.16,0.515 0.104,0.128 0.344,0.107 0.537,-0.046 C 0.033,0.359 0.104,0.129 0,0"
             style="fill:#ffffff;fill-opacity:1;fill-rule:nonzero;stroke:none"
             id="path534"
             inkscape:connector-curvature="0" /></g><g
           id="g536"
           transform="translate(40.1473,46.761)"><path
             d="M 0,0 C -0.104,-0.129 -0.344,-0.108 -0.536,0.047 -0.728,0.201 -0.8,0.431 -0.695,0.56 -0.592,0.688 -0.352,0.668 -0.159,0.514 0.032,0.358 0.104,0.129 0,0"
             style="fill:#ffffff;fill-opacity:1;fill-rule:evenodd;stroke:none"
             id="path538"
             inkscape:connector-curvature="0" /></g><g
           id="g540"
           transform="translate(59.0653,63.5149)"><path
             d="m 0,0 c 0.069,-0.141 -0.053,-0.336 -0.275,-0.435 -0.221,-0.099 -0.457,-0.065 -0.527,0.077 -0.069,0.141 0.054,0.336 0.275,0.435 C -0.306,0.176 -0.07,0.142 0,0"
             style="fill:#ffffff;fill-opacity:1;fill-rule:evenodd;stroke:none"
             id="path542"
             inkscape:connector-curvature="0" /></g><g
           id="g544"
           transform="translate(59.4169,62.7542)"><path
             d="m 0,0 c 0.07,-0.141 -0.053,-0.336 -0.273,-0.435 -0.223,-0.099 -0.458,-0.065 -0.529,0.077 -0.07,0.141 0.054,0.337 0.276,0.435 C -0.306,0.176 -0.069,0.142 0,0"
             style="fill:#ffffff;fill-opacity:1;fill-rule:nonzero;stroke:none"
             id="path546"
             inkscape:connector-curvature="0" /></g><g
           id="g548"
           transform="translate(59.7694,61.9934)"><path
             d="m 0,0 c 0.07,-0.141 -0.053,-0.336 -0.274,-0.435 -0.222,-0.099 -0.458,-0.064 -0.528,0.078 -0.07,0.14 0.054,0.336 0.274,0.434 C -0.306,0.176 -0.07,0.141 0,0"
             style="fill:#ffffff;fill-opacity:1;fill-rule:nonzero;stroke:none"
             id="path550"
             inkscape:connector-curvature="0" /></g><g
           id="g552"
           transform="translate(60.1219,61.2327)"><path
             d="m 0,0 c 0.069,-0.142 -0.054,-0.337 -0.275,-0.436 -0.221,-0.098 -0.457,-0.064 -0.527,0.079 -0.069,0.14 0.053,0.336 0.275,0.434 C -0.307,0.176 -0.07,0.142 0,0"
             style="fill:#ffffff;fill-opacity:1;fill-rule:nonzero;stroke:none"
             id="path554"
             inkscape:connector-curvature="0" /></g><g
           id="g556"
           transform="translate(60.4735,60.4719)"><path
             d="m 0,0 c 0.069,-0.141 -0.053,-0.336 -0.274,-0.435 -0.222,-0.099 -0.458,-0.065 -0.528,0.078 -0.069,0.14 0.054,0.336 0.275,0.434 C -0.307,0.177 -0.069,0.143 0,0"
             style="fill:#ffffff;fill-opacity:1;fill-rule:nonzero;stroke:none"
             id="path558"
             inkscape:connector-curvature="0" /></g><g
           id="g560"
           transform="translate(60.8251,59.7112)"><path
             d="M 0,0 C 0.07,-0.141 -0.053,-0.336 -0.273,-0.435 -0.495,-0.534 -0.731,-0.5 -0.801,-0.358 -0.87,-0.216 -0.748,-0.021 -0.526,0.077 -0.306,0.176 -0.068,0.142 0,0"
             style="fill:#ffffff;fill-opacity:1;fill-rule:nonzero;stroke:none"
             id="path562"
             inkscape:connector-curvature="0" /></g><g
           id="g564"
           transform="translate(61.1776,58.9504)"><path
             d="m 0,0 c 0.07,-0.142 -0.053,-0.337 -0.274,-0.436 -0.222,-0.097 -0.458,-0.064 -0.528,0.078 -0.069,0.141 0.054,0.337 0.275,0.435 C -0.306,0.177 -0.069,0.142 0,0"
             style="fill:#ffffff;fill-opacity:1;fill-rule:nonzero;stroke:none"
             id="path566"
             inkscape:connector-curvature="0" /></g><g
           id="g568"
           transform="translate(61.5302,58.1907)"><path
             d="m 0,0 c 0.069,-0.142 -0.054,-0.338 -0.275,-0.437 -0.221,-0.097 -0.457,-0.063 -0.527,0.079 -0.069,0.14 0.053,0.336 0.275,0.434 C -0.307,0.176 -0.07,0.142 0,0"
             style="fill:#ffffff;fill-opacity:1;fill-rule:nonzero;stroke:none"
             id="path570"
             inkscape:connector-curvature="0" /></g><g
           id="g572"
           transform="translate(61.8817,57.4299)"><path
             d="m 0,0 c 0.069,-0.143 -0.054,-0.338 -0.274,-0.437 -0.221,-0.098 -0.457,-0.063 -0.528,0.078 -0.069,0.141 0.054,0.337 0.276,0.435 C -0.307,0.176 -0.069,0.141 0,0"
             style="fill:#ffffff;fill-opacity:1;fill-rule:nonzero;stroke:none"
             id="path574"
             inkscape:connector-curvature="0" /></g><g
           id="g576"
           transform="translate(62.2343,56.6682)"><path
             d="m 0,0 c 0.068,-0.141 -0.053,-0.336 -0.275,-0.435 -0.221,-0.099 -0.457,-0.064 -0.526,0.077 -0.071,0.142 0.053,0.337 0.274,0.436 C -0.307,0.176 -0.07,0.142 0,0"
             style="fill:#ffffff;fill-opacity:1;fill-rule:nonzero;stroke:none"
             id="path578"
             inkscape:connector-curvature="0" /></g><g
           id="g580"
           transform="translate(62.5858,55.9084)"><path
             d="m 0,0 c 0.07,-0.143 -0.053,-0.337 -0.273,-0.437 -0.223,-0.098 -0.458,-0.063 -0.529,0.079 -0.069,0.141 0.054,0.336 0.275,0.435 C -0.306,0.176 -0.07,0.141 0,0"
             style="fill:#ffffff;fill-opacity:1;fill-rule:nonzero;stroke:none"
             id="path582"
             inkscape:connector-curvature="0" /></g><g
           id="g584"
           transform="translate(62.9384,55.1467)"><path
             d="m 0,0 c 0.069,-0.142 -0.054,-0.336 -0.274,-0.435 -0.222,-0.098 -0.458,-0.065 -0.528,0.078 -0.069,0.14 0.053,0.336 0.275,0.434 C -0.307,0.177 -0.07,0.142 0,0"
             style="fill:#ffffff;fill-opacity:1;fill-rule:nonzero;stroke:none"
             id="path586"
             inkscape:connector-curvature="0" /></g><g
           id="g588"
           transform="translate(63.2909,54.386)"><path
             d="m 0,0 c 0.069,-0.141 -0.054,-0.336 -0.275,-0.435 -0.221,-0.099 -0.456,-0.065 -0.528,0.078 -0.068,0.14 0.053,0.336 0.276,0.434 C -0.307,0.176 -0.07,0.143 0,0"
             style="fill:#ffffff;fill-opacity:1;fill-rule:nonzero;stroke:none"
             id="path590"
             inkscape:connector-curvature="0" /></g><g
           id="g592"
           transform="translate(63.6425,53.6262)"><path
             d="m 0,0 c 0.069,-0.142 -0.053,-0.336 -0.274,-0.436 -0.222,-0.098 -0.458,-0.064 -0.527,0.078 -0.07,0.14 0.053,0.336 0.274,0.435 C -0.307,0.176 -0.07,0.141 0,0"
             style="fill:#ffffff;fill-opacity:1;fill-rule:nonzero;stroke:none"
             id="path594"
             inkscape:connector-curvature="0" /></g><g
           id="g596"
           transform="translate(63.995,52.8655)"><path
             d="m 0,0 c 0.069,-0.143 -0.053,-0.337 -0.275,-0.437 -0.221,-0.097 -0.457,-0.063 -0.527,0.079 -0.07,0.141 0.054,0.336 0.274,0.435 C -0.306,0.176 -0.07,0.141 0,0"
             style="fill:#ffffff;fill-opacity:1;fill-rule:nonzero;stroke:none"
             id="path598"
             inkscape:connector-curvature="0" /></g><g
           id="g600"
           transform="translate(64.3466,52.1038)"><path
             d="m 0,0 c 0.07,-0.141 -0.053,-0.336 -0.274,-0.435 -0.222,-0.098 -0.458,-0.065 -0.527,0.078 -0.07,0.14 0.053,0.336 0.274,0.434 C -0.306,0.177 -0.07,0.143 0,0"
             style="fill:#ffffff;fill-opacity:1;fill-rule:nonzero;stroke:none"
             id="path602"
             inkscape:connector-curvature="0" /></g><g
           id="g604"
           transform="translate(64.6991,51.344)"><path
             d="m 0,0 c 0.069,-0.142 -0.054,-0.337 -0.274,-0.437 -0.222,-0.097 -0.458,-0.063 -0.528,0.078 -0.069,0.142 0.053,0.337 0.275,0.436 C -0.306,0.176 -0.07,0.141 0,0"
             style="fill:#ffffff;fill-opacity:1;fill-rule:nonzero;stroke:none"
             id="path606"
             inkscape:connector-curvature="0" /></g><g
           id="g608"
           transform="translate(65.0507,50.5833)"><path
             d="m 0,0 c 0.07,-0.142 -0.053,-0.337 -0.274,-0.436 -0.221,-0.098 -0.458,-0.064 -0.527,0.078 -0.07,0.14 0.053,0.336 0.274,0.434 C -0.306,0.176 -0.07,0.141 0,0"
             style="fill:#ffffff;fill-opacity:1;fill-rule:nonzero;stroke:none"
             id="path610"
             inkscape:connector-curvature="0" /></g><g
           id="g612"
           transform="translate(65.4032,49.8225)"><path
             d="m 0,0 c 0.069,-0.143 -0.053,-0.336 -0.274,-0.437 -0.222,-0.097 -0.457,-0.063 -0.528,0.079 -0.069,0.14 0.054,0.336 0.275,0.435 C -0.307,0.176 -0.07,0.141 0,0"
             style="fill:#ffffff;fill-opacity:1;fill-rule:nonzero;stroke:none"
             id="path614"
             inkscape:connector-curvature="0" /></g><g
           id="g616"
           transform="translate(65.7548,49.0618)"><path
             d="m 0,0 c 0.07,-0.142 -0.053,-0.336 -0.273,-0.437 -0.223,-0.097 -0.458,-0.063 -0.529,0.079 -0.069,0.142 0.054,0.336 0.276,0.435 C -0.306,0.176 -0.068,0.142 0,0"
             style="fill:#ffffff;fill-opacity:1;fill-rule:nonzero;stroke:none"
             id="path618"
             inkscape:connector-curvature="0" /></g><g
           id="g620"
           transform="translate(66.1073,48.3)"><path
             d="m 0,0 c 0.07,-0.141 -0.054,-0.336 -0.275,-0.435 -0.221,-0.098 -0.457,-0.064 -0.527,0.078 -0.069,0.141 0.053,0.336 0.275,0.435 C -0.306,0.178 -0.07,0.143 0,0"
             style="fill:#ffffff;fill-opacity:1;fill-rule:nonzero;stroke:none"
             id="path622"
             inkscape:connector-curvature="0" /></g><g
           id="g624"
           transform="translate(66.4589,47.5403)"><path
             d="m 0,0 c 0.07,-0.142 -0.053,-0.337 -0.273,-0.437 -0.222,-0.097 -0.458,-0.063 -0.528,0.078 -0.07,0.142 0.053,0.337 0.275,0.436 C -0.306,0.176 -0.069,0.142 0,0"
             style="fill:#ffffff;fill-opacity:1;fill-rule:nonzero;stroke:none"
             id="path626"
             inkscape:connector-curvature="0" /></g><g
           id="g628"
           transform="translate(66.8114,46.7795)"><path
             d="m 0,0 c 0.069,-0.142 -0.054,-0.337 -0.274,-0.435 -0.222,-0.099 -0.457,-0.065 -0.528,0.076 -0.069,0.143 0.054,0.338 0.275,0.436 C -0.307,0.176 -0.069,0.142 0,0"
             style="fill:#ffffff;fill-opacity:1;fill-rule:nonzero;stroke:none"
             id="path630"
             inkscape:connector-curvature="0" /></g><g
           id="g632"
           transform="translate(67.1639,46.0188)"><path
             d="m 0,0 c 0.068,-0.142 -0.054,-0.336 -0.275,-0.437 -0.221,-0.097 -0.456,-0.063 -0.528,0.079 -0.069,0.142 0.054,0.337 0.275,0.435 C -0.307,0.176 -0.07,0.141 0,0"
             style="fill:#ffffff;fill-opacity:1;fill-rule:nonzero;stroke:none"
             id="path634"
             inkscape:connector-curvature="0" /></g><g
           id="g636"
           transform="translate(67.5155,45.2581)"><path
             d="m 0,0 c 0.07,-0.141 -0.053,-0.336 -0.274,-0.435 -0.222,-0.099 -0.458,-0.065 -0.527,0.077 -0.07,0.141 0.052,0.337 0.274,0.435 C -0.306,0.176 -0.07,0.142 0,0"
             style="fill:#ffffff;fill-opacity:1;fill-rule:nonzero;stroke:none"
             id="path638"
             inkscape:connector-curvature="0" /></g><g
           id="g640"
           transform="translate(67.8671,44.4973)"><path
             d="m 0,0 c 0.07,-0.141 -0.053,-0.336 -0.273,-0.435 -0.222,-0.099 -0.459,-0.065 -0.528,0.078 -0.07,0.141 0.053,0.336 0.274,0.434 C -0.305,0.176 -0.07,0.143 0,0"
             style="fill:#ffffff;fill-opacity:1;fill-rule:nonzero;stroke:none"
             id="path642"
             inkscape:connector-curvature="0" /></g><g
           id="g644"
           transform="translate(68.2196,43.7366)"><path
             d="m 0,0 c 0.07,-0.141 -0.053,-0.336 -0.273,-0.435 -0.223,-0.098 -0.458,-0.065 -0.529,0.078 -0.069,0.14 0.054,0.336 0.276,0.434 C -0.306,0.177 -0.069,0.142 0,0"
             style="fill:#ffffff;fill-opacity:1;fill-rule:evenodd;stroke:none"
             id="path646"
             inkscape:connector-curvature="0" /></g><g
           id="g648"
           transform="translate(58.5975,41.759)"><path
             d="m 0,0 c 2.536,-1.416 7.295,-8.626 7.295,-8.626 2.891,-0.349 4.289,0.891 4.289,0.891 0,0 -4.477,5.66 -10.249,8.037 C -0.097,0.597 0,0 0,0"
             style="fill:#ffffff;fill-opacity:1;fill-rule:evenodd;stroke:none"
             id="path650"
             inkscape:connector-curvature="0" /></g><g
           id="g652"
           transform="translate(58.5975,41.759)"><path
             d="m 0,0 c 2.536,-1.416 7.295,-8.626 7.295,-8.626 2.891,-0.349 4.289,0.891 4.289,0.891 0,0 -4.477,5.66 -10.249,8.037 C -0.097,0.597 0,0 0,0 Z"
             style="fill:none;stroke:#e51636;stroke-width:0.34999999;stroke-linecap:butt;stroke-linejoin:miter;stroke-miterlimit:3.86400008;stroke-dasharray:none;stroke-opacity:1"
             id="path654"
             inkscape:connector-curvature="0" /></g><g
           id="g656"
           transform="translate(80.786,72.0881)"><path
             d="m 0,0 0.643,0.112 c 0.44,-0.788 0.916,-0.522 2.07,0.055 0.274,0.154 0.583,0.31 0.958,0.519 1.652,0.92 2.791,1.556 3.503,1.987 1.155,0.692 1.323,0.835 0.81,1.928 L 8.584,4.705 10.545,1.187 9.933,1.108 C 9.175,2.262 9.175,2.262 6.321,0.67 5.258,0.077 2.568,-1.487 2.056,-1.773 2.263,-2.232 2.344,-2.467 2.707,-3.117 3.349,-4.27 3.937,-4.795 5.477,-3.936 L 6.011,-4.541 3.356,-6.02 Z m -7.766,15.123 c -0.729,-0.938 -2.683,-3.594 0.236,-5.862 0.871,-0.678 1.759,-1.077 2.632,-0.957 0.483,0.06 0.965,0.121 2.09,1.569 2.146,2.762 1.174,4.569 -0.331,5.739 -0.826,0.642 -1.623,1.042 -2.346,0.951 -0.788,-0.15 -1.542,-0.489 -2.281,-1.44 M -8.659,8.485 c -1.279,0.994 -3.272,3.523 -0.475,7.12 0.722,0.928 1.886,1.585 3.163,1.736 1.317,0.175 2.556,-0.099 3.88,-1.128 2.422,-1.882 2.62,-4.287 0.713,-6.742 C -3.33,6.958 -6.587,6.876 -8.659,8.485 m -14.359,7.066 0.318,0.47 c 1.205,-0.328 1.415,-0.094 1.869,1.129 0.266,0.682 0.644,1.719 1.124,3.206 0.319,0.997 0.825,2.611 0.986,3.251 -1.542,0.497 -2.346,0.755 -2.961,-0.824 l -0.87,-0.036 0.858,2.66 7.748,-2.495 -0.743,-2.306 -0.871,-0.035 c 0.423,1.31 0.349,1.92 -1.329,2.461 -0.165,0.052 -0.318,0.087 -0.486,0.126 -0.33,-0.977 -0.84,-2.469 -1.121,-3.342 -0.476,-1.473 -0.754,-2.528 -0.942,-3.205 -0.394,-1.364 0.034,-1.577 1.158,-2.013 l -0.359,-0.457 z m -11.802,0.625 c -0.659,-0.036 -2.439,-0.021 -2.669,-0.032 l -0.159,2.905 0.875,0.52 c 0.006,-0.129 0.014,-0.257 0.022,-0.385 0.089,-1.631 0.416,-2.087 2.275,-1.985 0.359,0.02 0.931,0.05 1.253,0.427 0.218,0.242 0.41,0.668 0.376,1.27 -0.129,2.346 -4.966,1.85 -5.121,4.64 -0.054,0.988 0.401,2.635 3.092,2.783 0.729,0.04 2.037,0.011 2.496,0.023 l 0.128,-2.332 -0.822,-0.461 c -0.006,0.113 -0.013,0.242 -0.019,0.356 -0.068,1.232 -0.504,1.58 -1.777,1.51 -0.329,-0.018 -1.76,-0.097 -1.684,-1.484 0.116,-2.089 4.916,-1.71 5.078,-4.659 0.068,-1.215 -0.429,-1.832 -0.851,-2.242 -0.736,-0.729 -1.749,-0.813 -2.493,-0.854 m -13.128,-3.192 -0.029,0.638 c 0.539,0.235 0.813,0.362 0.561,1.172 -0.196,0.633 -0.64,1.799 -1.455,3.803 -0.4,0.981 -0.699,1.679 -0.913,2.166 -0.481,1.103 -0.671,1.042 -1.51,0.747 l -0.013,0.676 3.079,1.252 0.029,-0.638 c -0.664,-0.271 -0.713,-0.491 -0.323,-1.602 0.259,-0.791 0.701,-1.912 1.273,-3.319 0.535,-1.314 0.891,-2.112 1.139,-2.568 0.339,-0.606 0.685,-0.541 1.465,-0.332 l 0.015,-0.644 z m -13.928,-2.546 c 0.203,0.137 0.403,0.256 0.587,0.416 0.41,0.358 1.546,1.389 0.414,2.684 -0.773,0.886 -1.613,0.779 -2.391,0.101 -0.571,-0.5 -0.583,-0.815 -0.172,-1.351 0.197,-0.246 0.47,-0.579 0.809,-0.968 z m 1.854,-5.956 -0.254,0.596 c 0.642,0.638 0.528,0.9 -0.347,1.943 -0.386,0.442 -0.892,1.086 -1.627,1.927 -0.943,1.08 -1.614,1.825 -2.052,2.281 -0.587,0.629 -0.944,0.887 -1.731,0.219 l -0.262,0.627 c 0.268,0.215 0.695,0.532 1.214,0.985 0.572,0.5 1.117,1.052 1.687,1.551 1.307,1.141 2.658,0.837 3.459,-0.08 1.142,-1.305 0.536,-2.767 -0.101,-3.325 0.532,0.219 0.795,0.354 2.159,-0.206 l 1.335,-0.547 c 1.453,-0.595 1.625,-0.597 2.427,0.009 l 0.233,-0.613 -1.554,-1.359 -2.708,1.116 c -2.182,0.91 -2.313,0.928 -3.164,0.223 0.067,-0.075 0.18,-0.204 0.274,-0.311 0.547,-0.626 1.003,-1.105 1.343,-1.473 0.827,-0.858 1.309,-1.235 2.567,-0.192 l 0.231,-0.635 z m -11.284,-6.384 c 0.098,0.175 0.206,0.343 0.304,0.52 0.905,1.645 -0.118,2.339 -0.545,2.574 -0.703,0.387 -1.63,0.456 -2.261,-0.685 -0.255,-0.465 -0.266,-0.754 0.127,-1.02 0.269,-0.196 1.191,-0.719 1.415,-0.844 z m 4.285,-2.263 c 0.21,0.293 0.49,0.681 0.697,1.057 0.823,1.494 -0.542,2.343 -0.843,2.509 -1.858,1.024 -2.674,-0.458 -3.13,-1.286 -0.083,-0.15 -0.154,-0.308 -0.224,-0.466 1.858,-1.023 2.922,-1.496 3.5,-1.814 m -0.5,-2.718 -0.45,0.46 c 0.521,0.974 0.194,1.153 -2.956,2.889 -3.691,2.033 -3.929,2.165 -4.625,1.14 l -0.462,0.499 c 0.154,0.277 0.425,0.652 0.826,1.378 0.401,0.728 0.675,1.346 0.875,1.71 1.128,2.046 2.841,1.413 3.319,1.152 0.715,-0.396 1.36,-1.274 1.112,-2.349 1.061,1.363 2.586,1.161 3.326,0.753 0.791,-0.436 2.299,-1.708 0.827,-4.381"
             style="fill:#3f4f5d;fill-opacity:1;fill-rule:evenodd;stroke:none"
             id="path658"
             inkscape:connector-curvature="0" /></g><g
           id="g660"
           transform="translate(96.2255,36.928)"><path
             d="m 0,0 -0.573,0.296 c 0.138,0.8 -0.399,0.893 -1.66,1.165 -0.311,0.053 -0.647,0.125 -1.072,0.198 -1.863,0.324 -3.147,0.548 -3.971,0.663 -1.334,0.194 -1.552,0.193 -1.823,-0.86 l -0.534,0.275 0.62,3.572 0.53,-0.302 C -8.597,3.77 -8.597,3.77 -5.377,3.211 c 1.2,-0.208 4.273,-0.69 4.853,-0.79 0.119,0.437 0.199,0.645 0.312,1.307 0.204,1.168 0.065,1.874 -1.672,2.175 l -0.048,0.728 2.994,-0.52 z m -3.419,-8.881 -0.474,0.421 c 0.202,0.489 0.297,0.743 -0.45,1.145 -0.582,0.313 -1.712,0.84 -3.69,1.715 -0.97,0.43 -1.669,0.725 -2.16,0.927 -1.112,0.464 -1.199,0.305 -1.56,-0.409 l -0.488,0.455 1.21,2.736 0.471,-0.421 c -0.259,-0.588 -0.136,-0.77 0.917,-1.292 0.74,-0.383 1.835,-0.882 3.225,-1.497 1.298,-0.574 2.107,-0.903 2.601,-1.065 0.66,-0.207 0.85,0.048 1.235,0.667 l 0.467,-0.433 z m -4.084,-7.358 c -1.577,-2.265 -4.196,-2.643 -6.643,-0.939 -2.071,1.442 -3.484,4.124 -1.525,6.94 0.473,0.677 0.821,1.079 1.264,1.588 l 2.132,-1.454 -0.169,-0.793 c -0.752,0.524 -1.574,1.126 -2.487,-0.185 -0.59,-0.848 -0.841,-1.709 -0.73,-2.354 0.053,-0.349 0.936,-1.688 2.031,-2.451 2.211,-1.539 3.938,-1.264 5.309,0.704 0.627,0.9 0.778,1.393 0.988,2.095 l 0.832,-0.862 c -0.246,-0.803 -0.272,-1.241 -1.002,-2.289 m -13.801,-13.495 -0.229,0.585 c 0.688,0.669 0.349,1.205 -1.952,4.134 -2.276,2.897 -2.461,3.133 -3.51,2.528 l -0.212,0.561 1.368,1.076 c 1.959,-0.758 6.332,-2.151 8.416,-2.591 l -1.149,1.484 c -0.185,0.255 -0.486,0.639 -0.734,0.954 -0.477,0.608 -0.887,1.089 -1.208,1.475 -0.641,0.735 -1.473,0.937 -2.647,0.051 l -0.193,0.58 2.962,2.326 0.229,-0.606 c -0.584,-0.694 -0.549,-0.74 2.426,-4.527 0.804,-1.026 1.668,-2.062 2.494,-3.07 l -0.406,-0.738 c -1.325,0.454 -2.637,0.936 -3.975,1.324 l -4.562,1.337 c 0.257,-0.326 0.524,-0.664 0.789,-1.002 l 0.726,-0.923 c 2.257,-2.874 2.483,-3.079 4.093,-2.016 l 0.226,-0.623 z m -8.781,-4.363 c -2.932,-1.074 -3.786,1.146 -4.44,2.89 l -1.098,2.955 c -0.525,1.471 -0.652,1.775 -1.446,1.546 l -0.068,0.631 3.535,1.298 0.015,-0.636 c -1.314,-0.574 -1.412,-0.794 -0.968,-2.157 0.261,-0.821 0.667,-2.044 1.36,-3.928 0.246,-0.672 0.908,-2.476 2.772,-1.791 0.821,0.27 1.288,0.87 1.418,1.191 0.22,0.6 0.254,0.581 -0.951,3.865 -0.483,1.319 -0.802,2.072 -1.053,2.606 -0.426,0.897 -0.76,0.835 -1.447,0.613 l -0.031,0.646 2.664,0.976 0.027,-0.6 c -0.505,-0.308 -0.633,-0.523 -0.223,-1.638 0.395,-1.076 1.41,-3.727 1.75,-4.656 0.557,-1.52 -0.048,-3.162 -1.816,-3.811 m -17.497,3.086 c 0.003,-1.189 0.089,-4.485 3.416,-4.476 0.993,0.002 1.844,0.234 2.396,0.866 0.31,0.345 0.618,0.688 0.614,2.522 -0.01,3.498 -1.701,4.326 -3.417,4.321 -0.942,-0.002 -1.729,-0.176 -2.191,-0.695 -0.475,-0.602 -0.821,-1.335 -0.818,-2.538 m 3.046,-5.781 c -1.458,-0.004 -4.273,0.762 -4.284,5.319 -0.003,1.175 0.459,2.41 1.282,3.315 0.836,0.947 1.865,1.495 3.375,1.499 2.76,0.007 4.235,-1.767 4.244,-4.876 0.008,-3.182 -2.258,-5.251 -4.617,-5.257 m -12.43,1.337 c -2.7,0.566 -4.07,2.831 -3.459,5.749 0.519,2.468 2.436,4.818 5.792,4.113 0.809,-0.169 1.315,-0.334 1.955,-0.542 l -0.504,-2.529 -0.797,-0.155 c 0.19,0.898 0.423,1.888 -1.141,2.216 -1.01,0.212 -1.902,0.107 -2.451,-0.247 -0.302,-0.185 -1.19,-1.522 -1.463,-2.827 -0.553,-2.636 0.374,-4.119 2.721,-4.612 1.074,-0.226 1.585,-0.171 2.315,-0.09 l -0.469,-1.102 c -0.836,-0.089 -1.249,-0.237 -2.499,0.026 m -21.749,9.695 0.472,0.405 c 0.889,-0.619 1.324,-0.083 1.856,0.68 l 1.449,2.082 0.221,3.026 c 0.14,1.667 0.134,2.019 -0.532,2.553 l 0.52,0.408 3.502,-2.44 -0.51,-0.395 c -0.095,0.066 -0.192,0.131 -0.286,0.198 -0.276,0.191 -0.869,0.604 -1.253,0.052 -0.204,-0.293 -0.27,-0.772 -0.345,-1.489 l -0.18,-1.656 c 1.525,0.79 2.866,1.496 3.864,2.32 l 1.616,-0.705 c -1.38,-0.628 -2.511,-1.01 -4.331,-1.908 -0.417,-0.216 -0.837,-0.412 -1.246,-0.616 l -1.548,-2.224 c -0.762,-1.094 -0.55,-1.398 0.329,-2.011 l -0.549,-0.403 z m -9.394,10.044 0.523,0.207 c 0.708,-0.872 1.008,-0.797 2.091,-0.069 0.613,0.4 1.526,1.019 2.789,1.94 0.845,0.617 2.202,1.625 2.712,2.046 -0.86,1.178 -1.31,1.791 -2.728,0.867 l -0.676,0.416 2.256,1.649 4.322,-5.916 -1.956,-1.428 -0.676,0.414 c 1.109,0.813 1.425,1.329 0.488,2.61 -0.091,0.125 -0.186,0.233 -0.288,0.348 -0.842,-0.598 -2.13,-1.507 -2.87,-2.048 -1.25,-0.913 -2.1,-1.596 -2.651,-2.031 -1.123,-0.868 -0.929,-1.255 -0.348,-2.173 l -0.546,-0.175 z m -5.059,9.671 0.629,0.059 c 0.221,-0.482 0.341,-0.724 1.143,-0.452 0.626,0.212 1.784,0.678 3.773,1.53 0.975,0.417 1.669,0.726 2.15,0.947 1.098,0.496 1.039,0.669 0.765,1.421 l 0.666,0.047 1.177,-2.752 -0.63,-0.06 c -0.254,0.594 -0.472,0.627 -1.571,0.212 -0.786,-0.278 -1.898,-0.739 -3.293,-1.337 -1.305,-0.557 -2.099,-0.925 -2.553,-1.175 -0.603,-0.342 -0.546,-0.656 -0.355,-1.358 l -0.634,-0.048 z m -2.546,8.031 c -0.486,2.718 1.1,4.835 4.034,5.361 2.483,0.445 5.38,-0.452 5.985,-3.829 0.144,-0.813 0.181,-1.344 0.229,-2.016 L -88,1.021 -88.442,1.702 c 0.903,0.161 1.909,0.316 1.627,1.89 -0.182,1.015 -0.615,1.804 -1.147,2.179 -0.285,0.211 -1.857,0.533 -3.168,0.297 -2.653,-0.473 -3.681,-1.889 -3.259,-4.251 0.194,-1.079 0.436,-1.534 0.784,-2.178 l -1.198,0.02 c -0.394,0.743 -0.685,1.07 -0.911,2.327"
             style="fill:#3f4f5d;fill-opacity:1;fill-rule:evenodd;stroke:none"
             id="path662"
             inkscape:connector-curvature="0" /></g><g
           id="g664"
           transform="translate(4.4325,56.7024)"><path
             d="M 0,0 C -0.002,0.746 0.601,1.353 1.348,1.354 2.094,1.356 2.699,0.753 2.701,0.007 2.703,-0.74 2.101,-1.347 1.354,-1.349 0.607,-1.351 0.002,-0.747 0,0"
             style="fill:#ffffff;fill-opacity:1;fill-rule:evenodd;stroke:none"
             id="path666"
             inkscape:connector-curvature="0" /></g><g
           id="g668"
           transform="translate(4.4325,56.7024)"><path
             d="M 0,0 C -0.002,0.746 0.601,1.353 1.348,1.354 2.094,1.356 2.699,0.753 2.701,0.007 2.703,-0.74 2.101,-1.347 1.354,-1.349 0.607,-1.351 0.002,-0.747 0,0"
             style="fill:#e41836;fill-opacity:1;fill-rule:nonzero;stroke:none"
             id="path670"
             inkscape:connector-curvature="0" /></g><g
           id="g672"
           transform="translate(4.4325,56.7024)"><path
             d="M 0,0 C -0.002,0.746 0.601,1.353 1.348,1.354 2.094,1.356 2.699,0.753 2.701,0.007 2.703,-0.74 2.101,-1.347 1.354,-1.349 0.607,-1.351 0.002,-0.747 0,0 Z"
             style="fill:none;stroke:#ffffff;stroke-width:0.31799999;stroke-linecap:butt;stroke-linejoin:miter;stroke-miterlimit:3.86400008;stroke-dasharray:none;stroke-opacity:1"
             id="path674"
             inkscape:connector-curvature="0" /></g><g
           id="g676"
           transform="translate(90.4686,56.9124)"><path
             d="M 0,0 C -0.002,0.746 0.603,1.354 1.349,1.355 2.095,1.357 2.7,0.754 2.702,0.008 2.704,-0.738 2.102,-1.345 1.355,-1.347 0.609,-1.349 0.002,-0.745 0,0"
             style="fill:#e41836;fill-opacity:1;fill-rule:evenodd;stroke:none"
             id="path678"
             inkscape:connector-curvature="0" /></g><g
           id="g680"
           transform="translate(90.4686,56.9124)"><path
             d="M 0,0 C -0.002,0.746 0.603,1.354 1.349,1.355 2.095,1.357 2.7,0.754 2.702,0.008 2.704,-0.738 2.102,-1.345 1.355,-1.347 0.609,-1.349 0.002,-0.745 0,0 Z"
             style="fill:none;stroke:#ffffff;stroke-width:0.31799999;stroke-linecap:butt;stroke-linejoin:miter;stroke-miterlimit:3.86400008;stroke-dasharray:none;stroke-opacity:1"
             id="path682"
             inkscape:connector-curvature="0" /></g></g></g></g></svg>