<svg width="500" height="195" xmlns="http://www.w3.org/2000/svg">
  <path d="M175.83 165.41S99.676 121.716 1.405 140.58c0 0 55.87-36.97 124.802-33.903 43.602 1.94 93.947 29.247 93.947 29.247s80.11 45.911 174.445 24.83c0 0-55.906 37.912-124.801 33.903-43.011-2.513-93.966-29.247-93.966-29.247" fill="#8cc83c"/>
  <path d="M498.06 146.64h-7.113v-42.088h7.113zm-13.357-39.335c0 2.143-1.755 3.566-3.825 3.566-2.014 0-3.769-1.478-3.769-3.566 0-2.087 1.755-3.584 3.77-3.584 1.995 0 3.824 1.386 3.824 3.584m-.24 39.334h-7.114v-29.505h7.113zm-13.063-.24c-1.145.37-3.27.96-6.3.96-8.628 0-15.852-5.616-15.852-15.26 0-7.981 5.524-15.667 16.332-15.667 1.626 0 4.675.167 8.074 1.534v6.263c-.979-.776-3.455-2.568-7.28-2.568-5.837 0-9.477 4.415-9.477 10.253 0 5.728 3.695 10.44 10.494 10.44 2.494 0 4.563-.666 7.409-1.553l-3.4 5.598m-54.096-29.21h7.113v5.617l3.88-5.376c2.365-.832 4.914-.942 6.078-.942 8.61 0 10.31 5.357 10.31 11.491v18.66h-7.095v-16.738c0-4.471-.85-8-6.374-8-2.198 0-4.73.776-6.799 2.217v22.521h-7.113v-29.45m-6.43 29.45h-7.112v-5.598l-3.825 5.358c-2.476.832-4.73.96-5.949.96-1.515 0-4.785-.184-7.464-2.456-2.92-2.494-3.03-5.598-3.03-8.148V117.19h7.15v17.108c0 4.23.61 7.63 6.078 7.63 2.365 0 5.1-.887 7.04-2.272V117.19h7.113v29.45m-47.002.72c-9.829 0-14.872-6.744-14.872-15.15 0-8.813 5.708-15.723 15.242-15.723 8.683 0 14.632 5.95 14.632 15.187 0 8.702-5.099 15.686-15.002 15.686m.074-25.866c-2.439.056-4.379 1.072-5.709 3.326-1.349 2.143-1.644 4.656-1.644 7.168 0 2.31.295 5.063 1.7 7.206 1.385 2.143 3.51 3.104 5.708 3.104 5.044 0 7.335-5.007 7.335-10.494 0-5.432-2.05-10.31-7.28-10.31h-.11m-20.23 25.035c-3.696.997-7.52 1.182-9.719 1.182-16.092 0-24.83-9.829-24.83-21.875 0-12.101 8.923-22.355 24.664-22.355 6.245 0 10.439 1.496 11.88 2.032v7.205c-1.682-1.127-5.45-3.454-11.215-3.454-10.143 0-16.83 6.854-16.83 16.092 0 9.367 6.558 16.572 18.031 16.572 5.524 0 10.439-1.663 12.028-2.198l-4.01 6.799M491.76 80.165c-4.342 1.238-8.794 1.792-13.247 1.792-19.806 0-29.838-12.028-29.838-28.618 0-17.035 10.476-29.173 26.494-29.173 3.898 0 7.797.665 11.362 2.346 13.247 6.116 13.358 20.693 13.469 27.38h-37.302c.35 3.567.795 9.46 5.358 13.802 3.787 3.566 9.127 4.785 14.355 4.785 7.464 0 13.469-2.439 15.704-3.325zm-5.118-34.512c-.11-1.996-.332-6.116-3.233-9.238-1.995-2.106-4.785-3.344-8-3.344-6.799 0-11.14 5.358-12.47 12.582h23.703m-46.428 34.955h-13.026V2.014h13.026zM415.4 66.253c0 11.14.204 11.917.887 14.355h-12.692c-.666-2.217-.887-5.007-.887-8.129l-6.245 8.591c-1.995.536-3.566.887-6.688.887-6.559 0-11.011-1.792-14.023-4.342-1.774-1.57-5.34-5.228-5.34-12.249 0-8.24 5.008-13.469 10.809-15.926 4.23-1.884 9.46-2.66 14.466-2.66 2.679 0 4.12.092 7.02.443 0-8.37-1.68-13.598-11.583-13.598-6.134 0-11.584 2.014-16.37 3.898l6.78-11.565c3.123-.684 8.37-1.792 13.488-1.792 4.01 0 10.9.332 15.704 5.117 4.563 4.564 4.563 10.143 4.674 14.818zm-12.693-10.476c-1.237-.092-2.457-.222-3.565-.222-5.118 0-7.464.444-8.795.906-4.674 1.44-6.688 4.896-6.688 8.461 0 3.88 2.347 7.908 9.238 7.908 4.01 0 7.797-1.681 9.81-2.568V55.777m-40.202 24.831H349.37v-9.127l-6.337 9.127c-1.903.573-4.564 1.349-8.351 1.349-18.272 0-25.736-13.709-25.736-27.953 0-15.815 9.921-29.727 26.512-29.727 5.118 0 9.57 1.108 13.912 3.676V2.013h13.136zM349.37 37.524c-4.342-2.772-8.35-3.234-10.79-3.234-2.014 0-5.69.351-9.237 3.123-4.915 3.898-6.578 10.364-6.578 16.701 0 2.458.222 4.896.998 7.243 1.774 6.004 6.577 10.79 14.706 10.79 3.77 0 7.446-.998 10.9-2.661V37.524m-64.682 43.084H271.33V25.607h13.358v9.589l6.337-8.905c2.235-.906 5.58-1.793 10.253-1.793 2.458 0 3.677.333 5.229.776v12.693c-2.9-1.441-6.115-3.104-10.679-3.104-2.568 0-6.799.554-11.14 3.326v42.42m-28.84-.444c-4.342 1.238-8.795 1.792-13.247 1.792-19.806 0-29.838-12.028-29.838-28.618 0-17.035 10.475-29.173 26.494-29.173 3.898 0 7.796.665 11.362 2.346 13.247 6.116 13.358 20.693 13.468 27.38h-37.301c.35 3.567.794 9.46 5.357 13.802 3.77 3.566 9.127 4.785 14.356 4.785 7.464 0 13.468-2.439 15.704-3.325zm-5.118-34.512c-.111-1.996-.333-6.116-3.233-9.238-1.996-2.106-4.786-3.344-8-3.344-6.8 0-11.141 5.358-12.49 12.582h23.723M204.3 80.608h-13.136v-9.127l-6.337 9.127c-1.903.573-4.582 1.349-8.37 1.349-18.253 0-25.717-13.709-25.717-27.953 0-15.815 9.921-29.727 26.512-29.727 5.118 0 9.57 1.108 13.912 3.676V2.013h13.136zm-13.136-43.084c-4.342-2.772-8.35-3.234-10.808-3.234-1.995 0-5.672.351-9.238 3.123-4.896 3.898-6.559 10.364-6.559 16.702 0 2.457.222 4.896.998 7.242 1.774 6.004 6.559 10.79 14.688 10.79 3.788 0 7.464-.998 10.919-2.66V37.523m-48.867 43.084h-13.026V2.014h13.026zm-24.831-14.355c0 11.14.222 11.917.886 14.355h-12.692c-.665-2.217-.887-5.007-.887-8.129l-6.245 8.591c-1.995.536-3.547.887-6.67.887-6.577 0-11.03-1.792-14.022-4.342-1.792-1.57-5.358-5.228-5.358-12.249 0-8.24 5.007-13.469 10.808-15.926 4.23-1.884 9.46-2.66 14.466-2.66 2.68 0 4.12.092 7.021.443 0-8.37-1.681-13.598-11.584-13.598-6.115 0-11.566 2.014-16.37 3.898l6.8-11.565c3.122-.684 8.35-1.792 13.468-1.792 4.01 0 10.92.332 15.704 5.117 4.564 4.564 4.564 10.143 4.675 14.818zm-12.693-10.476c-1.22-.092-2.457-.222-3.566-.222-5.117 0-7.464.444-8.794.906-4.674 1.44-6.688 4.896-6.688 8.461 0 3.88 2.346 7.908 9.256 7.908 4.01 0 7.778-1.681 9.792-2.568V55.777m-41.422 24.61c-6.78 1.902-13.8 2.235-17.81 2.235C16.037 82.622 0 64.257 0 41.754 0 19.16 16.37 0 45.21 0c11.473 0 19.14 2.79 21.819 3.787v13.469c-3.123-2.106-10.014-6.448-20.6-6.448-18.587 0-30.836 12.804-30.836 30.06 0 17.477 12.028 30.946 33.071 30.946 10.125 0 19.14-3.122 22.041-4.12l-7.353 12.693" fill="#333"/>
</svg>