<svg enable-background="new 0 0 522.2 643.5" height="351.058667" viewBox="0 0 522.2 643.5" width="284.852674" xmlns="http://www.w3.org/2000/svg"><path d="m522.2 411.8h-519.9m519.1-38.4h-519.9m519.9 5h-519.9m520.7 4.9h-519.9m519.1 4.5h-519.9m520.7 4.6h-519.9m519.9 4.9h-519.9m519.1 5h-519.9m520.7 4.5h-519.9m519.1 9.9h-519.9m519.9 4.6h-519.9m520.7 4.9h-519.9m519.1 5h-519.9m519.9 4.3h-519.9" fill="none" stroke="#0477a5" stroke-miterlimit="2.613" stroke-width="2.611"/><path clip-rule="evenodd" d="m235.5 449.1c18.5-.3 37.3-2.1 55.9-5.7.3 0 .3-.2 0-.6-15.2.5-30.8.3-46.4-2.9-26.9-6.2-48.8-17.9-64.7-37.5-11.3-14.5-22.4-35.5-21.6-55.8l-80.1.3c-.5 4.6.9 10.2 1.9 15 5.6 17.7 14.5 28.9 26.2 41.3 20.9 20.2 39.9 30 68.4 38.4 20.6 4.9 40.6 6.5 60.4 7.5" fill="#0177a4" fill-rule="evenodd"/><path d="m352.9 374.2h30.6" fill="none" stroke="#0477a5" stroke-miterlimit="2.613" stroke-width="4.1745"/><path d="m341.3 387.8h74.3m-63.9-4.9h69.4m-18.1-4.5h34.4m-92.6 0h52.3m-9.6-4.2h36.7" fill="none" stroke="#0477a5" stroke-miterlimit="2.613" stroke-width="4.1745"/><path d="m378 392.4h7.8" fill="none" stroke="#0477a5" stroke-miterlimit="2.613" stroke-width="4.2266"/><path d="m390.2 392.4h27.4" fill="none" stroke="#0477a5" stroke-miterlimit="2.613" stroke-width="4.2006"/><path d="m420.9 392.4h4.7" fill="none" stroke="#0477a5" stroke-miterlimit="2.613" stroke-width="4.1902"/><path d="m339.9 397.3h63.8" fill="none" stroke="#0477a5" stroke-miterlimit="2.613" stroke-width="4.1745"/><path d="m320.1 406.8h47.8m9.3-4.9h32.9m-79.7 0h42.5" fill="none" stroke="#0477a5" stroke-miterlimit="2.613" stroke-width="4.1745"/><path d="m371.9 406.8h27.5" fill="none" stroke="#0477a5" stroke-miterlimit="2.613" stroke-width="4.2214"/><path d="m311 416.3h45.1m-32.1-4.5h56.6" fill="none" stroke="#0477a5" stroke-miterlimit="2.613" stroke-width="4.1745"/><path d="m360.5 416.3h11.5" fill="none" stroke="#0477a5" stroke-miterlimit="2.613" stroke-width="4.2214"/><path d="m376.8 416.3h13.3" fill="none" stroke="#0477a5" stroke-miterlimit="2.613" stroke-width="4.1745"/><path d="m393.5 416.3h4.7" fill="none" stroke="#0477a5" stroke-miterlimit="2.613" stroke-width="4.2006"/><path d="m304.4 420.6h66.9" fill="none" stroke="#0477a5" stroke-miterlimit="2.613" stroke-width="4.1745"/><path d="m290.8 425.6h17.6" fill="#006f9e" stroke="#0477a5" stroke-miterlimit="10"/><path d="m290.8 425.6h17.6" fill="none" stroke="#0477a5" stroke-miterlimit="2.613" stroke-width="4.2006"/><path d="m261.5 430.5h36.9m13.2-4.9h52.4" fill="none" stroke="#0477a5" stroke-miterlimit="2.613" stroke-width="4.1745"/><path d="m250.4 430.5h6.9" fill="none" stroke="#0477a5" stroke-miterlimit="2.613" stroke-width="4.2214"/><path d="m277.4 435.5h35.9m-10.3-5h33.7" fill="none" stroke="#0477a5" stroke-miterlimit="2.613" stroke-width="4.1745"/><path d="m290.8 425.6h17.6" fill="none" stroke="#0477a5" stroke-miterlimit="2.613" stroke-width="4.2006"/><g clip-rule="evenodd" fill-rule="evenodd"><path d="m289.4 78.1h.7c1.2.9 1.2 3.1 3.2 3.8 1.7-1.2 4 0 5.5.7 3 2.4 2.8 6.2 2.8 9.4.2 1.7 2.2 1 3.5 1.2 1.8.9 2.5 2.9 3.5 5.1.5.9 2 .3 3 .7 1.8-.7 1.7-3.6 3.8-4.1h2.3c2.2.3 2.2 3.4 4.5 4.1 3.2 0 5 2.4 6.7 5 .2 3.6-.5 7.5-2.8 10.3.5 2.7.5 5.6-1.3 7.5l-4.2 2.2-5.4 8.6c-.2.9.7 1.5 1.3 2.1l3.4-2.1c6.5 0 9.5-9.1 16.7-7 2 1 2.8 2.9 4.7 3.6 2.7-2.1 7.5-3.6 11.5-1.4 2.2 1.7 2.8 5.1 1.7 8.2l3.8 4.6c2 .2 4.5.7 5.2 2.7 1.7 2.4.5 4.8 0 7 2.9 2.6 7 4.8 7.2 10.1 0 3.4-.7 7-2.3 9.1.3 1.5 1.8 1.5 2.9 2.4 2 2.6.7 7.4-.7 10.3-2.2 3.1-6.4 3.1-8.7 4.4 0 .5 0 .7.5 1l8.9 1.4c3.5-2.4 7.3-4.4 12.2-3.2 1.7.8 3.8 2.6 4.5 4.4l.7 5.6c.7 2.2 3.7 0 5.5 1.5 1.8.7 3 3.3 2.8 5.8v2.2l6 2.1 2.8 6c-.3 1.9-2.3 3.1-1.7 5.3.2 0 1 .5 1.7.5.8.2 1.8 1 2.3 2.2l-.5 4.6c.5.7.8 1.2 2 1.4 2.2 1.9 2.2 5.6.5 8.9-1.3 3.9-7.9 3.8-11.5 4.5-1.7 2.2-10.9 14.7-14.2 13-27.6-13.9-42.8-25.5-96.8-38.8v-88.1l-3.3-2.6v-46l4.8-.3z" fill="#65b448"/><path d="m254.6 81.3.2 42.9-2.2 2.9v8.7l-4.7-2.4v-12l-7.4-6-6.9 4.1v6.8l-4.5-2.2v-13l-7-4.6-2.3 1c-1-.9.5-4.5 1.7-4.8-2-.7-1.8-5 .2-7.5 1.2-1.2 3.2-2.2 4.3-2.2 3.3-.9 6.7.3 8.5 2.4l2.3-1.9c.3.3 3.7 1.2 2.2-.5.5-2.9 2.2-5.5 5.9-4.6 5.2.9 1.5-.3 3.8-3.9 4.7-3.9 2.7-1.8 5.9-3.2" fill="#65b448"/><path d="m45.8 539.7c-3 2.1-6.2 3.1-9.7 3.3-7.1-.2-13.4-5.5-12.8-17.2.6-11.1 6.6-15.4 12.6-15.4 3.9 0 7.5 1.5 9.9 3.9v-17.5c-3.7-1-7.4-1.5-11.3-1.5-16.8 0-31.9 10.6-31.9 31.8 0 21.7 15.8 30.9 30.6 30.9 4.6 0 8.9-.8 12.6-2.3z" fill="#65b448"/><path d="m110.9 557.2-15.9-60.8h-24.6l-17.9 60.8h20.9l1.5-7.9h13.8l1.4 7.9zm-33.3-20.8 4.7-25.5h.2l3.7 25.5z" fill="#65b448"/><path d="m191.8 557.2-7.2-60.8h-25l-6.7 32.2h-.2l-5.8-32.2h-25l-8.8 60.8h21.6l2-38.3h.2l7.1 38.3h16.4l8.3-38.3h.2l2 38.3z" fill="#65b448"/><path d="m199.1 557.2h27c10.8 0 23.5-4.1 23.5-17.5 0-6.9-4.5-13.1-15-13.7v-.2c8.3 0 14.2-4.8 13.8-13.2-.2-6.1-4.5-16.2-25.3-16.2h-23.9v60.8zm20.1-24.8c5.1-.2 10 1.6 10 6.3 0 3.2-3.3 5.7-10 5.2zm0-12.4v-10.6c4.5-.2 9.2 1.3 9.2 5.4 0 3.2-3.1 5.4-9.2 5.2" fill="#65b448"/><path d="m259.4 557.2h20.1v-25.1l11.2 25.1h21.9l-15.1-25.3c8.3-2.6 12-8.7 11.7-16.4-.4-12.2-8.3-19-30.2-19h-19.5v60.7zm20.1-32.8v-15c5.7-.3 9.4 2.8 9.4 7.4-.1 4.5-3.3 8.1-9.4 7.6" fill="#65b448"/><path d="m319.1 496.4h20.1v60.8h-20.1z" fill="#65b448"/><path d="m351.2 557.2h19.1c16.4 0 33.2-7.2 32.5-31.8-.6-17.9-12.6-28.9-35.1-28.9h-16.4v60.7zm20.1-14.9v-30.8c7.3-.5 11 7.3 11 15.6-.1 8.1-3.9 16-11 15.2" fill="#65b448"/><path d="m437.8 534.8h7.6c.1 5.6-3.4 8.6-7.2 8.8-3.1-.2-6.1-2.3-6.7-6.6-.4-3.5-.8-7.2-1-10.5.2-6 1.2-11 2.7-13.2 1.8-2.5 3.8-3.5 5.6-3.5 3.7 0 6.2 3.6 6.2 6.4l19.5-6c-4.1-9.3-14.8-15.2-26.1-15.2-14.2 0-28.4 9.5-28.4 32.3 0 21.5 13.4 31.4 31 30.7 16.2-.6 25.8-10.7 25.1-36.1h-28.3z" fill="#65b448"/><path d="m475.2 557.2h37.4v-14.4h-17.3v-9.3h15.7v-14.3h-15.7v-8.5h17.3v-14.5h-37.4z" fill="#65b448"/><path d="m135 4.8c.9.3 2.4.9 3.3 1.4 0 .2 0 .7.3 1.2-2.2 2.7-2.2 6.8-.9 10.4.7.3 1 .9 1.7 1.2 2.4 4.8 2.7 4.8 3.6 15.7-7 0-14.4-.2-21.4 0-.3-5.8 1.4-10.4 3.3-15.1.2-.3 1.7-1.4 2.2-1.9 1-4.6 2.4-5.6-.3-9.9 0-.5 0-1.2.3-1.7.2-.7 3.1-.9 3.8-1.7.5-1.5.9-3.1 1.2-4.5 3.6.6-1 2 2.9 4.9" fill="#bcbdbf"/><path d="m142.3 36.3v16.1l1.5-8.4 1.7 7.5v40.2h-27.4v-40.1l1.7-8.7c-1.2-4.3 1.9 9.2 1.9 9.2v-15.4c7.2 0 13.4-.4 20.6-.4" fill="#bcbdbf"/><path d="m250.8 155v-19.5l-2.4-1.6v-11.8l-7.4-5.8-7.2 4.3v6.6l-4.6-2.2v-13l-7.2-4.6-7.5 3.4v8.2l-5.7-1.5v-16.8l-8-4.1-7.7 4.3v16.4l-5.6 1.6v-8.3l-7.6-3.4-7.2 4.6v13l-4.6 2.3v-6.7l-7.2-4.3-7.3 6-.2 8.9-1.9 1.7v10.1 12l49.3-18.3z" fill="#bcbdbf"/><path d="m201 141 50 18v52.4c-2.7-7.9-6.5-18.5-12.5-23.9-9.4-8.6-21.6-16.7-37.6-21.8-16.1 4.6-28.1 11.7-37.1 21.1-5.3 5.8-9.9 12-12 20.6v-49z" fill="#bcbdbf"/><path d="m201.3 175.1c16.6 7.3 33.9 17 39.5 36.2l5.1.2c-1.7-6.8-6.2-15-9.4-18.9-10.3-10.5-22.8-18.4-35.2-22.4-12.7 3.9-24.6 10.3-35.2 21.7-4.1 2.8-11.8 17.7-11.5 26.9l5-1.2c.8-21.8 24.8-36.5 41.7-42.5" fill="#bcbdbf"/><path d="m117.6 93.7h28.1v31.5h-28.1z" fill="#bcbdbf"/><path d="m272 4.8c.9.3 2.4.9 3.3 1.4 0 .2 0 .7.3 1.2-2.2 2.7-2.2 6.8-.9 10.4.7.3 1 .9 1.7 1.2 2.4 4.8 2.7 4.8 3.6 15.7-7 0-14.4-.2-21.4 0-.3-5.8 1.4-10.4 3.2-15.1.2-.3 1.7-1.4 2.2-1.9 1-4.6 2.4-5.6-.3-9.9 0-.5 0-1.2.3-1.7.2-.7 3.1-.9 3.8-1.7.5-1.5.9-3.1 1.2-4.5 3.7.6-.9 2 3 4.9" fill="#bcbdbf"/><path d="m278.9 36.7.3 15.7 1.5-8.4 1.7 7.5v40.2h-27.4v-40.1l1.7-8.7c-1.2-4.3 1.9 9.2 1.9 9.2v-15.4z" fill="#bcbdbf"/><path d="m255.3 93.7h27v31.5h-27z" fill="#bcbdbf"/><path d="m199.4 97.3v-6.2h.7-4.4v-2.5h3.5v-3.3h1.4 1.6v3.3h3.5v2.5h-4.4.7v6.2z" fill="#bcbdbf"/><path d="m115.1 128h34v48.4h-34z" fill="#bcbdbf"/><path d="m253.1 127.6h33v48.9h-33z" fill="#bcbdbf"/><path d="m115.1 179.3h34v40.2c-10.9 2.5-22.2 5.4-34 10.6z" fill="#bcbdbf"/><path d="m286.3 178.9h-32.9v31.8c10.6.9 21.1 1.6 32.5 4.7z" fill="#bcbdbf"/><path d="m197.2 184c1.4-4.3 6.4-4.8 7.5-.2v27.7c-2.6 0-4 0-7.5.8z" fill="#bcbdbf"/><path d="m186.9 189.1c1.4-4.5 6.4-5 7.5-.2l.3 23.5c-2.5.5-4.5.2-7.8.8z" fill="#bcbdbf"/><path d="m215.1 189.1c-1.4-4.5-6.4-5-7.5-.2l-.3 22.7c2.5-.5 4.3-.2 7.8 0z" fill="#bcbdbf"/><path d="m175.9 195.8c1.4-4.3 6.4-4.8 7.5-.2l.3 17.3c-2.6 0-4.6.5-7.8 1.1z" fill="#bcbdbf"/><path d="m225.6 196.6c-1.4-4.3-6.4-4.8-7.5-.2l.3 15.4c2.9-.2 4.2-.3 7.2-.3z" fill="#bcbdbf"/><path d="m165.2 207.5c1.4-4.3 6.4-4.8 7.5-.2v7.5c-2.7.3-4.3.8-7.5 1.4z" fill="#bcbdbf"/><path d="m236.4 207.5c-1.4-4.3-6.4-4.8-7.5-.2l.3 4c5.1 0 4.3-.2 7.1-.3z" fill="#bcbdbf"/><path d="m234.5 224.5c18.5.3 37.3 2.2 55.9 6.2.3 0 .3.2 0 .7-15.2-.5-30.8-.3-46.4 3.1-26.9 6.7-48.8 19.2-64.7 40.2-11.3 15.6-21.6 37.6-20.7 59.4l-81.8-.3c-.5-5 1.7-10.4 2.7-15.6 5.6-19 14.5-31 26.2-44.3 20.9-21.7 39.9-32.2 68.4-41.2 20.5-5.5 40.6-7.2 60.4-8.2" fill="#010202"/><path d="m261.1 240.6c15.9.3 31.3.7 47.2 3.4 23.8 4.8 48.2 13.9 65 25.7 18 12.7 34.6 30.5 42.6 49.4h-65.9c-7.9-28.9-25.7-49.6-49.6-63.6-11.8-6.7-26.7-10.4-40.2-14-.1-.6.6-.9.9-.9" fill="#808285"/><path d="m1.1 600.7c.1 8.2 2.4 14.6 5.9 18.9 3.4 3.9 7.8 6.1 12.1 6.1 7.7 0 13.7-6.3 16.8-14.7l-1.2-1c-3.4 7.5-7.8 11.4-12.8 11.4-9.4.4-14-12.7-14.1-22.6-.3-11.7 2.8-21 8.8-23.2.9-.3 1.9-.4 3-.4 4.1 0 8.6 2.9 14.2 11.4l1.5-.9-3.8-12.9c-1.5 1.1-2.9 1.3-4.1 1.5-2.6-.1-4.3-1.9-8-2.2-10-.6-18.3 15.3-18.3 28.6" fill="#010202"/><path d="m56.9 613.2v-28.2c0-7.7.7-9.7 5.3-9.7v-2.4h-16.2v2.4c4.4 0 5.4 1.9 5.4 9.7l-.1 28.1c0 8.2-.8 9.6-5.2 9.6v2.3h16.2v-2.3c-4.4 0-5.4-1.6-5.4-9.5" fill="#010202"/><path d="m91.1 583.2c0-.9 0-1.8-.1-2.8.1-2.9.5-5.1 3.2-5.1 5.7 0 10.4 5.1 13.1 11.5l1.5-.7-4-13.2h-3.8-29.1l-4 13.2 1.4.7c2.8-6.3 7.2-11.5 13-11.5 2.7 0 3.1 2.1 3.1 4.8v3.1 29.7c0 7.9-.6 9.7-5.9 9.7v2.4h17.6v-2.4c-5.5 0-6-1.9-6-9.7z" fill="#010202"/><path d="m128.8 605v8.6c0 4.6 0 9.5-5.5 9v2.4h16.5v-2.4c-4 .1-5.5-1.4-5.5-8.3v-11.8l9.4-21.5c2-4.6 4-6 6.9-5.7v-2.3h-14.1v2.3h1c2.5 0 3.6.9 3.6 3.1 0 1.1-.3 2.3-.9 3.8l-7.5 17.6-8.6-18.6c-.7-1.6-1.1-2.8-1.2-3.6.1-2.1 1.8-2.4 5-2.2v-2.3h-16.6v2.3c2.3 0 4.2.7 6.7 6.3z" fill="#010202"/><path d="m215.4 600.7c.1 8.2 2.4 14.6 5.9 18.9 3.4 3.9 7.8 6.1 12.1 6.1 7.7 0 13.7-6.3 16.8-14.7l-1.2-1c-3.4 7.5-7.8 11.4-12.8 11.4-9.4.4-14-12.7-14.1-22.6-.3-11.7 2.8-21 8.8-23.2.9-.3 1.9-.4 3-.4 4.1 0 8.6 2.9 14.2 11.4l1.5-.9-3.8-12.9c-1.5 1.1-2.9 1.3-4.1 1.5-2.6-.1-4.3-1.9-8-2.2-10-.6-18.3 15.3-18.3 28.6" fill="#010202"/><path d="m280.1 625.7c11.4-.4 18.1-12.4 18.1-26.8s-7.3-27.1-18.4-26.8-18.5 12.1-18.5 26.8c0 14.9 7.3 27.4 18.8 26.8m-.1-2.2c-8.6.2-12.1-12.1-12.2-24.6-.1-9.5 2.1-24.5 12.1-24.5 8.2 0 11.9 12.4 11.8 24.5-.2 12.4-3.1 24.2-11.7 24.6" fill="#010202"/><path d="m341.5 605.2c0 8.6-1 17.8-10.5 17.8-9 0-10.4-8.3-10.4-17.8v-20.2c0-7.7.6-9.5 5.5-9.7v-2.4h-16.2v2.4c4.4 0 5 1.5 5 9.7v23.9c0 11.3 5.8 17 14.4 17 10.1 0 14.8-6.3 14.8-18.5v-22.4c0-7.7.5-9.8 5.2-9.7v-2.4h-13v2.4c4.4-.1 5.1 1.9 5.1 9.7v20.2z" fill="#010202"/><path d="m368.5 572.9h-9.9v2.4c4.5 0 5.3 2.1 5.3 9.7v27.9c0 7.5-.8 9.7-5.3 9.7v2.4h13.2v-2.4h.1c-4.7 0-5.4-2.1-5.4-9.7v-31.2l24.6 43.3h1.9v-40c0-7.6.7-9.7 5.3-9.7v-2.4h-13.2v2.4c4.5 0 5.2 2.1 5.2 9.7v26.7z" fill="#010202"/><path d="m409.3 600.7c.1 8.2 2.4 14.6 5.9 18.9 3.4 3.9 7.8 6.1 12.1 6.1 7.7 0 13.7-6.3 16.8-14.7l-1.2-1c-3.4 7.5-7.8 11.4-12.8 11.4-9.4.4-14-12.7-14.1-22.6-.3-11.7 2.8-21 8.8-23.2.9-.3 1.9-.4 3-.4 4.1 0 8.6 2.9 14.2 11.4l1.5-.9-3.8-12.9c-1.5 1.1-2.9 1.3-4.1 1.5-2.6-.1-4.3-1.9-8-2.2-10-.6-18.3 15.3-18.3 28.6" fill="#010202"/><path d="m465.1 613.2v-28.2c0-7.7.7-9.7 5.3-9.7v-2.4h-16.2v2.4c4.4 0 5.4 1.9 5.4 9.7l-.1 28.1c0 8.2-.8 9.6-5.2 9.6v2.3h16.2v-2.3c-4.4 0-5.4-1.6-5.4-9.5" fill="#010202"/><path d="m512.1 611.1c-3.7 7.9-7.1 11.7-14.7 11.5-5.9-.1-6.1-2.1-6.1-8.3v-29.3c0-7.7.5-9.7 5.4-9.7v-2.4h-16.6v2.4c4.9-.1 5.5 1.9 5.5 9.7v28c0 8-.8 9.7-5.5 9.7v2.4h29.6l3.9-13.1z" fill="#010202"/></g><path d="m0 642.1h518.9" fill="none" stroke="#010202" stroke-miterlimit="2.613" stroke-width="2.7882"/></svg>