<svg height="172.626765" viewBox="0 0 1000.3176 297.92172" width="579.284446" xmlns="http://www.w3.org/2000/svg" xmlns:xlink="http://www.w3.org/1999/xlink"><clipPath id="a"><path d="m88.662 32.01h128.396v47.022h-128.396z"/></clipPath><g clip-path="url(#a)" transform="matrix(7.93922125 0 0 -7.93922125 -723.4482125 627.952575)"><g fill="#04517d"><path d="m0 0-.304-.018c-.221.595-.683.892-1.386.892-.459 0-.85-.179-1.171-.536-.322-.358-.483-.796-.483-1.314 0-.566.185-1.064.554-1.493.352-.411.739-.616 1.163-.616.673 0 1.141.169 1.404.508l.169-.259c-.196-.244-.389-.41-.579-.499-.25-.125-.595-.187-1.035-.187-.648 0-1.216.235-1.703.705-.505.483-.758 1.069-.758 1.76 0 .614.247 1.16.74 1.64.494.479 1.055.719 1.686.719.362 0 .773-.09 1.23-.27.143-.053.28-.065.411-.035l.062-.036z" fill-rule="evenodd" transform="translate(139.1567 46.3345)"/><path d="m0 0c-.042-.737-.062-1.459-.062-2.167 0-.594.02-1.314.062-2.158l-.062-.16h-.732l-.071.16.045.954c.017.309.026.711.026 1.204 0 .47-.024 1.192-.071 2.167l.071.152h.732z" fill-rule="evenodd" transform="translate(144.0912 47.3867)"/><path d="m0 0-1.195.027c-.155 0-.41-.006-.767-.018-.036-.612-.053-1.257-.053-1.935 0-.612.02-1.35.062-2.212l-.045-.107h-.784l-.045.107.045.946c.011.333.017.755.017 1.266 0 .499-.006.909-.02 1.23l-.042.714c-.343.006-.589.009-.737.009-.142 0-.535-.009-1.18-.027.017.19.044.321.08.392h.053 1.24.504.495.553.553 1.132.063c.029-.071.053-.202.071-.392" fill-rule="evenodd" transform="translate(152.5054 47.1459)"/><path d="m0 0c-.113-.166-.288-.416-.526-.749-.256-.381-.639-.933-1.151-1.659v-.142c.006-.244.03-.883.072-1.918l-.045-.107h-.794l-.044.107c.041 1.011.062 1.65.062 1.918v.214c-.38.547-.776 1.091-1.186 1.632-.107.16-.27.395-.49.704l.035.062h.758l.098-.062c.09-.149.22-.369.393-.66.321-.582.63-1.094.927-1.534.197.268.494.764.892 1.49l.393.704.098.062h.472z" fill-rule="evenodd" transform="translate(159.9962 47.4758)"/><path d="m0 0-.304-.018c-.221.595-.683.892-1.386.892-.459 0-.85-.179-1.171-.536-.322-.358-.483-.796-.483-1.314 0-.566.185-1.064.554-1.493.352-.411.739-.616 1.163-.616.673 0 1.141.169 1.404.508l.17-.259c-.197-.244-.39-.41-.58-.499-.25-.125-.595-.187-1.035-.187-.648 0-1.215.235-1.703.705-.505.483-.758 1.069-.758 1.76 0 .614.247 1.16.74 1.64.494.479 1.055.719 1.686.719.362 0 .773-.09 1.23-.27.143-.053.28-.065.411-.035l.062-.036z" fill-rule="evenodd" transform="translate(173.646 46.3345)"/><path d="m0 0c0-.648-.266-1.222-.798-1.721s-1.122-.749-1.77-.749c-.678 0-1.274.247-1.789.74-.514.493-.771 1.07-.771 1.73 0 .654.266 1.235.798 1.743.532.509 1.119.763 1.762.763.665 0 1.26-.253 1.783-.758.523-.506.785-1.088.785-1.748m-.785 0c-.024.571-.225 1.066-.605 1.485-.379.419-.797.628-1.254.628-.492 0-.906-.208-1.241-.624s-.488-.912-.458-1.489c.024-.571.225-1.066.605-1.485.379-.419.797-.628 1.254-.628.481 0 .89.208 1.228.624s.495.912.471 1.489" fill-rule="evenodd" transform="translate(182.3173 45.2287)"/><path d="m0 0c-.053-.297-.08-1.037-.08-2.22v-.839c-.024-.285-.149-.585-.375-.9-.297-.422-.698-.642-1.204-.66-.469-.018-.829.021-1.079.116-.327.119-.56.273-.7.464-.14.19-.233.523-.281.998-.006.078-.009.351-.009.821 0 1.2-.026 1.941-.08 2.22l.045.098h.758l.044-.098-.044-.954c-.018-.327-.027-.749-.027-1.266 0-.333.009-.565.027-.696.023-.244.059-.434.107-.571.166-.487.567-.731 1.204-.731.208 0 .425.08.651.241.178.131.318.303.419.517.071.155.119.366.142.633.006.06.009.262.009.607 0 .517-.006.939-.018 1.266l-.044.954.044.098h.446z" fill-rule="evenodd" transform="translate(189.6917 47.4402)"/><path d="m0 0-.045-.107h-.9l-.116.107c-.089.155-.191.303-.303.446-.167.208-.277.351-.33.428-.256.38-.651.948-1.187 1.703-.089.125-.225.309-.41.553-.041-.315-.062-.621-.062-.918 0-.613.021-1.35.062-2.212l-.044-.107h-.437l-.045.107.045.945c.012.333.017.755.017 1.267 0 .154-.01.478-.031.971-.021.494-.031.806-.031.937v.312l.045.098h.515c.208-.351.451-.728.73-1.133.273-.422.685-1.031 1.236-1.828.338-.451.602-.811.792-1.079l.009.33c.017.363.026.827.026 1.392 0 .517-.009.939-.026 1.266l-.045.954.045.098h.445l.045-.098c-.048-.749-.071-1.489-.071-2.22 0-.613.023-1.35.071-2.212" fill-rule="evenodd" transform="translate(197.4168 43.0083)"/><path d="m0 0-.304-.018c-.221.595-.683.892-1.386.892-.459 0-.85-.179-1.171-.536-.322-.358-.483-.796-.483-1.314 0-.566.185-1.064.554-1.493.352-.411.739-.616 1.163-.616.673 0 1.141.169 1.404.508l.17-.259c-.197-.244-.39-.41-.58-.499-.25-.125-.595-.187-1.035-.187-.648 0-1.215.235-1.703.705-.505.483-.758 1.069-.758 1.76 0 .614.247 1.16.74 1.64.494.479 1.055.719 1.686.719.362 0 .773-.09 1.23-.27.143-.053.28-.065.411-.035l.062-.036z" fill-rule="evenodd" transform="translate(205.1783 46.3345)"/><path d="m0 0c-.042-.737-.062-1.459-.062-2.167 0-.594.02-1.314.062-2.158l-.062-.16h-.732l-.071.16.045.954c.017.309.026.711.026 1.204 0 .47-.023 1.192-.071 2.167l.071.152h.732z" fill-rule="evenodd" transform="translate(210.1129 47.3867)"/><path d="m0 0c.006-.083-.004-.199-.031-.348-.027-.148-.058-.252-.094-.312-.273.03-1.115.045-2.524.045h-.365l-.045.107.036.945c.018.333.027.755.027 1.266 0 .517-.009.939-.027 1.266l-.036.955.045.098h.776l.044-.098c-.047-.749-.071-1.49-.071-2.221 0-.565.021-1.221.062-1.971.785-.029 1.362-.011 1.73.054.208.036.366.107.473.214" fill-rule="evenodd" transform="translate(217.0556 43.5166)"/><path d="m0 0-.117-.754-11.891-5.499c.176-.405.541-1.052 1.095-1.939 1.007-1.621 2.555-2.432 4.645-2.432 2.442 0 4.493 1.071 6.155 3.212.252-.479.239-1.197-.038-2.154-2.317-1.99-4.571-2.985-6.762-2.985-2.67 0-4.836.825-6.498 2.475s-2.493 3.734-2.493 6.253c0 2.468.78 4.509 2.342 6.121 1.662 1.712 3.727 2.569 6.195 2.569 2.217 0 4.03-.704 5.44-2.113.328-.352.97-1.27 1.927-2.754m-3.249-1.178c-.201 1.007-.579 1.939-1.133 2.796-.831 1.309-2.116 1.964-3.853 1.964-1.562 0-2.695-.692-3.4-2.078-.605-1.234-.92-2.859-.945-4.874 0-.68.063-1.284.189-1.813z" fill-rule="evenodd" transform="translate(166.1913 63.6673)"/><path d="m0 0-.117-.754-11.891-5.499c.176-.405.541-1.052 1.095-1.939 1.007-1.621 2.555-2.432 4.645-2.432 2.442 0 4.493 1.071 6.155 3.212.252-.479.239-1.197-.038-2.154-2.317-1.99-4.571-2.985-6.762-2.985-2.67 0-4.836.825-6.498 2.475s-2.493 3.734-2.493 6.253c0 2.468.78 4.509 2.342 6.121 1.662 1.712 3.727 2.569 6.195 2.569 2.217 0 4.03-.704 5.44-2.113.328-.352.97-1.27 1.927-2.754m-3.249-1.178c-.201 1.007-.579 1.939-1.133 2.796-.831 1.309-2.116 1.964-3.853 1.964-1.562 0-2.695-.692-3.4-2.078-.605-1.234-.92-2.859-.945-4.874 0-.68.063-1.284.189-1.813z" fill-rule="evenodd" transform="translate(183.1951 63.6673)"/><path d="m0 0c0-3.375.088-7.09.264-11.146 2.343-.101 3.892-.151 4.647-.151 2.065 0 3.614.189 4.647.567.73.277 1.309.768 1.737 1.473l.454-.151c.025-.327-.088-.888-.34-1.681-.252-.794-.479-1.379-.68-1.757-1.436.151-5.679.227-12.731.227h-1.322l-.227.566.252 5.177c.084 1.788.126 4.08.126 6.876 0 1.864-.19 4.941-.19 4.941l-.119 2.029.227.567h3.399l.227-.567c-.033-.663-.063-1.324-.091-1.984 0 0-.28-3.334-.28-4.986" transform="translate(138.5284 63.9072)"/><path d="m0 0-.224-.528h-2.98l-.264.528v1.659c-1.25-1.558-2.9-2.338-4.949-2.338-2.425 0-4.493.849-6.205 2.545-1.713 1.697-2.569 3.751-2.569 6.164 0 2.387.859 4.429 2.576 6.126 1.717 1.696 3.791 2.545 6.222 2.545 2.131 0 3.86-.679 5.189-2.036 0 3.016-.088 2.636-.264 7.135l.264.528h2.98l.224-.528c-.226-3.795-.339-4.295-.339-9.774 0-3.619.113-7.628.339-12.026m-3.204 10.329c-.702 3.393-2.718 5.09-6.048 5.09-1.302 0-2.379-.578-3.231-1.734-.851-1.156-1.277-2.639-1.277-4.449 0-.427.038-.867.113-1.319.251-2.162.911-3.952 1.979-5.372s2.331-2.13 3.789-2.13c1.005 0 1.935.308 2.79.923.854.616 1.445 1.464 1.771 2.545.057 1.609.095 3.757.114 6.446" fill-rule="evenodd" transform="translate(201.7867 51.7478)"/><path d="m0 0c0-1.688-.684-3.035-2.052-4.043-1.241-.957-2.735-1.435-4.482-1.435-1.748 0-3.268.365-4.56 1.095-.404.151-1.19.454-2.355.907 0 1.537.127 2.657.38 3.363.99-1.562 1.839-2.557 2.549-2.985 1.344-.806 2.663-1.209 3.957-1.209.913 0 1.788.302 2.624.907.939.654 1.408 1.41 1.408 2.267 0 1.007-.416 1.826-1.247 2.455-.579.479-1.637.895-3.173 1.247-1.839.454-3.06.819-3.664 1.096-1.285.579-2.129 1.448-2.532 2.607-.201.579-.302 1.159-.302 1.738 0 .781.315 1.574.945 2.38.554.731 1.335 1.26 2.342 1.587.755.227 1.851.34 3.287.34.68 0 1.851-.176 3.513-.529.932-.201 1.863-.39 2.795-.567.076-1.813.013-3.211-.189-4.193-1.032 1.536-1.926 2.543-2.682 3.022-1.058.705-2.279 1.058-3.664 1.058-.957 0-1.662-.126-2.116-.378-1.083-.604-1.624-1.347-1.624-2.229 0-.73.403-1.335 1.209-1.814.73-.453 1.908-.9 3.532-1.341s2.714-.8 3.268-1.077c1.889-1.007 2.833-2.43 2.833-4.269" fill-rule="evenodd" transform="translate(216.9942 56.4061)"/></g><path d="m0 0c.146.263-.157.42-.32.262-.38-.913-.673-1.354-1.64-2.375-.009-.035-.601-.569.114-.098.738.539 1.568 1.424 1.846 2.211m.932 2.84c-.049.297-.22.34-.39.147l-.308-.897c.165.093.403.176.496-.022zm-1.372 2.72c-.135.256-.307.223-.407-.031l.042-.801c.125.159.261.166.407.022zm1.553-.005c-.12.262-.294.238-.407-.011v-.801c.133.151.269.151.407 0zm-2.55 2.205c-.501.269-.446-.178-.364-.192.201-.159.299-.331.39-.604.054.498.589.076.616.045-.111.293-.265.466-.642.751m1.827.101c-.487.295-.455-.154-.374-.172.192-.169.293-.395.369-.672.145.31.442.012.464-.022-.046.293-.098.562-.459.866m-2.512-2.787c-.287.987-.777 1.808-1.257 2.383.144.051.259.125.346.222.019.053-.002.087-.062.103l-.865.33v.123c.516-.137 1.059-.158 1.627-.061.289.039.46.252.514.638.035.076.014.116-.027.124.05.035.11.035.163.006-.027-.035-.011-.105.048-.211.083-.193.247-.344.491-.454l1.248.076c.91-.105 1.429-.707 1.558-1.806.451-1.539.204-3.553-.732-6.056-.548-1.016-.852-1.686-1.01-2.113-.312-.506-.886-1.292-3.299-2.958-.036.013-.086.013-.149-.006l-.442-.235-.361-.46-1.652-4.252-1.169-.353.51 3.485-.415-.162-.479-3.421-.442-.172.677 4.802c3.502 3.083 5.315 5.786 5.439 8.11.138.792.036 1.727-.26 2.318" fill="#f2cb74" fill-rule="evenodd" transform="translate(101.1587 58.4541)"/><path d="m0 0c.146.263-.157.42-.32.262-.38-.913-.673-1.354-1.64-2.375-.009-.035-.601-.569.114-.098.738.539 1.568 1.424 1.846 2.211zm.932 2.84c-.049.297-.22.34-.39.147l-.308-.897c.165.093.403.176.496-.022zm-1.372 2.72c-.135.256-.307.223-.407-.031l.042-.801c.125.159.261.166.407.022zm1.553-.005c-.12.262-.294.238-.407-.011v-.801c.133.151.269.151.407 0zm-2.55 2.205c-.501.269-.446-.178-.364-.192.201-.159.299-.331.39-.604.054.498.589.076.616.045-.111.293-.265.466-.642.751zm1.827.101c-.487.295-.455-.154-.374-.172.192-.169.293-.395.369-.672.145.31.442.012.464-.022-.046.293-.098.562-.459.866zm-2.512-2.787c-.287.987-.777 1.808-1.257 2.383.144.051.259.125.346.222.019.053-.002.087-.062.103l-.865.33v.123c.516-.137 1.059-.158 1.627-.061.289.039.46.252.514.638.035.076.014.116-.027.124.05.035.11.035.163.006-.027-.035-.011-.105.048-.211.083-.193.247-.344.491-.454l1.248.076c.91-.105 1.429-.707 1.558-1.806.451-1.539.204-3.553-.732-6.056-.548-1.016-.852-1.686-1.01-2.113-.312-.506-.886-1.292-3.299-2.958-.036.013-.086.013-.149-.006l-.442-.235-.361-.46-1.652-4.252-1.169-.353.51 3.485-.415-.162-.479-3.421-.442-.172.677 4.802c3.502 3.083 5.315 5.786 5.439 8.11.138.792.036 1.727-.26 2.318z" fill="none" stroke="#f2cb74" stroke-miterlimit="3.864" stroke-width=".079" transform="translate(101.1587 58.4541)"/><path d="m0 0c.095-.071.189-.146.284-.228-.115-.195-.071-.49-.109-.6-.058-.163-.319-.219-.599-.309-.979-.249-1.593-.754-1.553-1.807-.048-.094-.129-.067-.159-.005-.392 1.791-1.676 1.453-2.367 1.727-.3.12-.259.517-.264.563.005.103-.098.331-.345.345-.023.002-.044.001-.064-.002.022.017.161.145.4.311l-.001-.051h4.777z" fill="#f2cb74" fill-rule="evenodd" transform="translate(101.42 71.5233)"/><path d="m0 0c.095-.071.189-.146.284-.228-.115-.195-.071-.49-.109-.6-.058-.163-.319-.219-.599-.309-.979-.249-1.593-.754-1.553-1.807-.048-.094-.129-.067-.159-.005-.392 1.791-1.676 1.453-2.367 1.727-.3.12-.259.517-.264.563.005.103-.098.331-.345.345-.023.002-.044.001-.064-.002.022.017.161.145.4.311l-.001-.051h4.777z" fill="none" stroke="#f2cb74" stroke-miterlimit="3.864" stroke-width=".079" transform="translate(101.42 71.5233)"/><path d="m0 0c.278-.787 1.108-1.672 1.846-2.211.715-.471.123.063.114.098-.967 1.021-1.26 1.462-1.64 2.375-.163.158-.466.001-.32-.262m-.932 2.84.202-.772c.093.198.331.115.496.022l-.308.897c-.17.193-.341.15-.39-.147m1.372 2.72-.042-.81c.146.144.282.137.407-.022l.042.801c-.1.254-.272.287-.407.031m-1.553-.006v-.811c.138.151.274.151.407 0v.801c-.113.249-.287.273-.407.01m2.55 2.206c-.377-.286-.531-.458-.642-.751.027.031.562.453.616-.045.091.273.189.445.39.604.082.014.137.461-.364.192m-1.827.101c-.361-.304-.413-.573-.459-.866.022.034.319.332.464.021.076.278.177.504.369.673.081.018.113.467-.374.172m2.074 1.079c.053.033.12.024.172-.003-.047-.003-.075-.043-.037-.125.054-.386.225-.599.514-.638.568-.097 1.111-.076 1.627.061v-.123l-.865-.33c-.06-.016-.081-.05-.062-.103.086-.095.199-.169.341-.22-.431-.535-.9-1.32-1.191-2.274-.342-.579-.468-1.586-.321-2.429.124-2.324 1.937-5.027 5.439-8.11l.677-4.802-.442.172-.479 3.421-.415.162.51-3.485-1.169.353-1.652 4.252-.361.46-.442.235c-.042.012-.078.017-.108.014-1.792 1.148-2.975 2.573-3.438 3.2-.175.425-.461 1.026-.912 1.863-.936 2.503-1.183 4.517-.732 6.056.129 1.099.648 1.701 1.558 1.806l1.248-.076c.244.11.408.261.491.454.058.104.074.174.049.209" fill="#f2cb74" fill-rule="evenodd" transform="translate(120.7772 58.4593)"/><path d="m0 0c.278-.787 1.108-1.672 1.846-2.211.715-.471.123.063.114.098-.967 1.021-1.26 1.462-1.64 2.375-.163.158-.466.001-.32-.262zm-.932 2.84.202-.772c.093.198.331.115.496.022l-.308.897c-.17.193-.341.15-.39-.147zm1.372 2.72-.042-.81c.146.144.282.137.407-.022l.042.801c-.1.254-.272.287-.407.031zm-1.553-.006v-.811c.138.151.274.151.407 0v.801c-.113.249-.287.273-.407.01zm2.55 2.206c-.377-.286-.531-.458-.642-.751.027.031.562.453.616-.045.091.273.189.445.39.604.082.014.137.461-.364.192zm-1.827.101c-.361-.304-.413-.573-.459-.866.022.034.319.332.464.021.076.278.177.504.369.673.081.018.113.467-.374.172zm2.074 1.079c.053.033.12.024.172-.003-.047-.003-.075-.043-.037-.125.054-.386.225-.599.514-.638.568-.097 1.111-.076 1.627.061v-.123l-.865-.33c-.06-.016-.081-.05-.062-.103.086-.095.199-.169.341-.22-.431-.535-.9-1.32-1.191-2.274-.342-.579-.468-1.586-.321-2.429.124-2.324 1.937-5.027 5.439-8.11l.677-4.802-.442.172-.479 3.421-.415.162.51-3.485-1.169.353-1.652 4.252-.361.46-.442.235c-.042.012-.078.017-.108.014-1.792 1.148-2.975 2.573-3.438 3.2-.175.425-.461 1.026-.912 1.863-.936 2.503-1.183 4.517-.732 6.056.129 1.099.648 1.701 1.558 1.806l1.248-.076c.244.11.408.261.491.454.058.104.074.174.049.209z" fill="none" stroke="#f2cb74" stroke-miterlimit="3.864" stroke-width=".079" transform="translate(120.7772 58.4593)"/><path d="m0 0c.16-.111.273-.207.332-.258-.245-.015-.347-.242-.342-.344-.005-.047.036-.444-.265-.564-.69-.274-1.975.064-2.366-1.727-.031-.062-.112-.088-.16.005.04 1.053-.574 1.558-1.552 1.807-.28.09-.542.146-.599.309-.037.105.002.38-.096.575l.01.02c.087.075.174.145.261.21v-.033z" fill="#f2cb74" fill-rule="evenodd" transform="translate(125.2934 71.4723)"/><path d="m0 0c.16-.111.273-.207.332-.258-.245-.015-.347-.242-.342-.344-.005-.047.036-.444-.265-.564-.69-.274-1.975.064-2.366-1.727-.031-.062-.112-.088-.16.005.04 1.053-.574 1.558-1.552 1.807-.28.09-.542.146-.599.309-.037.105.002.38-.096.575l.01.02c.087.075.174.145.261.21v-.033z" fill="none" stroke="#f2cb74" stroke-miterlimit="3.864" stroke-width=".079" transform="translate(125.2934 71.4723)"/><path d="m0 0c.48-.575.97-1.395 1.257-2.383-.148.296-.345.506-.584.568-.165.03-.231-.012-.199-.127.462-.785.612-1.704.448-2.757-.274-2.615-2.257-5.394-6.02-8.38.295.568.447 1.096.522 1.626.541.32 1.439 1.234 2.727 2.694l-.255.527c-.519-.581-1.372-1.277-2.556-2.041.014.065.002.188.021.247 1.02.9 1.788 1.679 2.319 2.33l-.238.649c-.563-.556-1.168-1.071-1.812-1.544l.035.328c.79.729 1.273 1.316 1.634 1.789l-.207.848-1.15-1.172.031.482c.335.424.614.826 1.056 1.438l-.143 1.085-.617-.912c.008.087 0 .404.214.725.649 1.367 2.064 2.778 2.575 3.214.016.136-.104.226-.298.227-.121-.025-.224-.025-.309 0-.141.191-.086.376.165.556.226.102.364.06.7-.103.274-.008.502.021.684.086" fill="#e69f0a" fill-rule="evenodd" transform="translate(97.7798 65.9109)"/><path d="m0 0c.48-.575.97-1.395 1.257-2.383-.148.296-.345.506-.584.568-.165.03-.231-.012-.199-.127.462-.785.612-1.704.448-2.757-.274-2.615-2.257-5.394-6.02-8.38.295.568.447 1.096.522 1.626.541.32 1.439 1.234 2.727 2.694l-.255.527c-.519-.581-1.372-1.277-2.556-2.041.014.065.002.188.021.247 1.02.9 1.788 1.679 2.319 2.33l-.238.649c-.563-.556-1.168-1.071-1.812-1.544l.035.328c.79.729 1.273 1.316 1.634 1.789l-.207.848-1.15-1.172.031.482c.335.424.614.826 1.056 1.438l-.143 1.085-.617-.912c.008.087 0 .404.214.725.649 1.367 2.064 2.778 2.575 3.214.016.136-.104.226-.298.227-.121-.025-.224-.025-.309 0-.141.191-.086.376.165.556.226.102.364.06.7-.103.274-.008.502.021.684.086z" fill="none" stroke="#e69f0a" stroke-miterlimit="3.864" stroke-width=".079" transform="translate(97.7798 65.9109)"/><path d="m0 0c2.413 1.666 2.986 2.452 3.298 2.958-.105-.283-.146-.461-.152-.562l-.083-1.648c-.003-.117.101-.691-.603-1.286-.383-.17-.672-.494-.867-.967-.203-.531-.276-.888-1.075-1.407-.649-.25-1.371-.26-1.489-.046-.156.166-.174.401-.054.704l.488 1.255c.092.231.288.49.586.776.049.099.032.194-.049.223" fill="#e69f0a" fill-rule="evenodd" transform="translate(97.7801 53.874)"/><path d="m0 0c2.413 1.666 2.986 2.452 3.298 2.958-.105-.283-.146-.461-.152-.562l-.083-1.648c-.003-.117.101-.691-.603-1.286-.383-.17-.672-.494-.867-.967-.203-.531-.276-.888-1.075-1.407-.649-.25-1.371-.26-1.489-.046-.156.166-.174.401-.054.704l.488 1.255c.092.231.288.49.586.776.049.099.032.194-.049.223z" fill="none" stroke="#e69f0a" stroke-miterlimit="3.864" stroke-width=".079" transform="translate(97.7801 53.874)"/><path d="m0 0c.187-.427.747-.907 1.245-1.2.096-.051.081.035.077.053-.652.554-.85.794-1.106 1.29-.11.085-.265.012-.216-.143m-.6 1.542.136-.419c.063.107.223.062.334.012l-.207.486c-.115.105-.23.081-.263-.079m-.104 1.48v-.44c.094.082.185.082.275 0v.435c-.076.135-.193.148-.275.005m-.124.987c.038.049.078.098.12.147l.03.03c.114.115.248.259.569.28.134.008.312-.067.502-.034.191.034.415.155.47.234.039.053.067.144.063.207.027.05.104.04.168.012-.053-.01-.097-.044-.051-.109.056-.081.22-.254.291-.299.103-.066.889-.055 1.403.035-.139-.247-.331-.253-.612-.315-.1-.022-.112-.067-.033-.101.048-.02.187-.08.338-.109-.194-.189-.36-.38-.498-.574-.081-.11-.159-.227-.23-.351-.058-.018-.115-.05-.157-.105-.112-.145-.347-.38-.336-1.073.011-.692.1-1.362.581-2.01.447-.603 1.116-1.525 2.982-2.769.034-.022.311-1.93.402-2.282l-.25.077s-.541 1.734-.574 1.734c-.034 0-.307.066-.318 0s.616-1.683.571-1.695c-.045-.011-.7.167-.756.234s-.906 2.132-1.085 2.222c-.179.089-.536.179-.581.134-.012-.012-.018-.031-.019-.051-.657.142-1.747 1.008-1.993 1.512l.007-.026c-.021.045-.048.096-.083.163-.135.256-.402.59-.603.982-.202.392-.436 1.105-.547 1.396-.112.291-.291.905-.157 1.486.107.462.211.773.386 1.018" fill="#f2cb74" fill-rule="evenodd" transform="translate(108.8414 70.209)"/><path d="m0 0c.187-.427.747-.907 1.245-1.2.096-.051.081.035.077.053-.652.554-.85.794-1.106 1.29-.11.085-.265.012-.216-.143zm-.6 1.542.136-.419c.063.107.223.062.334.012l-.207.486c-.115.105-.23.081-.263-.079zm-.104 1.48v-.44c.094.082.185.082.275 0v.435c-.076.135-.193.148-.275.005zm-.124.987c.038.049.078.098.12.147l.03.03c.114.115.248.259.569.28.134.008.312-.067.502-.034.191.034.415.155.47.234.039.053.067.144.063.207.027.05.104.04.168.012-.053-.01-.097-.044-.051-.109.056-.081.22-.254.291-.299.103-.066.889-.055 1.403.035-.139-.247-.331-.253-.612-.315-.1-.022-.112-.067-.033-.101.048-.02.187-.08.338-.109-.194-.189-.36-.38-.498-.574-.081-.11-.159-.227-.23-.351-.058-.018-.115-.05-.157-.105-.112-.145-.347-.38-.336-1.073.011-.692.1-1.362.581-2.01.447-.603 1.116-1.525 2.982-2.769.034-.022.311-1.93.402-2.282l-.25.077s-.541 1.734-.574 1.734c-.034 0-.307.066-.318 0s.616-1.683.571-1.695c-.045-.011-.7.167-.756.234s-.906 2.132-1.085 2.222c-.179.089-.536.179-.581.134-.012-.012-.018-.031-.019-.051-.657.142-1.747 1.008-1.993 1.512l.007-.026c-.021.045-.048.096-.083.163-.135.256-.402.59-.603.982-.202.392-.436 1.105-.547 1.396-.112.291-.291.905-.157 1.486.107.462.211.773.386 1.018z" fill="none" stroke="#f2cb74" stroke-miterlimit="3.864" stroke-width=".079" transform="translate(108.8414 70.209)"/><path d="m0 0c.291.954.76 1.739 1.191 2.274.183-.067.413-.096.689-.089.336.164.474.205.701.103.25-.179.305-.365.164-.556-.085-.024-.188-.024-.309 0-.194-.001-.314-.09-.298-.226.511-.436 1.927-1.847 2.575-3.214.214-.321.207-.638.214-.726l-.617.913-.142-1.085c.441-.612.72-1.014 1.055-1.439l.031-.481-1.15 1.172-.207-.848c.361-.473.845-1.06 1.635-1.789l.034-.328c-.644.473-1.248.988-1.812 1.544l-.238-.649c.531-.652 1.299-1.43 2.32-2.33.018-.06.006-.182.02-.247-1.183.763-2.037 1.459-2.556 2.041l-.254-.528c1.287-1.459 2.185-2.373 2.726-2.694.076-.53.227-1.057.522-1.625-3.762 2.986-5.746 5.764-6.02 8.38-.163 1.052-.014 1.972.448 2.757.032.114-.034.157-.198.126-.208-.054-.384-.219-.524-.456" fill="#e69f0a" fill-rule="evenodd" transform="translate(122.96 63.6443)"/><path d="m0 0c.291.954.76 1.739 1.191 2.274.183-.067.413-.096.689-.089.336.164.474.205.701.103.25-.179.305-.365.164-.556-.085-.024-.188-.024-.309 0-.194-.001-.314-.09-.298-.226.511-.436 1.927-1.847 2.575-3.214.214-.321.207-.638.214-.726l-.617.913-.142-1.085c.441-.612.72-1.014 1.055-1.439l.031-.481-1.15 1.172-.207-.848c.361-.473.845-1.06 1.635-1.789l.034-.328c-.644.473-1.248.988-1.812 1.544l-.238-.649c.531-.652 1.299-1.43 2.32-2.33.018-.06.006-.182.02-.247-1.183.763-2.037 1.459-2.556 2.041l-.254-.528c1.287-1.459 2.185-2.373 2.726-2.694.076-.53.227-1.057.522-1.625-3.762 2.986-5.746 5.764-6.02 8.38-.163 1.052-.014 1.972.448 2.757.032.114-.034.157-.198.126-.208-.054-.384-.219-.524-.456z" fill="none" stroke="#e69f0a" stroke-miterlimit="3.864" stroke-width=".079" transform="translate(122.96 63.6443)"/><path d="m0 0c.463-.627 1.646-2.052 3.438-3.199-.116-.009-.147-.117-.091-.232.299-.286.494-.544.587-.776l.487-1.255c.121-.303.103-.538-.054-.704-.118-.214-.84-.203-1.489.046-.799.52-.871.877-1.075 1.408-.194.472-.483.796-.866.967-.705.594-.6 1.168-.604 1.285l-.082 1.648c-.008.129-.072.379-.251.812" fill="#e69f0a" fill-rule="evenodd" transform="translate(120.7592 57.0869)"/><path d="m0 0c.463-.627 1.646-2.052 3.438-3.199-.116-.009-.147-.117-.091-.232.299-.286.494-.544.587-.776l.487-1.255c.121-.303.103-.538-.054-.704-.118-.214-.84-.203-1.489.046-.799.52-.871.877-1.075 1.408-.194.472-.483.796-.866.967-.705.594-.6 1.168-.604 1.285l-.082 1.648c-.008.129-.072.379-.251.812z" fill="none" stroke="#e69f0a" stroke-miterlimit="3.864" stroke-width=".079" transform="translate(120.7592 57.0869)"/><path d="m0 0c-.486.085-.871-.042-1.085-.368.013-.218-.013-1.376 1.431-1.204.24.247.546.44.732.373.113-.132.001-.29-.206-.476-.14-.169-.125-.307-.124-.433 1.005-.148 1.835.497 2.049 1.596.139.352.544.605.968.865-.875.072-1.828-.094-2.008.073-.303.305-.466.372-.759.446-.133.002-.632-.054-.871-.146-.24-.002-.489.052-.707.152.057-.302.241-.612.58-.878" fill="#6499b9" fill-rule="evenodd" transform="translate(96.3064 77.1992)"/><path d="m0 0c-.486.085-.871-.042-1.085-.368.013-.218-.013-1.376 1.431-1.204.24.247.546.44.732.373.113-.132.001-.29-.206-.476-.14-.169-.125-.307-.124-.433 1.005-.148 1.835.497 2.049 1.596.139.352.544.605.968.865-.875.072-1.828-.094-2.008.073-.303.305-.466.372-.759.446-.133.002-.632-.054-.871-.146-.24-.002-.489.052-.707.152.057-.302.241-.612.58-.878z" fill="none" stroke="#6499b9" stroke-miterlimit="3.864" stroke-width=".015" transform="translate(96.3064 77.1992)"/><path d="m0 0c.214-.316.306-.367.503-.436-.014-.198-.007-.403.029-.61-.272.02-.62.074-.891.307-.564.727-.979 1.466-1.434 1.873l-.265.095c-.354.177-.674.361-.931.571 0 0-.088-.577-.163-.571-.069.61-.18 1.145-.319 1.617-.056.109-.177.191-.293.326.564-.044.827.048.884.238.066.373.176.598.414.714.224-.157.655-.556.815-.945.079-.232.103-.484.078-.777.028.042.076.054.101.089.113.232.214.317.374.523.033.079.035.139.113.255.065-.131.125-.207.178-.291.491-.48.416-1.311.407-1.31.059-.731.192-1.287.4-1.668" fill="#6499b9" fill-rule="evenodd" transform="translate(106.7138 73.4263)"/><path d="m0 0c.214-.316.306-.367.503-.436-.014-.198-.007-.403.029-.61-.272.02-.62.074-.891.307-.564.727-.979 1.466-1.434 1.873l-.265.095c-.354.177-.674.361-.931.571 0 0-.088-.577-.163-.571-.069.61-.18 1.145-.319 1.617-.056.109-.177.191-.293.326.564-.044.827.048.884.238.066.373.176.598.414.714.224-.157.655-.556.815-.945.079-.232.103-.484.078-.777.028.042.076.054.101.089.113.232.214.317.374.523.033.079.035.139.113.255.065-.131.125-.207.178-.291.491-.48.416-1.311.407-1.31.059-.731.192-1.287.4-1.668z" fill="none" stroke="#6499b9" stroke-miterlimit="3.864" stroke-width=".015" transform="translate(106.7138 73.4263)"/><path d="m0 0c-.108-.173-.249-.292-.416-.348-.176-.076-.338-.088-.487-.038-.193.06-.345.135-.411.225.091.532.814.915.913.966 0 0 .066.038.116.047.094-.322.196-.621.285-.852" fill="#6499b9" fill-rule="evenodd" transform="translate(107.7291 70.7368)"/><path d="m0 0c-.108-.173-.249-.292-.416-.348-.176-.076-.338-.088-.487-.038-.193.06-.345.135-.411.225.091.532.814.915.913.966 0 0 .066.038.116.047.094-.322.196-.621.285-.852z" fill="none" stroke="#6499b9" stroke-miterlimit="3.864" stroke-width=".015" transform="translate(107.7291 70.7368)"/><path d="m0 0c.486.085.871-.042 1.085-.368-.013-.218.013-1.376-1.431-1.204-.24.247-.546.44-.732.374-.113-.133-.001-.291.206-.477.14-.169.125-.307.124-.433-1.005-.148-1.835.497-2.049 1.596-.139.352-.544.605-.968.865.875.072 1.828-.094 2.008.073.303.305.466.372.759.446.133.002.632-.054.871-.146.24-.002.489.052.707.152-.057-.302-.241-.612-.58-.878" fill="#6499b9" fill-rule="evenodd" transform="translate(125.5023 77.1703)"/><path d="m0 0c.486.085.871-.042 1.085-.368-.013-.218.013-1.376-1.431-1.204-.24.247-.546.44-.732.374-.113-.133-.001-.291.206-.477.14-.169.125-.307.124-.433-1.005-.148-1.835.497-2.049 1.596-.139.352-.544.605-.968.865.875.072 1.828-.094 2.008.073.303.305.466.372.759.446.133.002.632-.054.871-.146.24-.002.489.052.707.152-.057-.302-.241-.612-.58-.878z" fill="none" stroke="#6499b9" stroke-miterlimit="3.864" stroke-width=".015" transform="translate(125.5023 77.1703)"/><path d="m0 0c.238-.115.348-.341.414-.713.057-.19.32-.283.884-.238-.116-.136-.237-.218-.293-.326-.139-.473-.25-1.007-.319-1.617-.075-.007-.163.571-.163.571-.257-.211-.577-.394-.931-.571l-.265-.095c-.455-.408-.857-1.162-1.465-1.863-.338-.279-.732-.294-1.123-.279-.085-.025-.659.119-.659.119.013-.009.752.303.752.303.193.119.481.259.702.585.208.383.342.942.401 1.678.002-.117-.116.79.406 1.3.053.084.113.161.178.291.077-.116.08-.175.113-.255.16-.205.261-.291.374-.522.025-.035.073-.048.101-.09-.025.294-.001.546.078.778.16.389.591.788.815.944" fill="#6499b9" fill-rule="evenodd" transform="translate(117.561 77.521)"/><path d="m0 0c.238-.115.348-.341.414-.713.057-.19.32-.283.884-.238-.116-.136-.237-.218-.293-.326-.139-.473-.25-1.007-.319-1.617-.075-.007-.163.571-.163.571-.257-.211-.577-.394-.931-.571l-.265-.095c-.455-.408-.857-1.162-1.465-1.863-.338-.279-.732-.294-1.123-.279-.085-.025-.659.119-.659.119.013-.009.752.303.752.303.193.119.481.259.702.585.208.383.342.942.401 1.678.002-.117-.116.79.406 1.3.053.084.113.161.178.291.077-.116.08-.175.113-.255.16-.205.261-.291.374-.522.025-.035.073-.048.101-.09-.025.294-.001.546.078.778.16.389.591.788.815.944z" fill="none" stroke="#6499b9" stroke-miterlimit="3.864" stroke-width=".015" transform="translate(117.561 77.521)"/><path d="m0 0c.06.026.25.069.691-.12.165-.078.822-.435.913-.966-.066-.09-.218-.165-.411-.225-.149-.051-.389-.036-.565.04-.162.055-.319.152-.437.333-.076.438-.141.787-.184.918z" fill="#6499b9" fill-rule="evenodd" transform="translate(113.7071 71.7159)"/><path d="m0 0c.06.026.25.069.691-.12.165-.078.822-.435.913-.966-.066-.09-.218-.165-.411-.225-.149-.051-.389-.036-.565.04-.162.055-.319.152-.437.333-.076.438-.141.787-.184.918z" fill="none" stroke="#6499b9" stroke-miterlimit="3.864" stroke-width=".015" transform="translate(113.7071 71.7159)"/><path d="m0 0c.216.373.486.688.739.923.09-.017.183-.021.265-.001.224.056.323.134.446.056s.224-.144.213-.234c-.011-.089-.045-.123-.168-.123s-.278.011-.267-.056.054-.089.166-.157c.306-.183 1.259-1.103 1.576-1.82.078-.177.056-.168.056-.168s-.37.479-.392.402-.143-.446-.077-.514c.066-.067.627-.693.67-.826s.043-.234.043-.234-.78.692-.791.67c-.012-.022-.146-.382-.101-.436.045-.055.993-.904 1.004-.971.012-.068.079-.202.023-.179-.056.022-1.139.815-1.184.804s-.168-.248-.145-.302c.022-.055 1.407-1.105 1.43-1.173.022-.067.062-.12.022-.123-.119-.008-1.506 1.029-1.662.96-.159-.071-.136-.201-.058-.323.079-.122 1.642-1.328 1.686-1.418.045-.089.269-.67.302-.703.357-.357-4.041 2.512-3.875 4.713.055.725.245.96.301 1.016s.067.201.011.224c-.035.014-.135.024-.233-.007" fill="#e69f0a" fill-rule="evenodd" transform="translate(110.5435 73.2715)"/><path d="m0 0c.216.373.486.688.739.923.09-.017.183-.021.265-.001.224.056.323.134.446.056s.224-.144.213-.234c-.011-.089-.045-.123-.168-.123s-.278.011-.267-.056.054-.089.166-.157c.306-.183 1.259-1.103 1.576-1.82.078-.177.056-.168.056-.168s-.37.479-.392.402-.143-.446-.077-.514c.066-.067.627-.693.67-.826s.043-.234.043-.234-.78.692-.791.67c-.012-.022-.146-.382-.101-.436.045-.055.993-.904 1.004-.971.012-.068.079-.202.023-.179-.056.022-1.139.815-1.184.804s-.168-.248-.145-.302c.022-.055 1.407-1.105 1.43-1.173.022-.067.062-.12.022-.123-.119-.008-1.506 1.029-1.662.96-.159-.071-.136-.201-.058-.323.079-.122 1.642-1.328 1.686-1.418.045-.089.269-.67.302-.703.357-.357-4.041 2.512-3.875 4.713.055.725.245.96.301 1.016s.067.201.011.224c-.035.014-.135.024-.233-.007z" fill="none" stroke="#e69f0a" stroke-miterlimit="3.864" stroke-width=".103" transform="translate(110.5435 73.2715)"/><path d="m0 0c-.053.159-.104.323-.152.492-.039.225-.06.304-.114.417l-.007.026c.246-.504 1.336-1.37 1.993-1.512-.004-.053.019-.117.019-.117s.088-.01.2-.144c.112-.135.693-1.208.648-1.241-.045-.034-.224-.2-.625-.144-.402.056-.725.1-1.038.547-.24.341-.693 1.139-.924 1.676" fill="#e69f0a" fill-rule="evenodd" transform="translate(109.2836 68.2643)"/><path d="m0 0c-.053.159-.104.323-.152.492-.039.225-.06.304-.114.417l-.007.026c.246-.504 1.336-1.37 1.993-1.512-.004-.053.019-.117.019-.117s.088-.01.2-.144c.112-.135.693-1.208.648-1.241-.045-.034-.224-.2-.625-.144-.402.056-.725.1-1.038.547-.24.341-.693 1.139-.924 1.676z" fill="none" stroke="#e69f0a" stroke-miterlimit="3.864" stroke-width=".079" transform="translate(109.2836 68.2643)"/><path d="m0 0c-.016-.073.016-.138.073-.194.056-.057.182-.093.335-.158.154-.064.324-.145.461-.202.138-.056.247-.024.368-.154.121-.129.17-.27.21-.383.041-.114.041-.235.097-.389.057-.153.021-.222.106-.254.084-.033.133-.028.181.032.049.061.081.206.097.311.017.105.073.263.186.409.114.145.389.323.651.363.263.041.352.017.57.073.219.057.336.085.368.194s.037.255-.125.295c-.162.041-1.039.324-1.803.3-.764-.025-1.499-.167-1.581-.162-.137.008-.194-.081-.194-.081m2.332-1.25c0-.146.118-.264.265-.264.146 0 .264.118.264.264 0 .147-.118.265-.264.265-.147 0-.265-.118-.265-.265m-1.713.117c0-.146.118-.264.264-.264.147 0 .265.118.265.264 0 .147-.118.265-.265.265-.146 0-.264-.118-.264-.265m-1.816 1.614s2.301.291 2.814.299c.514.008 1.496-.178 1.904-.25.408-.073 1.205-.025 1.253-.065.049-.041.146-.15.017-.247-.13-.097-.635-.392-.635-.509s.032-.214-.049-.271c-.08-.057-.158 0-.412-.121-.255-.122-.433-.239-.481-.336-.049-.097-.073-.072-.057-.194.015-.111.122-.194.065-.242-.057-.049-.097-.009-.146-.057-.048-.049-.206-.206-.408-.206s-.2.035-.351-.016c-.405-.138-.518-.409-.559-.526-.04-.117-.06-.141-.108-.101-.049.041-.033.093-.114.238-.081.146-.214.449-.404.482-.19.032-.534.04-.651.137s-.255.089-.238.194c.016.105.129.102.129.267 0 .166-.065.344-.332.505-.267.162-.545.206-.578.279-.032.073-.008.081.025.154.032.073.113.056-.025.097-.137.04-.537.129-.618.218s-.138.247-.105.263c.032.016.064.008.064.008" fill="#04517d" fill-rule="evenodd" transform="translate(108.1258 77.645)"/><path d="m0 0c-.016-.073.016-.138.073-.194.056-.057.182-.093.335-.158.154-.064.324-.145.461-.202.138-.056.247-.024.368-.154.121-.129.17-.27.21-.383.041-.114.041-.235.097-.389.057-.153.021-.222.106-.254.084-.033.133-.028.181.032.049.061.081.206.097.311.017.105.073.263.186.409.114.145.389.323.651.363.263.041.352.017.57.073.219.057.336.085.368.194s.037.255-.125.295c-.162.041-1.039.324-1.803.3-.764-.025-1.499-.167-1.581-.162-.137.008-.194-.081-.194-.081zm2.332-1.25c0-.146.118-.264.265-.264.146 0 .264.118.264.264 0 .147-.118.265-.264.265-.147 0-.265-.118-.265-.265zm-1.713.117c0-.146.118-.264.264-.264.147 0 .265.118.265.264 0 .147-.118.265-.265.265-.146 0-.264-.118-.264-.265zm-1.816 1.614s2.301.291 2.814.299c.514.008 1.496-.178 1.904-.25.408-.073 1.205-.025 1.253-.065.049-.041.146-.15.017-.247-.13-.097-.635-.392-.635-.509s.032-.214-.049-.271c-.08-.057-.158 0-.412-.121-.255-.122-.433-.239-.481-.336-.049-.097-.073-.072-.057-.194.015-.111.122-.194.065-.242-.057-.049-.097-.009-.146-.057-.048-.049-.206-.206-.408-.206s-.2.035-.351-.016c-.405-.138-.518-.409-.559-.526-.04-.117-.06-.141-.108-.101-.049.041-.033.093-.114.238-.081.146-.214.449-.404.482-.19.032-.534.04-.651.137s-.255.089-.238.194c.016.105.129.102.129.267 0 .166-.065.344-.332.505-.267.162-.545.206-.578.279-.032.073-.008.081.025.154.032.073.113.056-.025.097-.137.04-.537.129-.618.218s-.138.247-.105.263c.032.016.064.008.064.008z" fill="none" stroke="#04517d" stroke-miterlimit="3.864" stroke-width=".015" transform="translate(108.1258 77.645)"/><path d="m0 0c-.016-.073.016-.138.073-.194.056-.057.182-.093.335-.158.154-.064.324-.145.461-.202.138-.056.247-.024.368-.154.121-.129.17-.27.21-.383.041-.114.041-.235.097-.389.057-.153.021-.222.106-.254.084-.033.133-.028.181.032.049.061.081.206.097.311.017.105.073.263.186.409.114.145.389.323.651.363.263.041.352.017.57.073.219.057.336.085.368.194s.037.255-.125.295c-.162.041-1.039.324-1.803.3-.764-.025-1.499-.167-1.581-.162-.137.008-.194-.081-.194-.081" fill="#f2cb74" fill-rule="evenodd" transform="translate(108.1258 77.645)"/><path d="m0 0c-.016-.073.016-.138.073-.194.056-.057.182-.093.335-.158.154-.064.324-.145.461-.202.138-.056.247-.024.368-.154.121-.129.17-.27.21-.383.041-.114.041-.235.097-.389.057-.153.021-.222.106-.254.084-.033.133-.028.181.032.049.061.081.206.097.311.017.105.073.263.186.409.114.145.389.323.651.363.263.041.352.017.57.073.219.057.336.085.368.194s.037.255-.125.295c-.162.041-1.039.324-1.803.3-.764-.025-1.499-.167-1.581-.162-.137.008-.194-.081-.194-.081z" fill="none" stroke="#f2cb74" stroke-miterlimit="3.864" stroke-width=".015" transform="translate(108.1258 77.645)"/><path d="m0 0v-.441c.093.083.185.083.275 0v.435c-.077.136-.194.149-.275.006" fill="#04517d" fill-rule="evenodd" transform="translate(108.1378 73.2314)"/><path d="m0 0v-.441c.093.083.185.083.275 0v.435c-.077.136-.194.149-.275.006z" fill="none" stroke="#04517d" stroke-miterlimit="3.864" stroke-width=".015" transform="translate(108.1378 73.2314)"/><path d="m0 0 .136-.419c.063.107.224.062.335.012l-.208.487c-.114.105-.23.081-.263-.08" fill="#04517d" fill-rule="evenodd" transform="translate(108.2409 71.7506)"/><path d="m0 0 .136-.419c.063.107.224.062.335.012l-.208.487c-.114.105-.23.081-.263-.08z" fill="none" stroke="#04517d" stroke-miterlimit="3.864" stroke-width=".015" transform="translate(108.2409 71.7506)"/><path d="m0 0c.187-.427.747-.907 1.245-1.2.117-.062.069.078.077.053-.652.554-.85.794-1.106 1.29-.11.085-.265.012-.216-.143" fill="#04517d" fill-rule="evenodd" transform="translate(108.8414 70.209)"/><path d="m0 0c.187-.427.747-.907 1.245-1.2.117-.062.069.078.077.053-.652.554-.85.794-1.106 1.29-.11.085-.265.012-.216-.143z" fill="none" stroke="#04517d" stroke-miterlimit="3.864" stroke-width=".015" transform="translate(108.8414 70.209)"/><path d="m0 0c.024-.192.198-.328.389-.304.192.023.328.197.305.389-.024.192-.198.328-.39.304-.191-.023-.328-.197-.304-.389m-2.263-.122c.023-.192.198-.328.389-.304.192.023.328.197.304.389-.023.192-.197.328-.389.304-.192-.023-.328-.197-.304-.389m-1.093 1.758c.005-.047-.036-.444.264-.564.691-.274 1.975.064 2.366-1.727.031-.062.112-.088.16.005-.04 1.053.574 1.558 1.552 1.807.28.09.542.146.599.309.06.171-.079.79.49.785.083-.001.267-.045.284-.235.03-.33-.231-.405-.14-.519.105-.13.029-.248.01-.27-.089-.11-.137-.058-.478-.207-.381-.167-.56-.382-.608-.517s-.03-.103-.011-.264c.022-.189.385-.281.288-.299-.1-.018-.29-.034-.346-.106-.056-.071-.237-.303-.502-.335-.265-.033-.268.014-.458-.078-.508-.245-.612-.619-.647-.779-.034-.159-.056-.194-.126-.149s-.015.133-.144.311-.242.494-.633.51c-.254.01-.756-.047-.881.128-.226.32-.437.273-.442.356-.004.057.227.076.201.293-.027.217-.127.362-.503.532-.375.168-.71.171-.764.261s-.055.114-.031.216c.041.175.01.093-.129.222-.139.128-.066.679.284.659.247-.015.35-.242.345-.345" fill="#04517d" fill-rule="evenodd" transform="translate(100.0093 69.2291)"/><path d="m0 0c.024-.192.198-.328.389-.304.192.023.328.197.305.389-.024.192-.198.328-.39.304-.191-.023-.328-.197-.304-.389zm-2.263-.122c.023-.192.198-.328.389-.304.192.023.328.197.304.389-.023.192-.197.328-.389.304-.192-.023-.328-.197-.304-.389zm-1.093 1.758c.005-.047-.036-.444.264-.564.691-.274 1.975.064 2.366-1.727.031-.062.112-.088.16.005-.04 1.053.574 1.558 1.552 1.807.28.09.542.146.599.309.06.171-.079.79.49.785.083-.001.267-.045.284-.235.03-.33-.231-.405-.14-.519.105-.13.029-.248.01-.27-.089-.11-.137-.058-.478-.207-.381-.167-.56-.382-.608-.517s-.03-.103-.011-.264c.022-.189.385-.281.288-.299-.1-.018-.29-.034-.346-.106-.056-.071-.237-.303-.502-.335-.265-.033-.268.014-.458-.078-.508-.245-.612-.619-.647-.779-.034-.159-.056-.194-.126-.149s-.015.133-.144.311-.242.494-.633.51c-.254.01-.756-.047-.881.128-.226.32-.437.273-.442.356-.004.057.227.076.201.293-.027.217-.127.362-.503.532-.375.168-.71.171-.764.261s-.055.114-.031.216c.041.175.01.093-.129.222-.139.128-.066.679.284.659.247-.015.35-.242.345-.345z" fill="none" stroke="#04517d" stroke-miterlimit="3.864" stroke-width=".02" transform="translate(100.0093 69.2291)"/><path d="m0 0c.023.192-.113.366-.304.389-.192.024-.366-.112-.39-.304-.023-.191.113-.366.305-.389.191-.024.365.112.389.304m-2.264.122c.024.192-.113.366-.304.389-.192.024-.366-.112-.39-.304-.023-.191.113-.366.305-.389.191-.024.366.112.389.304m3.474 1.636c-.005.103.098.33.345.345.35.02.422-.531.283-.659-.139-.129-.17-.047-.129-.222.024-.102.024-.126-.031-.216-.054-.09-.388-.092-.764-.261s-.475-.315-.502-.532.204-.236.201-.293c-.005-.083-.216-.036-.443-.355-.124-.176-.626-.119-.88-.129-.391-.016-.504-.332-.633-.51-.13-.178-.074-.266-.144-.311s-.093-.01-.127.149c-.034.16-.139.534-.646.779-.19.092-.194.045-.459.078-.264.032-.445.264-.501.335-.056.072-.246.088-.347.106-.097.018.267.11.289.299.019.161.037.129-.011.264s-.227.35-.608.517c-.341.149-.389.097-.479.207-.018.022-.095.14.01.27.092.114-.169.19-.14.519.018.19.201.234.285.235.569.005.429-.614.489-.785.057-.163.319-.219.599-.309.978-.249 1.592-.754 1.553-1.807.047-.093.128-.067.159-.005.392 1.791 1.676 1.453 2.367 1.727.3.12.259.517.264.564" fill="#04517d" fill-rule="evenodd" transform="translate(124.0731 69.1123)"/><path d="m0 0c.023.192-.113.366-.304.389-.192.024-.366-.112-.39-.304-.023-.191.113-.366.305-.389.191-.024.365.112.389.304zm-2.264.122c.024.192-.113.366-.304.389-.192.024-.366-.112-.39-.304-.023-.191.113-.366.305-.389.191-.024.366.112.389.304zm3.474 1.636c-.005.103.098.33.345.345.35.02.422-.531.283-.659-.139-.129-.17-.047-.129-.222.024-.102.024-.126-.031-.216-.054-.09-.388-.092-.764-.261s-.475-.315-.502-.532.204-.236.201-.293c-.005-.083-.216-.036-.443-.355-.124-.176-.626-.119-.88-.129-.391-.016-.504-.332-.633-.51-.13-.178-.074-.266-.144-.311s-.093-.01-.127.149c-.034.16-.139.534-.646.779-.19.092-.194.045-.459.078-.264.032-.445.264-.501.335-.056.072-.246.088-.347.106-.097.018.267.11.289.299.019.161.037.129-.011.264s-.227.35-.608.517c-.341.149-.389.097-.479.207-.018.022-.095.14.01.27.092.114-.169.19-.14.519.018.19.201.234.285.235.569.005.429-.614.489-.785.057-.163.319-.219.599-.309.978-.249 1.592-.754 1.553-1.807.047-.093.128-.067.159-.005.392 1.791 1.676 1.453 2.367 1.727.3.12.259.517.264.564z" fill="none" stroke="#04517d" stroke-miterlimit="3.864" stroke-width=".02" transform="translate(124.0731 69.1123)"/><path d="m0 0-.865-1.318 1.194-1.318h-9.184v1.853h-1.441v.783zm-28.236-1.317h18.904v-2.595h-18.904zm-9.39 1.318h10.296v-.783h-1.442v-1.853h-9.184l1.194 1.318-.864 1.318z" fill="#04517d" transform="translate(129.7387 45.6014)"/><path d="m0 0-.865-1.318 1.194-1.318h-9.184v1.853h-1.441v.783zm-28.236-1.317h18.904v-2.595h-18.904zm-9.39 1.318h10.296v-.783h-1.442v-1.853h-9.184l1.194 1.318-.864 1.318z" fill="none" stroke="#04517d" stroke-miterlimit="3.864" stroke-width=".015" transform="translate(129.7387 45.6014)"/><path d="m0 0c0 .197.227.357.508.357s.508-.16.508-.357-.227-.357-.508-.357-.508.16-.508.357m2.909-.491c0 .197.227.357.508.357.28 0 .508-.16.508-.357s-.228-.356-.508-.356c-.042 0-.082.003-.121.01-.395-.441-.43-.985-.43-.985v-.783h-4.778s.021.556 0 .762c-.024.24-.323.773-.51.999-.023-.002-.047-.003-.071-.003-.281 0-.508.159-.508.356s.227.357.508.357c.28 0 .508-.16.508-.357 0-.021-.003-.042-.008-.062 1.18-1.228 2.113-1.373 2.233.048h.464c.033-1.369.744-1.347 2.225-.087-.013.032-.02.066-.02.101" fill="#04517d" transform="translate(98.554 74.0721)"/><path d="m0 0c0 .197.227.357.508.357s.508-.16.508-.357-.227-.357-.508-.357-.508.16-.508.357zm2.909-.491c0 .197.227.357.508.357.28 0 .508-.16.508-.357s-.228-.356-.508-.356c-.042 0-.082.003-.121.01-.395-.441-.43-.985-.43-.985v-.783h-4.778s.021.556 0 .762c-.024.24-.323.773-.51.999-.023-.002-.047-.003-.071-.003-.281 0-.508.159-.508.356s.227.357.508.357c.28 0 .508-.16.508-.357 0-.021-.003-.042-.008-.062 1.18-1.228 2.113-1.373 2.233.048h.464c.033-1.369.744-1.347 2.225-.087-.013.032-.02.066-.02.101z" fill="none" stroke="#04517d" stroke-miterlimit="3.864" stroke-width=".015" transform="translate(98.554 74.0721)"/><path d="m0 0c0 .197.227.357.508.357s.508-.16.508-.357-.227-.357-.508-.357-.508.16-.508.357m-2.909-.491c0 .197.228.357.508.357.281 0 .509-.16.509-.357 0-.035-.008-.069-.021-.101 1.481-1.26 2.193-1.282 2.225.087h.464c.12-1.421 1.053-1.276 2.233-.048-.005.02-.008.041-.008.062 0 .197.228.357.509.357.28 0 .508-.16.508-.357s-.228-.356-.508-.356c-.025 0-.049.001-.072.003-.187-.226-.486-.759-.51-.999-.021-.206 0-.762 0-.762h-4.778v.783s-.035.544-.43.985c-.039-.007-.079-.01-.121-.01-.28 0-.508.159-.508.356" fill="#04517d" transform="translate(122.3656 74.0773)"/><path d="m0 0c0 .197.227.357.508.357s.508-.16.508-.357-.227-.357-.508-.357-.508.16-.508.357zm-2.909-.491c0 .197.228.357.508.357.281 0 .509-.16.509-.357 0-.035-.008-.069-.021-.101 1.481-1.26 2.193-1.282 2.225.087h.464c.12-1.421 1.053-1.276 2.233-.048-.005.02-.008.041-.008.062 0 .197.228.357.509.357.28 0 .508-.16.508-.357s-.228-.356-.508-.356c-.025 0-.049.001-.072.003-.187-.226-.486-.759-.51-.999-.021-.206 0-.762 0-.762h-4.778v.783s-.035.544-.43.985c-.039-.007-.079-.01-.121-.01-.28 0-.508.159-.508.356z" fill="none" stroke="#04517d" stroke-miterlimit="3.864" stroke-width=".015" transform="translate(122.3656 74.0773)"/><path d="m0 0c-.424-.189-.238-.79-.176-.871.318-.633.943-1.038 2.07-1.085-.333.16-.837.267-1.028 1.098-.129.675-.361 1.007-.866.858" fill="#04517d" fill-rule="evenodd" transform="translate(94.1873 77.3569)"/><path d="m0 0c-.424-.189-.238-.79-.176-.871.318-.633.943-1.038 2.07-1.085-.333.16-.837.267-1.028 1.098-.129.675-.361 1.007-.866.858z" fill="none" stroke="#04517d" stroke-miterlimit="3.864" stroke-width=".015" transform="translate(94.1873 77.3569)"/><path d="m0 0c-1.393-.232-1.531-.487-1.611-.599-.079-.266-.044-.571 0-1.131 0-.18.34-.48.346-.453.054.826.157.579.466.838.406.426.724.986.799 1.345" fill="#04517d" fill-rule="evenodd" transform="translate(104.7929 79.0228)"/><path d="m0 0c-1.393-.232-1.531-.487-1.611-.599-.079-.266-.044-.571 0-1.131 0-.18.34-.48.346-.453.054.826.157.579.466.838.406.426.724.986.799 1.345z" fill="none" stroke="#04517d" stroke-miterlimit="3.864" stroke-width=".015" transform="translate(104.7929 79.0228)"/><path d="m0 0c.424-.189.238-.79.176-.871-.318-.633-.943-1.038-2.071-1.085.334.16.838.267 1.029 1.098.129.675.361 1.007.866.858" fill="#04517d" fill-rule="evenodd" transform="translate(127.6214 77.3281)"/><path d="m0 0c.424-.189.238-.79.176-.871-.318-.633-.943-1.038-2.071-1.085.334.16.838.267 1.029 1.098.129.675.361 1.007.866.858z" fill="none" stroke="#04517d" stroke-miterlimit="3.864" stroke-width=".015" transform="translate(127.6214 77.3281)"/><path d="m0 0c1.393-.232 1.531-.487 1.611-.599.079-.266.044-.571 0-1.132 0-.179-.34-.479-.346-.452-.054.826-.157.579-.466.838-.406.426-.724.986-.799 1.345" fill="#04517d" fill-rule="evenodd" transform="translate(117.0157 78.994)"/><path d="m0 0c1.393-.232 1.531-.487 1.611-.599.079-.266.044-.571 0-1.132 0-.179-.34-.479-.346-.452-.054.826-.157.579-.466.838-.406.426-.724.986-.799 1.345z" fill="none" stroke="#04517d" stroke-miterlimit="3.864" stroke-width=".015" transform="translate(117.0157 78.994)"/><path d="m0 0-.202-.772c-.094.197-.331.115-.496.022l.308.897c.17.193.341.149.39-.147" fill="#04517d" fill-rule="evenodd" transform="translate(102.0911 61.2944)"/><path d="m0 0-.202-.772c-.094.197-.331.115-.496.022l.308.897c.17.193.341.149.39-.147z" fill="none" stroke="#04517d" stroke-miterlimit="3.864" stroke-width=".024" transform="translate(102.0911 61.2944)"/><path d="m0 0c-.278-.787-1.108-1.672-1.846-2.211-.715-.471-.123.063-.114.098.967 1.021 1.26 1.462 1.64 2.375.163.158.466.001.32-.262" fill="#04517d" fill-rule="evenodd" transform="translate(101.1587 58.4541)"/><path d="m0 0c-.278-.787-1.108-1.672-1.846-2.211-.715-.471-.123.063-.114.098.967 1.021 1.26 1.462 1.64 2.375.163.158.466.001.32-.262z" fill="none" stroke="#04517d" stroke-miterlimit="3.864" stroke-width=".024" transform="translate(101.1587 58.4541)"/><path d="m0 0v-.812c-.138.152-.274.152-.408 0v.802c.114.249.287.273.408.01" fill="#04517d" fill-rule="evenodd" transform="translate(102.272 64.0086)"/><path d="m0 0v-.812c-.138.152-.274.152-.408 0v.802c.114.249.287.273.408.01z" fill="none" stroke="#04517d" stroke-miterlimit="3.864" stroke-width=".024" transform="translate(102.272 64.0086)"/><path d="m0 0c.363-.305.413-.575.459-.869.019-.006-.309.355-.464.024-.076.277-.176.503-.368.673-.082.018-.114.467.373.172" fill="#04517d" fill-rule="evenodd" transform="translate(101.5484 66.3155)"/><path d="m0 0c.363-.305.413-.575.459-.869.019-.006-.309.355-.464.024-.076.277-.176.503-.368.673-.082.018-.114.467.373.172z" fill="none" stroke="#04517d" stroke-miterlimit="3.864" stroke-width=".024" transform="translate(101.5484 66.3155)"/><path d="m0 0 .043-.811c-.147.145-.282.137-.408-.021l-.042.8c.101.255.273.288.407.032" fill="#04517d" fill-rule="evenodd" transform="translate(100.7183 64.0144)"/><path d="m0 0 .043-.811c-.147.145-.282.137-.408-.021l-.042.8c.101.255.273.288.407.032z" fill="none" stroke="#04517d" stroke-miterlimit="3.864" stroke-width=".024" transform="translate(100.7183 64.0144)"/><path d="m0 0c.378-.286.531-.458.643-.752.019-.006-.561.476-.617-.043-.091.272-.189.444-.39.603-.082.014-.137.461.364.192" fill="#04517d" fill-rule="evenodd" transform="translate(99.7217 66.2139)"/><path d="m0 0c.378-.286.531-.458.643-.752.019-.006-.561.476-.617-.043-.091.272-.189.444-.39.603-.082.014-.137.461.364.192z" fill="none" stroke="#04517d" stroke-miterlimit="3.864" stroke-width=".024" transform="translate(99.7217 66.2139)"/><path d="m0 0 .202-.772c.094.197.331.115.496.022l-.308.897c-.17.193-.341.149-.39-.147" fill="#04517d" fill-rule="evenodd" transform="translate(119.8448 61.2996)"/><path d="m0 0 .202-.772c.094.197.331.115.496.022l-.308.897c-.17.193-.341.149-.39-.147z" fill="none" stroke="#04517d" stroke-miterlimit="3.864" stroke-width=".024" transform="translate(119.8448 61.2996)"/><path d="m0 0c.278-.787 1.108-1.672 1.846-2.211.715-.471.123.063.114.098-.967 1.021-1.26 1.462-1.64 2.375-.163.158-.466.001-.32-.262" fill="#04517d" fill-rule="evenodd" transform="translate(120.7772 58.4593)"/><path d="m0 0c.278-.787 1.108-1.672 1.846-2.211.715-.471.123.063.114.098-.967 1.021-1.26 1.462-1.64 2.375-.163.158-.466.001-.32-.262z" fill="none" stroke="#04517d" stroke-miterlimit="3.864" stroke-width=".024" transform="translate(120.7772 58.4593)"/><path d="m0 0v-.812c.138.152.274.152.408 0v.802c-.114.249-.287.273-.408.01" fill="#04517d" fill-rule="evenodd" transform="translate(119.6639 64.0138)"/><path d="m0 0v-.812c.138.152.274.152.408 0v.802c-.114.249-.287.273-.408.01z" fill="none" stroke="#04517d" stroke-miterlimit="3.864" stroke-width=".024" transform="translate(119.6639 64.0138)"/><path d="m0 0c-.363-.305-.413-.575-.459-.869-.019-.006.309.355.464.024.076.277.176.503.368.673.082.018.114.467-.373.172" fill="#04517d" fill-rule="evenodd" transform="translate(120.3874 66.3207)"/><path d="m0 0c-.363-.305-.413-.575-.459-.869-.019-.006.309.355.464.024.076.277.176.503.368.673.082.018.114.467-.373.172z" fill="none" stroke="#04517d" stroke-miterlimit="3.864" stroke-width=".024" transform="translate(120.3874 66.3207)"/><path d="m0 0-.042-.811c.146.145.281.137.407-.021l.042.8c-.101.255-.273.288-.407.032" fill="#04517d" fill-rule="evenodd" transform="translate(121.2176 64.0195)"/><path d="m0 0-.042-.811c.146.145.281.137.407-.021l.042.8c-.101.255-.273.288-.407.032z" fill="none" stroke="#04517d" stroke-miterlimit="3.864" stroke-width=".024" transform="translate(121.2176 64.0195)"/><path d="m0 0c-.378-.286-.531-.458-.643-.753-.019-.005.561.477.617-.042.091.272.189.444.39.603.082.014.137.461-.364.192" fill="#04517d" fill-rule="evenodd" transform="translate(122.2142 66.2191)"/><path d="m0 0c-.378-.286-.531-.458-.643-.753-.019-.005.561.477.617-.042.091.272.189.444.39.603.082.014.137.461-.364.192z" fill="none" stroke="#04517d" stroke-miterlimit="3.864" stroke-width=".024" transform="translate(122.2142 66.2191)"/><path d="m0 0c0 .197.227.357.508.357s.508-.16.508-.357-.227-.357-.508-.357-.508.16-.508.357m2.909-.491c0 .197.227.357.508.357.28 0 .508-.16.508-.357s-.228-.356-.508-.356c-.042 0-.082.003-.121.01-.395-.441-.43-.985-.43-.985v-.783h-4.778s.021.556 0 .762c-.024.24-.323.773-.51.999-.023-.002-.047-.003-.071-.003-.281 0-.508.159-.508.356s.227.357.508.357c.28 0 .508-.16.508-.357 0-.021-.003-.042-.008-.062 1.18-1.228 2.113-1.373 2.233.048h.464c.033-1.369.744-1.347 2.225-.087-.013.032-.02.066-.02.101" fill="#04517d" transform="translate(98.554 74.0721)"/><path d="m0 0c0 .197.227.357.508.357s.508-.16.508-.357-.227-.357-.508-.357-.508.16-.508.357zm2.909-.491c0 .197.227.357.508.357.28 0 .508-.16.508-.357s-.228-.356-.508-.356c-.042 0-.082.003-.121.01-.395-.441-.43-.985-.43-.985v-.783h-4.778s.021.556 0 .762c-.024.24-.323.773-.51.999-.023-.002-.047-.003-.071-.003-.281 0-.508.159-.508.356s.227.357.508.357c.28 0 .508-.16.508-.357 0-.021-.003-.042-.008-.062 1.18-1.228 2.113-1.373 2.233.048h.464c.033-1.369.744-1.347 2.225-.087-.013.032-.02.066-.02.101z" fill="none" stroke="#04517d" stroke-miterlimit="3.864" stroke-width=".015" transform="translate(98.554 74.0721)"/><path d="m0 0c0 .241-.1.46-.26.616-.054.052-.115.098-.182.135-.123.069-.266.108-.417.108-.475 0-.86-.384-.86-.859 0-.122.026-.238.071-.343-.615.111-1.084-.13-1.406-.725-.953-.039-1.457-.503-1.511-1.39-.425-.101-.652-.385-.683-.852-.458-.042-.725-.377-.804-1.005-.731 0-.792-1.107.059-1.236.181-.173.402-.577.546-1.019.208-.416.45-.802.713-.943-.029-.525.032-.89.142-1.158l.082-1.133c.123-.293.329-.597.638-.607.505.031.588.38.432 1.05l.048 1.342c.082-.077.146-.217.193-.418.069-.54.069-1.336.151-2.376.189-.483.316-.424.587-.504.33.023.499.187.576.587.001.322-.046.599-.141.83-.079.539-.102 1.16-.048 1.832.021.489.04.807.148.983.221.236.271.426.33.947.057.126.399.104.535.35.076.389.061.916-.031 1.668-.137.343-.175.669-.113.978.013.144.066.242.16.295.048-.034.204-.141.396.011.14-.046.229-.174.279-.378.011-.279-.005-.539-.049-.779-.056-.29-.014-.786.192-1.218.03-.108-.017-.236.021-.34-.062-.206-.188-.327-.226-.77-.01-.257.134-.678.134-.678.156-.325.231-1.115.226-2.413-.093-.134-.124-.319.01-.515.329-.175.475-.158.793.027.137.165.241.344.313.539.058.832.05 1.467-.024 1.904.01.099.053.147.129.145.149-.225.243-.479.302-.741-.01-1.349-.155-2.118-.11-2.41.059-.185.234-.288.615-.267.278.123.752.878.752.878.103.554.111 1.197.024 1.929-.013.14-.013.232.024.41.035.12.055.14.144.153.365-.088.617.099.756.562.035.232.027.548-.025.948-.014.239-.086.435-.216.587.352.577.263 1.144-.265 1.703.182.697-.105 1.228-.861 1.592.024.698-.38 1.038-1.213 1.02-.138.439-.516.651-1.135.635.038.097.059.203.059.313m1.955 1.337 1.221.887 1.269-.923-.485 1.493 1.229.892h-1.501l-.01.03h-.017l-.467 1.435-.476-1.465h-1.555l1.226-.9.03-.022zm-4.283 0 1.22.887 1.27-.923-.485 1.493 1.229.892h-1.501l-.01.03h-.018l-.466 1.435-.476-1.465h-1.555l1.225-.9.03-.022zm-4.236 0 1.221.887 1.269-.923-.484 1.493 1.228.892h-1.501l-.009.03h-.018l-.466 1.435-.476-1.465h-1.556l1.226-.9.03-.022zm5.873 5.984c-.25-.078-.548.036-.544.043 0 0-.026-.49-.018-.57.008-.081.318-.136.374-.176s.203.085.203.085.014.375-.015.618m6.399-10.048v-3.204c.198.196.356.428.472.695.176.347.182.889-.035 1.541-.133.353-.279.68-.437.968m-13.549.09c-.179-.31-.343-.67-.49-1.064-.218-.651-.212-1.193-.036-1.541.127-.29.302-.539.526-.745zm5.547 8.51h2.731c-.086.047-.402.337-.556.298-.048-.012.282-.295.282-.295s-.464-.006-.531.016-.559.336-.648.369c-.08.03-1.039-.33-1.278-.388m-.703 0h.645c-.036.045-.112.205-.112.237 0 .03-.417-.175-.533-.237m-7.368 4.791c.043.306.321.378.444.089.078-.171.061-.319-.051-.442-.012-.637-.041-1.082-.196-1.349-.163-.186-.114-.296.103-.33.471-.279.842-.691 1.112-1.235.999-2.581.502-5.217-1.411-8.961-.225-.618-.318-1.352-.277-2.201l.013-.503 1.465-.003.588 2.094c.048.131.152.22.312.266l.422.072v7.712h4.56c-.059.041.154.533.277.6s1.363.291 1.363.291.011.625.011.726c0 .1-.314.289-.437.413-.123.123-.256.391-.39.614-.134.222-.28.513-.347.603-.067.089-.402.692-.502.86-.101.168-.123.48-.179.726-.049.216-.422.813-.597 1.088-.262-.216-.374-.263-.749-.417-.356-.096-.693-.148-1.04-.143-.63.065-1.054.312-1.273.742-.133.379-.086.794.142 1.243.03.05.063.05.098 0l.823-1.108c.355-.361.707-.496 1.146-.45.425.094.502.179.737.329-.12.25-.324.809-.486 1.406-.738.031-3.379-.039-4.66 2.238-.597 1.071-1.112 2.327-1.812 2.78-.515.28-.917.253-1.42-.033.281.312.522.505.822.578.245.041.585.007.877.007.774-.175 1.798-1.208 1.745-1.169.116-.19.259-.829.367-1.501.074-.283.447-.613.598-.853-.069.319-.09.64-.047.894.292-.218.468-.265.883-.422.523-.373.795-.985 1.195-1.528.305-.338.874-.56 1.356-.607l-.012.053c-.282 1.259.519 2.455.854 2.527.054.012.112.076.006.109-.207.066-.372.225-.39.558-.012.219-.101 1.363-.067 1.486.033.123.233.034.256-.033.022-.067.056-.883.101-1.229.044-.345.358-.569.47-.614.111-.045.736-.011.892-.011.157 0 .045.033.135.078.089.045.156.045.212.011.056-.033.023-.19-.033-.268-.056-.079-.28-.2-.47-.234-.191-.033-.368.042-.503.034-.321-.021-.455-.165-.569-.28-.272-.273-.402-.614-.536-1.195s.045-1.195.157-1.486.345-1.004.547-1.396c.201-.392.468-.726.603-.982.134-.256.145-.269.212-.67.067-.402.747-1.632 1.061-2.078.313-.446.636-.491 1.038-.547s.581.11.625.144c.045.034-.535 1.107-.647 1.241s-.2.144-.2.144-.045.123 0 .168c.044.045.401-.045.58-.134.179-.09 1.029-2.155 1.085-2.222s.711-.245.756-.234c.045.012-.582 1.629-.571 1.695s.284 0 .318 0 .575-1.734.575-1.734l.25-.077c-.092.353-.369 2.26-.402 2.282-1.866 1.244-2.536 2.166-2.983 2.769-.481.648-.57 1.318-.581 2.01-.011.693.224.928.336 1.074.112.145.334.134.39.111.056-.022.045-.167-.011-.223s-.246-.291-.301-1.016c-.166-2.202 4.232-5.07 3.876-4.714-.034.034-.258.614-.303.704-.044.09-1.607 1.296-1.685 1.417-.079.122-.102.253.058.324.155.069 1.542-.969 1.661-.96.04.003 0 .056-.022.123-.023.067-1.408 1.118-1.43 1.172-.023.055.101.291.145.302.045.012 1.128-.782 1.184-.804s-.011.112-.022.179c-.012.067-.96.916-1.005.971s.09.414.101.437c.011.022.792-.671.792-.671s0 .101-.044.234c-.043.133-.604.76-.67.827s.055.436.077.513.392-.401.392-.401.022-.009-.056.168c-.317.716-1.27 1.637-1.575 1.82-.112.067-.156.09-.167.157s.144.056.267.056.157.033.168.123c.011.089-.089.155-.213.233-.123.079-.222 0-.446-.056-.224-.055-.536.079-.614.112-.078.034-.067.079.034.101.28.062.472.068.603.301-.506-.076-1.292-.087-1.395-.021-.071.045-.234.218-.291.299s.024.113.089.113.137-.154.283-.194 1.124.024 1.318.048c.194.025.303.219.368.276.064.056.008.117-.073.125s-.368-.061-.473-.061-.113 0-.113.077c0 .076.404.234.545.348.142.113.211.367.211.367s.032.097.097.089.105-.169.178-.392c.073-.222-.122-.691-.308-.909-.03-.036-.096-.068-.185-.095.07-.085.661-.802.966-1.265.122-.185.264-.431.401-.687.045-.046.094-.099.122-.123.195-.295.522-.511 1.006-.489.701-.06 1.254.226 1.567.573.4.543.672 1.155 1.195 1.529.415.156.591.203.884.421.042-.254.021-.575-.048-.894.151.24.524.57.598.853.108.673.251 1.311.367 1.501-.053-.039.971.994 1.746 1.169.292 0 .631.034.876-.007.3-.073.541-.265.822-.577-.503.285-.905.312-1.42.032-.7-.453-1.215-1.709-1.812-2.78-1.297-2.306-4.022-2.255-4.851-2.221l-.576.019c.02-.049.036-.095.05-.135.054-.166.142-.677.245-1.277.209-.165.304-.266.723-.359.439-.046.791.089 1.146.45l.824 1.108c.034.05.067.05.097 0 .228-.449.275-.864.142-1.243-.219-.43-.643-.677-1.273-.741-.347-.006-.684.046-1.04.142-.29.125-.467.204-.561.31.095-.552.2-1.137.3-1.577.235-1.027 1.005-1.955 1.061-2.19s-1.128.146-1.206.112c-.079-.033.29-1.804.223-1.815s-1.798.391-1.977.513-.29.654-.369.71c-.078.056-.145-.044-.246-.123-.101-.078.023-.558.123-.647.101-.09.504-.168.603-.235.1-.068.157-.245.224-.29s.302-.235.302-.235l-.171-.008h4.885v-7.716l.368-.063c.16-.046.264-.135.313-.266l.587-2.093 1.466.003.013.503c.04.849-.052 1.582-.278 2.201-1.912 3.744-2.41 6.379-1.411 8.96.27.544.641.956 1.112 1.235.218.034.266.144.103.33-.154.268-.183.712-.196 1.349-.112.123-.129.271-.051.442.123.289.401.217.444-.088.03-.622-.115-1.188.168-1.584.123-.19.315-.298.575-.323l.827-.056c.209.011.373.105.491.28.183.045.22-.03.112-.224-.083-.194-.247-.345-.491-.455l-1.248.077c-.91-.106-1.43-.708-1.558-1.807-.452-1.539-.204-3.552.732-6.056.91-1.688 1.147-2.419 1.163-2.675l.082-1.648c.004-.117-.101-.691.604-1.285.383-.171.672-.495.866-.967.204-.531.276-.889 1.075-1.408.649-.249 1.371-.26 1.489-.046.156.166.175.401.054.704l-.487 1.255c-.093.232-.288.49-.587.776-.07.144-.003.279.199.217l.442-.235.361-.46 1.652-4.252 1.169-.353-.51 3.486.415-.163.479-3.421.442-.172-.677 4.803c-3.502 3.082-5.315 5.785-5.439 8.11-.208 1.187.128 2.699.844 2.885.164.03.231-.012.199-.127-.462-.785-.612-1.704-.448-2.757.273-2.615 2.257-5.394 6.02-8.38-.296.568-.447 1.096-.522 1.626-.542.32-1.44 1.234-2.727 2.694l.255.527c.519-.581 1.372-1.277 2.556-2.041-.014.065-.003.188-.021.247-1.02.9-1.789 1.679-2.319 2.33l.238.649c.563-.556 1.167-1.071 1.812-1.544l-.035.329c-.79.728-1.273 1.315-1.634 1.788l.207.848 1.15-1.172-.031.482c-.335.424-.614.826-1.056 1.438l.143 1.085.616-.912c-.007.087 0 .404-.213.726-.649 1.367-2.064 2.777-2.576 3.213-.016.137.105.226.299.227.121-.025.224-.025.309 0 .141.191.086.376-.165.556-.226.102-.364.06-.7-.103-.491-.014-.834.089-1.03.309-.019.052.002.087.062.103l.865.329v.124c-.516-.138-1.059-.158-1.627-.062-.289.039-.46.252-.515.638-.061.136.054.159.145.083.136-.221.349-.331.638-.33.763.01 1.216.051 1.359.124.3.101.472.28.515.535.02.073-.014.093-.103.062-.39-.163-.5-.112-.75-.091-.155-.005-.14.086.029.173.688.371.99.824.906 1.359.042.111.09.145.143.104.435-.792.378-1.712-.125-2.382-.039-.039-.057-.084-.054-.135l.072-.091c1.259-1.527 2.1-3.283 2.682-5.28.398-1.859.839-6.685 1.578-8.007.281-.762.624-1.457 1.03-2.086-.699-.082-1.452.115-1.905.271l.532-4.062-2.879.867-.731 1.976c-.039.098-.104.146-.224.062-.249-.151-1.011-.05-1.058-.043-.205.038-.269.025-.289-.082-.029-.172-.035-.542-.018-1.11.033-.197.166-.356.397-.478l.388-.145c.188-.056.329-.157.394-.287.074-.21.212-.393.415-.55.127-.045.224-.053.194-.279-.019-.176-.156-.276-.29-.256-.212.018-.377.108-.496.271-.225.312-.517.549-.876.713-.344.182-.886.197-1.541-.009-.77-.273-1.413-.613-1.812-1.002-.075-.047-.127-.044-.158.009l.18.956c.049.159.139.262.271.308l2.103.55.037 1.517c-.443.309-.771.7-.984 1.173-.213.826-1.192 1.237-1.192 1.237-.386.218-.575.379-.825.397-.012.014-.023.027-.032.04-.198.014-.535.005-1.011-.017-.196-.037-.353-.172-.471-.406l-.138-.39c-.053-.189-.106-.237-.28-.399-.209-.078-.39-.219-.543-.425-.011-.033-.028-.066-.049-.097v-.079c-.289-.906-2.764-4.702-6.842-6.267-3.171 1.153-6.171 4.613-6.707 6.219v.061c-.045.041-.083.099-.102.158-.154.206-.335.347-.543.424-.175.162-.227.211-.281.399l-.137.391c-.118.234-.275.369-.472.406-.476.022-.813.031-1.011.016-.009-.012-.019-.025-.031-.039-.251-.018-.44-.179-.826-.397 0 0-.979-.411-1.191-1.237-.214-.473-.542-.864-.984-1.173l.036-1.517 2.103-.55c.132-.047.222-.149.271-.308l.18-.956c-.03-.053-.083-.056-.157-.009-.4.389-1.043.729-1.813 1.002-.655.206-1.197.191-1.541.009-.358-.164-.65-.402-.876-.713-.119-.163-.284-.253-.496-.271-.133-.02-.27.08-.29.256-.03.225.067.234.194.278.203.158.341.341.415.551.065.13.207.23.394.287l.388.144c.232.122.364.282.397.479.017.567.011.938-.018 1.11-.02.107-.083.119-.289.081-.046-.007-.808-.107-1.057.043-.12.085-.186.037-.224-.061l-.732-1.977-2.879-.866.532 4.062c-.453-.157-1.205-.354-1.904-.271.406.629.749 1.324 1.029 2.085.74 1.323 1.18 6.149 1.578 8.008.582 1.996 1.423 3.752 2.682 5.28l.073.09c.002.052-.016.097-.054.136-.504.67-.56 1.59-.125 2.381.053.042.1.008.142-.103-.084-.535.218-.988.906-1.359.169-.087.185-.178.029-.173-.25-.021-.36-.072-.75.091-.089.031-.123.011-.103-.062.043-.255.215-.434.515-.535.144-.073.597-.114 1.359-.124.29-.001.503.109.639.33.09.075.205.053.144-.083-.054-.386-.226-.599-.515-.638-.568-.096-1.11-.076-1.627.062v-.124l.865-.329c.06-.016.081-.051.062-.103-.195-.22-.539-.323-1.03-.309-.335.163-.474.204-.7.103-.25-.18-.305-.366-.165-.556.085-.025.188-.025.309 0 .195-.001.315-.091.299-.227-.511-.436-1.927-1.847-2.576-3.214-.213-.321-.206-.638-.213-.725l.616.912.143-1.085c-.441-.612-.72-1.014-1.055-1.439l-.031-.481 1.149 1.172.207-.848c-.36-.473-.844-1.06-1.634-1.789l-.035-.328c.645.473 1.249.988 1.812 1.544l.238-.649c-.53-.652-1.298-1.43-2.319-2.33-.018-.059-.006-.182-.021-.247 1.184.764 2.038 1.46 2.556 2.041l.255-.528c-1.287-1.459-2.185-2.373-2.727-2.694-.075-.529-.226-1.057-.521-1.625 3.762 2.986 5.746 5.765 6.019 8.38.164 1.053.015 1.972-.447 2.757-.032.115.034.157.198.126.717-.185 1.052-1.697.844-2.884-.123-2.325-1.936-5.028-5.439-8.11l-.677-4.803.443.172.478 3.421.415.162-.51-3.485 1.169.353 1.652 4.252.361.46.443.235c.201.061.268-.073.198-.217-.298-.286-.494-.545-.587-.776l-.487-1.255c-.12-.303-.102-.538.054-.704.118-.214.84-.204 1.489.046.799.519.871.876 1.075 1.407.195.473.484.797.867.967.704.595.6 1.169.603 1.286l.082 1.648c.017.256.253.987 1.164 2.675.935 2.504 1.183 4.517.731 6.056-.128 1.099-.647 1.701-1.558 1.806l-1.248-.076c-.244.11-.408.261-.49.454-.109.195-.072.27.112.224.117-.175.281-.268.49-.28l.827.056c.261.026.452.133.575.323.283.397.139.963.168 1.584" fill="#04517d" transform="translate(112.0613 58.428)"/><path d="m0 0c0 .241-.1.46-.26.616-.054.052-.115.098-.182.135-.123.069-.266.108-.417.108-.475 0-.86-.384-.86-.859 0-.122.026-.238.071-.343-.615.111-1.084-.13-1.406-.725-.953-.039-1.457-.503-1.511-1.39-.425-.101-.652-.385-.683-.852-.458-.042-.725-.377-.804-1.005-.731 0-.792-1.107.059-1.236.181-.173.402-.577.546-1.019.208-.416.45-.802.713-.943-.029-.525.032-.89.142-1.158l.082-1.133c.123-.293.329-.597.638-.607.505.031.588.38.432 1.05l.048 1.342c.082-.077.146-.217.193-.418.069-.54.069-1.336.151-2.376.189-.483.316-.424.587-.504.33.023.499.187.576.587.001.322-.046.599-.141.83-.079.539-.102 1.16-.048 1.832.021.489.04.807.148.983.221.236.271.426.33.947.057.126.399.104.535.35.076.389.061.916-.031 1.668-.137.343-.175.669-.113.978.013.144.066.242.16.295.048-.034.204-.141.396.011.14-.046.229-.174.279-.378.011-.279-.005-.539-.049-.779-.056-.29-.014-.786.192-1.218.03-.108-.017-.236.021-.34-.062-.206-.188-.327-.226-.77-.01-.257.134-.678.134-.678.156-.325.231-1.115.226-2.413-.093-.134-.124-.319.01-.515.329-.175.475-.158.793.027.137.165.241.344.313.539.058.832.05 1.467-.024 1.904.01.099.053.147.129.145.149-.225.243-.479.302-.741-.01-1.349-.155-2.118-.11-2.41.059-.185.234-.288.615-.267.278.123.752.878.752.878.103.554.111 1.197.024 1.929-.013.14-.013.232.024.41.035.12.055.14.144.153.365-.088.617.099.756.562.035.232.027.548-.025.948-.014.239-.086.435-.216.587.352.577.263 1.144-.265 1.703.182.697-.105 1.228-.861 1.592.024.698-.38 1.038-1.213 1.02-.138.439-.516.651-1.135.635.038.097.059.203.059.313zm1.955 1.337 1.221.887 1.269-.923-.485 1.493 1.229.892h-1.501l-.01.03h-.017l-.467 1.435-.476-1.465h-1.555l1.226-.9.03-.022zm-4.283 0 1.22.887 1.27-.923-.485 1.493 1.229.892h-1.501l-.01.03h-.018l-.466 1.435-.476-1.465h-1.555l1.225-.9.03-.022zm-4.236 0 1.221.887 1.269-.923-.484 1.493 1.228.892h-1.501l-.009.03h-.018l-.466 1.435-.476-1.465h-1.556l1.226-.9.03-.022zm5.873 5.984c-.25-.078-.548.036-.544.043 0 0-.026-.49-.018-.57.008-.081.318-.136.374-.176s.203.085.203.085.014.375-.015.618zm6.399-10.048v-3.204c.198.196.356.428.472.695.176.347.182.889-.035 1.541-.133.353-.279.68-.437.968zm-13.549.09c-.179-.31-.343-.67-.49-1.064-.218-.651-.212-1.193-.036-1.541.127-.29.302-.539.526-.745zm5.547 8.51h2.731c-.086.047-.402.337-.556.298-.048-.012.282-.295.282-.295s-.464-.006-.531.016-.559.336-.648.369c-.08.03-1.039-.33-1.278-.388zm-.703 0h.645c-.036.045-.112.205-.112.237 0 .03-.417-.175-.533-.237zm-7.368 4.791c.043.306.321.378.444.089.078-.171.061-.319-.051-.442-.012-.637-.041-1.082-.196-1.349-.163-.186-.114-.296.103-.33.471-.279.842-.691 1.112-1.235.999-2.581.502-5.217-1.411-8.961-.225-.618-.318-1.352-.277-2.201l.013-.503 1.465-.003.588 2.094c.048.131.152.22.312.266l.422.072v7.712h4.56c-.059.041.154.533.277.6s1.363.291 1.363.291.011.625.011.726c0 .1-.314.289-.437.413-.123.123-.256.391-.39.614-.134.222-.28.513-.347.603-.067.089-.402.692-.502.86-.101.168-.123.48-.179.726-.049.216-.422.813-.597 1.088-.262-.216-.374-.263-.749-.417-.356-.096-.693-.148-1.04-.143-.63.065-1.054.312-1.273.742-.133.379-.086.794.142 1.243.03.05.063.05.098 0l.823-1.108c.355-.361.707-.496 1.146-.45.425.094.502.179.737.329-.12.25-.324.809-.486 1.406-.738.031-3.379-.039-4.66 2.238-.597 1.071-1.112 2.327-1.812 2.78-.515.28-.917.253-1.42-.033.281.312.522.505.822.578.245.041.585.007.877.007.774-.175 1.798-1.208 1.745-1.169.116-.19.259-.829.367-1.501.074-.283.447-.613.598-.853-.069.319-.09.64-.047.894.292-.218.468-.265.883-.422.523-.373.795-.985 1.195-1.528.305-.338.874-.56 1.356-.607l-.012.053c-.282 1.259.519 2.455.854 2.527.054.012.112.076.006.109-.207.066-.372.225-.39.558-.012.219-.101 1.363-.067 1.486.033.123.233.034.256-.033.022-.067.056-.883.101-1.229.044-.345.358-.569.47-.614.111-.045.736-.011.892-.011.157 0 .045.033.135.078.089.045.156.045.212.011.056-.033.023-.19-.033-.268-.056-.079-.28-.2-.47-.234-.191-.033-.368.042-.503.034-.321-.021-.455-.165-.569-.28-.272-.273-.402-.614-.536-1.195s.045-1.195.157-1.486.345-1.004.547-1.396c.201-.392.468-.726.603-.982.134-.256.145-.269.212-.67.067-.402.747-1.632 1.061-2.078.313-.446.636-.491 1.038-.547s.581.11.625.144c.045.034-.535 1.107-.647 1.241s-.2.144-.2.144-.045.123 0 .168c.044.045.401-.045.58-.134.179-.09 1.029-2.155 1.085-2.222s.711-.245.756-.234c.045.012-.582 1.629-.571 1.695s.284 0 .318 0 .575-1.734.575-1.734l.25-.077c-.092.353-.369 2.26-.402 2.282-1.866 1.244-2.536 2.166-2.983 2.769-.481.648-.57 1.318-.581 2.01-.011.693.224.928.336 1.074.112.145.334.134.39.111.056-.022.045-.167-.011-.223s-.246-.291-.301-1.016c-.166-2.202 4.232-5.07 3.876-4.714-.034.034-.258.614-.303.704-.044.09-1.607 1.296-1.685 1.417-.079.122-.102.253.058.324.155.069 1.542-.969 1.661-.96.04.003 0 .056-.022.123-.023.067-1.408 1.118-1.43 1.172-.023.055.101.291.145.302.045.012 1.128-.782 1.184-.804s-.011.112-.022.179c-.012.067-.96.916-1.005.971s.09.414.101.437c.011.022.792-.671.792-.671s0 .101-.044.234c-.043.133-.604.76-.67.827s.055.436.077.513.392-.401.392-.401.022-.009-.056.168c-.317.716-1.27 1.637-1.575 1.82-.112.067-.156.09-.167.157s.144.056.267.056.157.033.168.123c.011.089-.089.155-.213.233-.123.079-.222 0-.446-.056-.224-.055-.536.079-.614.112-.078.034-.067.079.034.101.28.062.472.068.603.301-.506-.076-1.292-.087-1.395-.021-.071.045-.234.218-.291.299s.024.113.089.113.137-.154.283-.194 1.124.024 1.318.048c.194.025.303.219.368.276.064.056.008.117-.073.125s-.368-.061-.473-.061-.113 0-.113.077c0 .076.404.234.545.348.142.113.211.367.211.367s.032.097.097.089.105-.169.178-.392c.073-.222-.122-.691-.308-.909-.03-.036-.096-.068-.185-.095.07-.085.661-.802.966-1.265.122-.185.264-.431.401-.687.045-.046.094-.099.122-.123.195-.295.522-.511 1.006-.489.701-.06 1.254.226 1.567.573.4.543.672 1.155 1.195 1.529.415.156.591.203.884.421.042-.254.021-.575-.048-.894.151.24.524.57.598.853.108.673.251 1.311.367 1.501-.053-.039.971.994 1.746 1.169.292 0 .631.034.876-.007.3-.073.541-.265.822-.577-.503.285-.905.312-1.42.032-.7-.453-1.215-1.709-1.812-2.78-1.297-2.306-4.022-2.255-4.851-2.221l-.576.019c.02-.049.036-.095.05-.135.054-.166.142-.677.245-1.277.209-.165.304-.266.723-.359.439-.046.791.089 1.146.45l.824 1.108c.034.05.067.05.097 0 .228-.449.275-.864.142-1.243-.219-.43-.643-.677-1.273-.741-.347-.006-.684.046-1.04.142-.29.125-.467.204-.561.31.095-.552.2-1.137.3-1.577.235-1.027 1.005-1.955 1.061-2.19s-1.128.146-1.206.112c-.079-.033.29-1.804.223-1.815s-1.798.391-1.977.513-.29.654-.369.71c-.078.056-.145-.044-.246-.123-.101-.078.023-.558.123-.647.101-.09.504-.168.603-.235.1-.068.157-.245.224-.29s.302-.235.302-.235l-.171-.008h4.885v-7.716l.368-.063c.16-.046.264-.135.313-.266l.587-2.093 1.466.003.013.503c.04.849-.052 1.582-.278 2.201-1.912 3.744-2.41 6.379-1.411 8.96.27.544.641.956 1.112 1.235.218.034.266.144.103.33-.154.268-.183.712-.196 1.349-.112.123-.129.271-.051.442.123.289.401.217.444-.088.03-.622-.115-1.188.168-1.584.123-.19.315-.298.575-.323l.827-.056c.209.011.373.105.491.28.183.045.22-.03.112-.224-.083-.194-.247-.345-.491-.455l-1.248.077c-.91-.106-1.43-.708-1.558-1.807-.452-1.539-.204-3.552.732-6.056.91-1.688 1.147-2.419 1.163-2.675l.082-1.648c.004-.117-.101-.691.604-1.285.383-.171.672-.495.866-.967.204-.531.276-.889 1.075-1.408.649-.249 1.371-.26 1.489-.046.156.166.175.401.054.704l-.487 1.255c-.093.232-.288.49-.587.776-.07.144-.003.279.199.217l.442-.235.361-.46 1.652-4.252 1.169-.353-.51 3.486.415-.163.479-3.421.442-.172-.677 4.803c-3.502 3.082-5.315 5.785-5.439 8.11-.208 1.187.128 2.699.844 2.885.164.03.231-.012.199-.127-.462-.785-.612-1.704-.448-2.757.273-2.615 2.257-5.394 6.02-8.38-.296.568-.447 1.096-.522 1.626-.542.32-1.44 1.234-2.727 2.694l.255.527c.519-.581 1.372-1.277 2.556-2.041-.014.065-.003.188-.021.247-1.02.9-1.789 1.679-2.319 2.33l.238.649c.563-.556 1.167-1.071 1.812-1.544l-.035.329c-.79.728-1.273 1.315-1.634 1.788l.207.848 1.15-1.172-.031.482c-.335.424-.614.826-1.056 1.438l.143 1.085.616-.912c-.007.087 0 .404-.213.726-.649 1.367-2.064 2.777-2.576 3.213-.016.137.105.226.299.227.121-.025.224-.025.309 0 .141.191.086.376-.165.556-.226.102-.364.06-.7-.103-.491-.014-.834.089-1.03.309-.019.052.002.087.062.103l.865.329v.124c-.516-.138-1.059-.158-1.627-.062-.289.039-.46.252-.515.638-.061.136.054.159.145.083.136-.221.349-.331.638-.33.763.01 1.216.051 1.359.124.3.101.472.28.515.535.02.073-.014.093-.103.062-.39-.163-.5-.112-.75-.091-.155-.005-.14.086.029.173.688.371.99.824.906 1.359.042.111.09.145.143.104.435-.792.378-1.712-.125-2.382-.039-.039-.057-.084-.054-.135l.072-.091c1.259-1.527 2.1-3.283 2.682-5.28.398-1.859.839-6.685 1.578-8.007.281-.762.624-1.457 1.03-2.086-.699-.082-1.452.115-1.905.271l.532-4.062-2.879.867-.731 1.976c-.039.098-.104.146-.224.062-.249-.151-1.011-.05-1.058-.043-.205.038-.269.025-.289-.082-.029-.172-.035-.542-.018-1.11.033-.197.166-.356.397-.478l.388-.145c.188-.056.329-.157.394-.287.074-.21.212-.393.415-.55.127-.045.224-.053.194-.279-.019-.176-.156-.276-.29-.256-.212.018-.377.108-.496.271-.225.312-.517.549-.876.713-.344.182-.886.197-1.541-.009-.77-.273-1.413-.613-1.812-1.002-.075-.047-.127-.044-.158.009l.18.956c.049.159.139.262.271.308l2.103.55.037 1.517c-.443.309-.771.7-.984 1.173-.213.826-1.192 1.237-1.192 1.237-.386.218-.575.379-.825.397-.012.014-.023.027-.032.04-.198.014-.535.005-1.011-.017-.196-.037-.353-.172-.471-.406l-.138-.39c-.053-.189-.106-.237-.28-.399-.209-.078-.39-.219-.543-.425-.011-.033-.028-.066-.049-.097v-.079c-.289-.906-2.764-4.702-6.842-6.267-3.171 1.153-6.171 4.613-6.707 6.219v.061c-.045.041-.083.099-.102.158-.154.206-.335.347-.543.424-.175.162-.227.211-.281.399l-.137.391c-.118.234-.275.369-.472.406-.476.022-.813.031-1.011.016-.009-.012-.019-.025-.031-.039-.251-.018-.44-.179-.826-.397 0 0-.979-.411-1.191-1.237-.214-.473-.542-.864-.984-1.173l.036-1.517 2.103-.55c.132-.047.222-.149.271-.308l.18-.956c-.03-.053-.083-.056-.157-.009-.4.389-1.043.729-1.813 1.002-.655.206-1.197.191-1.541.009-.358-.164-.65-.402-.876-.713-.119-.163-.284-.253-.496-.271-.133-.02-.27.08-.29.256-.03.225.067.234.194.278.203.158.341.341.415.551.065.13.207.23.394.287l.388.144c.232.122.364.282.397.479.017.567.011.938-.018 1.11-.02.107-.083.119-.289.081-.046-.007-.808-.107-1.057.043-.12.085-.186.037-.224-.061l-.732-1.977-2.879-.866.532 4.062c-.453-.157-1.205-.354-1.904-.271.406.629.749 1.324 1.029 2.085.74 1.323 1.18 6.149 1.578 8.008.582 1.996 1.423 3.752 2.682 5.28l.073.09c.002.052-.016.097-.054.136-.504.67-.56 1.59-.125 2.381.053.042.1.008.142-.103-.084-.535.218-.988.906-1.359.169-.087.185-.178.029-.173-.25-.021-.36-.072-.75.091-.089.031-.123.011-.103-.062.043-.255.215-.434.515-.535.144-.073.597-.114 1.359-.124.29-.001.503.109.639.33.09.075.205.053.144-.083-.054-.386-.226-.599-.515-.638-.568-.096-1.11-.076-1.627.062v-.124l.865-.329c.06-.016.081-.051.062-.103-.195-.22-.539-.323-1.03-.309-.335.163-.474.204-.7.103-.25-.18-.305-.366-.165-.556.085-.025.188-.025.309 0 .195-.001.315-.091.299-.227-.511-.436-1.927-1.847-2.576-3.214-.213-.321-.206-.638-.213-.725l.616.912.143-1.085c-.441-.612-.72-1.014-1.055-1.439l-.031-.481 1.149 1.172.207-.848c-.36-.473-.844-1.06-1.634-1.789l-.035-.328c.645.473 1.249.988 1.812 1.544l.238-.649c-.53-.652-1.298-1.43-2.319-2.33-.018-.059-.006-.182-.021-.247 1.184.764 2.038 1.46 2.556 2.041l.255-.528c-1.287-1.459-2.185-2.373-2.727-2.694-.075-.529-.226-1.057-.521-1.625 3.762 2.986 5.746 5.765 6.019 8.38.164 1.053.015 1.972-.447 2.757-.032.115.034.157.198.126.717-.185 1.052-1.697.844-2.884-.123-2.325-1.936-5.028-5.439-8.11l-.677-4.803.443.172.478 3.421.415.162-.51-3.485 1.169.353 1.652 4.252.361.46.443.235c.201.061.268-.073.198-.217-.298-.286-.494-.545-.587-.776l-.487-1.255c-.12-.303-.102-.538.054-.704.118-.214.84-.204 1.489.046.799.519.871.876 1.075 1.407.195.473.484.797.867.967.704.595.6 1.169.603 1.286l.082 1.648c.017.256.253.987 1.164 2.675.935 2.504 1.183 4.517.731 6.056-.128 1.099-.647 1.701-1.558 1.806l-1.248-.076c-.244.11-.408.261-.49.454-.109.195-.072.27.112.224.117-.175.281-.268.49-.28l.827.056c.261.026.452.133.575.323.283.397.139.963.168 1.584z" fill="none" stroke="#04517d" stroke-miterlimit="3.864" stroke-width=".015" transform="translate(112.0613 58.428)"/><path d="m0 0 .464 1.427-.03.022-1.226.9h1.555l.476 1.465.467-1.435h.017l.01-.03h1.501l-1.229-.892.485-1.492-1.269.922z" fill="#9bbed4" transform="translate(105.4976 59.7646)"/><path d="m0 0 .464 1.427-.03.022-1.226.9h1.555l.476 1.465.467-1.435h.017l.01-.03h1.501l-1.229-.892.485-1.492-1.269.922z" fill="none" stroke="#9bbed4" stroke-miterlimit="3.864" stroke-width=".079" transform="translate(105.4976 59.7646)"/><path d="m0 0 .464 1.427-.03.022-1.226.9h1.555l.476 1.465.467-1.435h.017l.01-.03h1.501l-1.229-.892.485-1.492-1.269.922z" fill="#9bbed4" transform="translate(109.7331 59.7646)"/><path d="m0 0 .464 1.427-.03.022-1.226.9h1.555l.476 1.465.467-1.435h.017l.01-.03h1.501l-1.229-.892.485-1.492-1.269.922z" fill="none" stroke="#9bbed4" stroke-miterlimit="3.864" stroke-width=".079" transform="translate(109.7331 59.7646)"/><path d="m0 0 .464 1.427-.03.022-1.226.9h1.555l.476 1.465.467-1.435h.017l.01-.03h1.501l-1.229-.892.485-1.492-1.269.922z" fill="#9bbed4" transform="translate(114.0164 59.7646)"/><path d="m0 0 .464 1.427-.03.022-1.226.9h1.555l.476 1.465.467-1.435h.017l.01-.03h1.501l-1.229-.892.485-1.492-1.269.922z" fill="none" stroke="#9bbed4" stroke-miterlimit="3.864" stroke-width=".079" transform="translate(114.0164 59.7646)"/><path d="m0 0c-.186-.183-.302-.379-.349-.586l-.01-.752.123-.463.052-1.185c-.043-.262-.432-.258-.494-.339-.103-.184-.047-.556-.114-.757-.078-.298-.295-.444-.329-.51-.04-.084.01-.381.01-.381.052-.164.021-2.275.103-2.409.086-.254.137-.49.154-.711-.009-.245-.095-.372-.257-.381-.126-.014-.205.068-.237.248.018.448-.006 1.08-.072 1.894-.004.258-.037.494-.098.705l-.468.788c-.049.096-.157.206-.314.33l.129.339c.033.159.047.331.041.515.323.02.588.147.793.381.442.355.19 1.627-.33 1.946-.237.16-.525.139-.891.083-.432-.124-.736-.263-.782-.639-.036-.307.041-.418.263-.406.231.056.18.231.365.391.232.149.551.144.767.056.35-.231.391-.875.273-1.091-.193-.216-.424-.253-.726-.175-.103.046-.273.221-.175.386.143.123.209.101.299.036.127-.091.263-.093.355.026.084.141.017.284-.149.396-.125.086-.321.097-.587.031-.306-.149-.43-.444-.412-.721.048-.334.204-.632.484-.659.031-.123.034-.24.01-.35-.098-.27-.212-.472-.34-.607-.141-.073-.316-.076-.525-.01-.225.123-.401.449-.525.978-.08.345-.234.582-.463.71-.199.054-.309.164-.33.33 0 .247.232.293.597.257.328.12.405.223.555.552.018.031.144.201.151.231.035.103.006.207.002.304.001.076.011.165.012.166.088.564.37.491.613.608.028.014.066.051.063.106-.027.867.41 1.228 1.405 1.287.354.591.723.801 1.356.595v-1.534z" fill="#04517d" fill-rule="evenodd" transform="translate(110.6905 56.0065)"/><path d="m0 0c-.186-.183-.302-.379-.349-.586l-.01-.752.123-.463.052-1.185c-.043-.262-.432-.258-.494-.339-.103-.184-.047-.556-.114-.757-.078-.298-.295-.444-.329-.51-.04-.084.01-.381.01-.381.052-.164.021-2.275.103-2.409.086-.254.137-.49.154-.711-.009-.245-.095-.372-.257-.381-.126-.014-.205.068-.237.248.018.448-.006 1.08-.072 1.894-.004.258-.037.494-.098.705l-.468.788c-.049.096-.157.206-.314.33l.129.339c.033.159.047.331.041.515.323.02.588.147.793.381.442.355.19 1.627-.33 1.946-.237.16-.525.139-.891.083-.432-.124-.736-.263-.782-.639-.036-.307.041-.418.263-.406.231.056.18.231.365.391.232.149.551.144.767.056.35-.231.391-.875.273-1.091-.193-.216-.424-.253-.726-.175-.103.046-.273.221-.175.386.143.123.209.101.299.036.127-.091.263-.093.355.026.084.141.017.284-.149.396-.125.086-.321.097-.587.031-.306-.149-.43-.444-.412-.721.048-.334.204-.632.484-.659.031-.123.034-.24.01-.35-.098-.27-.212-.472-.34-.607-.141-.073-.316-.076-.525-.01-.225.123-.401.449-.525.978-.08.345-.234.582-.463.71-.199.054-.309.164-.33.33 0 .247.232.293.597.257.328.12.405.223.555.552.018.031.144.201.151.231.035.103.006.207.002.304.001.076.011.165.012.166.088.564.37.491.613.608.028.014.066.051.063.106-.027.867.41 1.228 1.405 1.287.354.591.723.801 1.356.595v-1.534z" fill="none" stroke="#04517d" stroke-miterlimit="3.864" stroke-width=".079" transform="translate(110.6905 56.0065)"/><path d="m0 0c.198.031.384.125.513.25.031-.09.07-.158.119-.203-.052-.629-.063-1.298-.034-2.009l.084-.136c.018-.239.024-.299-.033-.394-.082-.045-.184-.008-.227.031-.143.142-.185.248-.222.406-.044.276-.063.622-.058 1.038-.039.029-.091.132-.102.254z" fill="#04517d" fill-rule="evenodd" transform="translate(107.6747 50.8999)"/><path d="m0 0c.198.031.384.125.513.25.031-.09.07-.158.119-.203-.052-.629-.063-1.298-.034-2.009l.084-.136c.018-.239.024-.299-.033-.394-.082-.045-.184-.008-.227.031-.143.142-.185.248-.222.406-.044.276-.063.622-.058 1.038-.039.029-.091.132-.102.254z" fill="none" stroke="#04517d" stroke-miterlimit="3.864" stroke-width=".079" transform="translate(107.6747 50.8999)"/><path d="m0 0c.024.473-.145.813-.506 1.019l-.012 1.52c.169.135.373.168.611.097.195-.145.333-.337.412-.577.542.06.899-.043 1.07-.309.069-.159.069-.331 0-.514.44-.261.718-.481.834-.659.162-.241.159-.447-.01-.618-.041-.11-.041-.186 0-.227l.412-.525c.221-.275.19-.522-.093-.741-.064-.144-.061-.254.011-.33.265-.545.371-1.004.319-1.379-.097-.238-.269-.259-.515-.062l-.01 1.266c-.124.289-.464.175-.453-.123l-.001-1.461c.013-.197.079-.42.114-.588.047-.111.02-1.534.02-1.534-.019-.262-.07-.461-.154-.598l-.33-.422c-.055-.02-.089-.003-.102.052.135.928.145 1.738.03 2.43l-.597 1.348c-.071.533-.085.986-.041 1.36.133.251.253.43.36.535.102.283.01.396-.278.34-.378-.284-.546-.757-.504-1.421.109-.497.143-.823.103-.978-.073-.061-.118-.146-.134-.258-.068-.399-.049-.771-.015-1.161l-.067-1.258c-.097-.187-.207-.314-.33-.381.006 1.495-.044 2.394-.145 2.848-.105.439-.205.777.02 1.071.089.306.042.574.041.577l-.142.518c-.07.345-.042.726.082 1.143" fill="#04517d" fill-rule="evenodd" transform="translate(112.236 54.967)"/><path d="m0 0c.024.473-.145.813-.506 1.019l-.012 1.52c.169.135.373.168.611.097.195-.145.333-.337.412-.577.542.06.899-.043 1.07-.309.069-.159.069-.331 0-.514.44-.261.718-.481.834-.659.162-.241.159-.447-.01-.618-.041-.11-.041-.186 0-.227l.412-.525c.221-.275.19-.522-.093-.741-.064-.144-.061-.254.011-.33.265-.545.371-1.004.319-1.379-.097-.238-.269-.259-.515-.062l-.01 1.266c-.124.289-.464.175-.453-.123l-.001-1.461c.013-.197.079-.42.114-.588.047-.111.02-1.534.02-1.534-.019-.262-.07-.461-.154-.598l-.33-.422c-.055-.02-.089-.003-.102.052.135.928.145 1.738.03 2.43l-.597 1.348c-.071.533-.085.986-.041 1.36.133.251.253.43.36.535.102.283.01.396-.278.34-.378-.284-.546-.757-.504-1.421.109-.497.143-.823.103-.978-.073-.061-.118-.146-.134-.258-.068-.399-.049-.771-.015-1.161l-.067-1.258c-.097-.187-.207-.314-.33-.381.006 1.495-.044 2.394-.145 2.848-.105.439-.205.777.02 1.071.089.306.042.574.041.577l-.142.518c-.07.345-.042.726.082 1.143z" fill="none" stroke="#04517d" stroke-miterlimit="3.864" stroke-width=".079" transform="translate(112.236 54.967)"/><path d="m0 0c0-.205.166-.371.371-.371.204 0 .37.166.37.371s-.166.371-.37.371c-.205 0-.371-.166-.371-.371m.176-2.865c-.246.127-.317.428-.317.428l-.001 1.724c-.209.156-.345.407-.345.689 0 .474.385.859.859.859.475 0 .86-.385.86-.859 0-.282-.136-.532-.345-.689l.013-1.777c-.092-.258-.317-.371-.317-.371-.21-.165-.376-.023-.407-.004" fill="#f2cb74" transform="translate(110.8296 58.4524)"/><path d="m0 0c0-.205.166-.371.371-.371.204 0 .37.166.37.371s-.166.371-.37.371c-.205 0-.371-.166-.371-.371zm.176-2.865c-.246.127-.317.428-.317.428l-.001 1.724c-.209.156-.345.407-.345.689 0 .474.385.859.859.859.475 0 .86-.385.86-.859 0-.282-.136-.532-.345-.689l.013-1.777c-.092-.258-.317-.371-.317-.371-.21-.165-.376-.023-.407-.004z" fill="none" transform="translate(110.8296 58.4524)"/><path d="m0 0c0 .205.166.371.371.371.204 0 .37-.166.37-.371s-.166-.371-.37-.371c-.205 0-.371.166-.371.371" fill="#04517d" transform="translate(110.8296 58.4524)"/><path d="m0 0c0 .205.166.371.371.371.204 0 .37-.166.37-.371s-.166-.371-.37-.371c-.205 0-.371.166-.371.371z" fill="none" stroke="#04517d" stroke-miterlimit="3.864" stroke-width=".079" transform="translate(110.8296 58.4524)"/></g></svg>