<?xml version="1.0" encoding="utf-8"?>
<!-- Generator: Adobe Illustrator 25.4.1, SVG Export Plug-In . SVG Version: 6.00 Build 0)  -->
<svg version="1.1" id="Layer_1" xmlns="http://www.w3.org/2000/svg" xmlns:xlink="http://www.w3.org/1999/xlink" x="0px" y="0px"
	 viewBox="0 0 285.4 83.3" style="enable-background:new 0 0 285.4 83.3;" xml:space="preserve">
<style type="text/css">
	.st0{fill:#011E41;}
	.st1{fill:#0082CA;}
	.st2{fill:#19233E;}
</style>
<polygon class="st0" points="58.8,2.1 46.3,0 47.4,7 "/>
<polygon class="st1" points="63.6,12.9 57.2,16 34.3,12.7 58.8,2.1 "/>
<polygon class="st0" points="34.3,12.7 65.5,17.3 43.3,28.7 32.7,28.1 "/>
<polygon class="st1" points="71.4,30.4 61.4,36.2 32,34.5 65.5,17.3 "/>
<polygon class="st0" points="32,34.5 74.3,37 47.1,53.9 29.9,54.7 "/>
<polygon class="st1" points="81.2,52.5 74.3,37 0,83.3 44.8,78.6 "/>
<path class="st2" d="M102.9,14.4c-1.2,0-2.4,0.2-3.6,0.8c-1,0.5-1.9,1.2-2.5,2.1v17.2h-3.7V11.7h3.7v1.8c0.8-0.7,1.8-1.3,2.8-1.7
	c1.2-0.5,2.5-0.7,3.8-0.7c2.6-0.1,5.1,0.8,6.9,2.6c1.7,1.7,2.5,4.3,2.5,7.8v12.9h-3.7v-13c0-2.5-0.5-4.3-1.6-5.4
	C106.3,14.8,104.6,14.2,102.9,14.4z M125.8,35c-1.2,0-2.4-0.1-3.5-0.5c-1-0.3-2-0.8-2.8-1.4c-0.8-0.6-1.4-1.4-1.8-2.2
	c-0.5-1-0.7-2.1-0.7-3.2c-0.1-2.2,0.9-4.2,2.6-5.5c1.7-1.4,4.2-2,7.4-2h5.7v-1.6c0.1-1.3-0.4-2.5-1.4-3.3c-1.4-0.7-2.9-1-4.5-0.9
	c-1.3,0-2.6,0.2-3.9,0.5c-1.3,0.3-2.5,0.7-3.6,1.3l-0.4-3.3c1.2-0.6,2.4-1,3.7-1.3c1.4-0.3,2.8-0.5,4.2-0.5c1.4,0,2.7,0.1,4.1,0.4
	c1.1,0.2,2.1,0.7,3,1.4c0.8,0.7,1.5,1.6,1.8,2.6c0.4,1.3,0.6,2.6,0.6,3.9v14.9h-3.7v-1.8c-0.9,0.8-1.9,1.4-3,1.7
	C128.4,34.8,127.1,35,125.8,35L125.8,35z M126.1,31.7c1.3,0,2.6-0.2,3.9-0.7c1.1-0.4,2-1.2,2.7-2.1v-5.5h-5.6
	c-1.7-0.1-3.4,0.3-4.8,1.2c-1,0.7-1.6,1.9-1.5,3.2c-0.1,1.2,0.5,2.4,1.5,3.1C123.4,31.4,124.8,31.8,126.1,31.7L126.1,31.7z
	 M139.4,11.7h4.1V4.8h3.7v6.8h6.9v3.2h-6.9v10.9c0,1,0.1,2.1,0.2,3.1c0.1,0.7,0.4,1.3,0.8,1.8c0.3,0.4,0.8,0.7,1.3,0.9
	c0.6,0.2,1.3,0.2,1.9,0.2c0.7,0,1.5-0.1,2.2-0.3l0.4,3.3c-0.5,0.1-1,0.2-1.6,0.2s-1,0.1-1.4,0.1c-2,0.2-4.1-0.5-5.6-1.9
	c-1.3-1.3-1.9-3.2-1.9-5.9V14.8h-4.1L139.4,11.7z M157.4,4.7c0-1.3,1-2.3,2.3-2.3s2.3,1,2.3,2.3S161,7,159.7,7S157.4,5.9,157.4,4.7z
	 M157.9,11.7h3.7v22.8h-3.7V11.7z M166.1,23.1c0-1.6,0.2-3.2,0.8-4.8c0.5-1.4,1.2-2.7,2.2-3.8c1-1.1,2.1-1.9,3.5-2.5
	c2.9-1.2,6.2-1.2,9.1,0c1.3,0.6,2.5,1.4,3.4,2.5c1,1.1,1.7,2.4,2.2,3.8c1,3.1,1,6.4,0,9.5c-0.5,1.4-1.2,2.7-2.2,3.8
	c-1,1.1-2.1,2-3.5,2.5c-2.9,1.2-6.2,1.2-9.1,0c-1.3-0.6-2.5-1.4-3.5-2.5c-1-1.1-1.7-2.4-2.2-3.8C166.4,26.3,166.1,24.7,166.1,23.1
	L166.1,23.1z M169.9,23.1c-0.1,2.3,0.5,4.5,1.9,6.3c2.7,2.9,7.3,3.1,10.2,0.4c0.1-0.1,0.3-0.3,0.4-0.4c1.3-1.8,2-4.1,1.9-6.3
	c0.1-2.3-0.5-4.5-1.9-6.3c-2.7-2.9-7.3-3.1-10.2-0.4c-0.1,0.1-0.3,0.3-0.4,0.4C170.5,18.5,169.8,20.8,169.9,23.1L169.9,23.1z
	 M202.5,14.4c-1.2,0-2.4,0.2-3.5,0.8c-1,0.5-1.9,1.2-2.5,2.1v17.2h-3.7V11.7h3.7v1.8c0.8-0.7,1.8-1.3,2.8-1.7
	c1.2-0.5,2.5-0.7,3.8-0.7c2.6-0.1,5.1,0.8,6.9,2.6c1.7,1.7,2.5,4.3,2.5,7.8v12.9h-3.7v-13c0-2.5-0.5-4.3-1.6-5.4
	C205.9,14.9,204.2,14.3,202.5,14.4L202.5,14.4z M225.1,35c-1.2,0-2.4-0.1-3.5-0.5c-1-0.3-2-0.7-2.8-1.4c-0.8-0.6-1.4-1.4-1.9-2.2
	c-0.5-1-0.7-2.1-0.7-3.2c-0.1-2.2,0.9-4.2,2.6-5.5c1.7-1.4,4.2-2,7.4-2h5.7v-1.6c0.1-1.3-0.4-2.5-1.4-3.3c-1.4-0.7-2.9-1-4.5-0.9
	c-1.3,0-2.6,0.2-3.9,0.5c-1.3,0.3-2.5,0.7-3.6,1.3l-0.4-3.3c1.2-0.6,2.4-1,3.7-1.3c1.4-0.3,2.8-0.5,4.2-0.5c1.4,0,2.7,0.1,4,0.4
	c1.1,0.2,2.1,0.7,3,1.4c0.8,0.7,1.5,1.6,1.8,2.6c0.4,1.3,0.6,2.6,0.6,3.9v14.9H232v-1.8c-0.9,0.8-1.9,1.4-3,1.7
	C227.7,34.8,226.4,35,225.1,35L225.1,35z M225.5,31.7c1.3,0,2.6-0.2,3.9-0.7c1.1-0.4,2-1.2,2.7-2.1v-5.6h-5.5
	c-1.7-0.1-3.4,0.3-4.8,1.2c-1,0.7-1.6,1.9-1.5,3.2c-0.1,1.2,0.5,2.4,1.5,3.1C222.8,31.4,224.1,31.8,225.5,31.7L225.5,31.7z
	 M241.4,2.3h3.7v32.1h-3.7V2.3z M103.8,52.8c-1.6,0-3,0.6-4.1,1.7v16.9h-6.6V39.3h6.6v10.8c0.8-0.6,1.6-1.1,2.6-1.4
	c1.1-0.4,2.2-0.6,3.3-0.6c2.6-0.1,5.1,0.8,6.8,2.7c1.6,1.8,2.4,4.5,2.4,8v12.6h-6.6V58.9c0.1-1.6-0.3-3.3-1.1-4.7
	C106.4,53.3,105.1,52.7,103.8,52.8z M119.4,42.6c-0.1-0.9,0.2-1.8,0.9-2.5c0.8-0.6,1.8-0.9,2.9-0.8c1-0.1,2.1,0.2,2.9,0.8
	c1.1,1.5,1.1,3.5,0,4.9c-0.8,0.6-1.9,0.9-2.9,0.8c-1,0.1-2.1-0.2-2.9-0.8C119.7,44.4,119.3,43.5,119.4,42.6z M119.9,48.6h6.6v22.8
	h-6.6V48.6z M130.4,59.8c0-1.6,0.2-3.3,0.8-4.8c0.5-1.4,1.2-2.6,2.2-3.7c0.9-1,2-1.8,3.2-2.3c1.2-0.5,2.6-0.8,3.9-0.8
	c1.1,0,2.2,0.2,3.2,0.6c0.9,0.3,1.7,0.8,2.4,1.5v-1.5h6.6v20.6c0,1.7-0.2,3.4-0.7,5c-0.4,1.3-1.1,2.5-2.1,3.4c-1.1,1-2.3,1.6-3.7,2
	c-1.8,0.5-3.6,0.7-5.5,0.6c-1.4,0-2.9-0.1-4.3-0.4c-1.3-0.2-2.6-0.7-3.7-1.3l0.4-5.2c1,0.7,2.2,1.3,3.4,1.7c1.2,0.4,2.5,0.6,3.8,0.6
	c1.5,0.1,3-0.4,4.2-1.2c1.1-1,1.7-2.5,1.6-4v-1c-0.7,0.7-1.5,1.2-2.4,1.5c-1,0.4-2.1,0.6-3.2,0.6c-1.4,0-2.7-0.3-3.9-0.8
	c-1.2-0.5-2.3-1.3-3.2-2.3c-1-1.1-1.7-2.3-2.2-3.7C130.6,63.2,130.3,61.5,130.4,59.8L130.4,59.8z M137,59.8
	c-0.1,1.9,0.4,3.7,1.4,5.2c0.8,1.1,2.1,1.7,3.5,1.7c0.8,0,1.6-0.1,2.3-0.4c0.7-0.3,1.3-0.7,1.9-1.3V54.6c-0.5-0.5-1.2-1-1.9-1.3
	c-0.7-0.3-1.5-0.5-2.3-0.5c-1.4,0-2.7,0.6-3.5,1.7C137.5,55.7,137,57.4,137,59.8L137,59.8z M168.5,52.8c-0.8,0-1.6,0.2-2.4,0.5
	c-0.7,0.3-1.3,0.7-1.8,1.2v16.9h-6.6v-32h6.6v10.8c0.8-0.6,1.6-1.1,2.6-1.4c1.1-0.4,2.2-0.6,3.3-0.6c2.6-0.1,5.1,0.8,6.8,2.7
	c1.6,1.8,2.4,4.5,2.4,8v12.6H173V58.9c0-2.2-0.4-3.7-1.1-4.7C171.1,53.3,169.8,52.7,168.5,52.8L168.5,52.8z M202.4,48.6l4.1,15.1
	l4.2-15.1h6.7l-7.4,22.8h-6.7l-3.9-14.7l-3.9,14.7h-6.7l-7.4-22.8h6.7l4.2,15.1l4.1-15.1L202.4,48.6z M226.8,71.9
	c-1.1,0-2.2-0.2-3.3-0.5c-1-0.3-1.9-0.8-2.7-1.4c-0.8-0.6-1.4-1.4-1.8-2.3c-0.5-1-0.7-2-0.7-3.1c-0.1-2.2,0.9-4.3,2.7-5.7
	c1.8-1.4,4.4-2.1,7.8-2.1h4.2v-1c0.1-0.9-0.3-1.8-1-2.3c-1-0.5-2.2-0.7-3.4-0.7c-1.4,0-2.8,0.2-4.1,0.5c-1.3,0.3-2.5,0.8-3.7,1.4
	l-0.6-4.7c1.3-0.6,2.7-1.1,4.1-1.4c1.6-0.4,3.3-0.6,5-0.6c3.5,0,6.1,0.7,7.8,2c1.6,1.3,2.5,3.6,2.5,6.7v14.6h-6.6v-1.5
	c-0.9,0.7-1.8,1.2-2.8,1.6C229.1,71.9,228,72,226.8,71.9L226.8,71.9z M228.4,67.4c0.9,0,1.8-0.2,2.6-0.5c0.8-0.3,1.5-0.8,2.1-1.4
	v-4.2h-4c-1.1-0.1-2.3,0.2-3.2,0.9c-0.6,0.6-1,1.5-0.9,2.3c-0.1,0.8,0.3,1.7,0.9,2.2C226.6,67.2,227.5,67.5,228.4,67.4L228.4,67.4z
	 M250.5,71.4l-9.1-22.8h6.9l5.4,15.1l5.4-15.1h6.9l-11.7,31.3h-6.9L250.5,71.4z M275.9,71.9c-1.5,0-3-0.1-4.5-0.4
	c-1.4-0.3-2.7-0.7-4-1.4l0.3-5.3c1.1,0.8,2.3,1.3,3.6,1.8c1.3,0.4,2.6,0.6,4,0.6c2.4,0,3.6-0.8,3.6-2.3c0-0.3-0.1-0.6-0.2-0.9
	c-0.2-0.3-0.4-0.6-0.7-0.8c-0.4-0.3-0.9-0.5-1.4-0.7c-0.6-0.2-1.3-0.5-2.2-0.8c-2-0.4-3.7-1.4-5.2-2.8c-1.1-1.1-1.7-2.6-1.6-4.2
	c-0.1-2,0.8-3.9,2.4-5c1.6-1.2,3.9-1.7,6.9-1.7c2.6,0,5.2,0.5,7.6,1.5l-0.5,4.8c-1-0.5-2-0.9-3.1-1.2c-1.1-0.3-2.2-0.4-3.4-0.4
	c-0.9-0.1-1.8,0.1-2.6,0.5c-0.5,0.3-0.7,0.8-0.7,1.3c0,0.7,0.3,1.3,0.9,1.7c1.1,0.7,2.2,1.2,3.4,1.4c1.2,0.4,2.3,0.8,3.3,1.4
	c0.8,0.4,1.5,1,2.2,1.6c0.5,0.5,0.9,1.2,1.2,1.9c0.9,2.7,0.1,5.6-2,7.5C281.4,71.4,279,72,275.9,71.9L275.9,71.9z"/>
</svg>
